<svg xmlns="http://www.w3.org/2000/svg" width="143.738" height="56.58" viewBox="0 0 143.738 56.58"><g transform="translate(-528.575 -246.761)"><path d="M1.411-7.877v-4.75h3.05v.733H2.275v1.172H4.221V-10H2.275v1.391H4.625v.733Zm6.855-.11q-.24.062-.624.127A5.055,5.055,0,0,1,6.8-7.8a1.859,1.859,0,0,1-.724-.123,1.161,1.161,0,0,1-.466-.344,1.348,1.348,0,0,1-.25-.524,2.783,2.783,0,0,1-.075-.668v-2.007h.829v1.878a1.515,1.515,0,0,0,.168.822.658.658,0,0,0,.586.246q.151,0,.318-.014a1.685,1.685,0,0,0,.25-.034v-2.9h.829Zm3.153-2.728a2.644,2.644,0,0,0-.285-.072,2.092,2.092,0,0,0-.422-.038,1.668,1.668,0,0,0-.291.028,1.751,1.751,0,0,0-.216.049v2.87H9.376v-3.413a4.559,4.559,0,0,1,.6-.168,3.739,3.739,0,0,1,.8-.079q.082,0,.192.01t.219.028q.11.017.212.041t.165.045Zm4.017,1.042a2.314,2.314,0,0,1-.123.775,1.714,1.714,0,0,1-.349.6,1.573,1.573,0,0,1-.545.384,1.76,1.76,0,0,1-.7.137,1.735,1.735,0,0,1-.7-.137,1.58,1.58,0,0,1-.541-.384,1.757,1.757,0,0,1-.355-.6,2.258,2.258,0,0,1-.127-.775,2.228,2.228,0,0,1,.127-.771,1.734,1.734,0,0,1,.357-.593,1.573,1.573,0,0,1,.545-.38,1.756,1.756,0,0,1,.693-.134,1.781,1.781,0,0,1,.7.134,1.534,1.534,0,0,1,.545.38,1.764,1.764,0,0,1,.353.593,2.228,2.228,0,0,1,.127.772Zm-.85,0a1.4,1.4,0,0,0-.23-.846.751.751,0,0,0-.639-.312.751.751,0,0,0-.639.312,1.4,1.4,0,0,0-.23.846,1.425,1.425,0,0,0,.23.857.748.748,0,0,0,.639.315.748.748,0,0,0,.639-.315,1.425,1.425,0,0,0,.229-.857Zm4.14.021a1.336,1.336,0,0,0-.25-.864.978.978,0,0,0-.806-.309q-.116,0-.246.01a1.336,1.336,0,0,0-.25.045v2.05a1.284,1.284,0,0,0,.291.141,1.139,1.139,0,0,0,.387.065.742.742,0,0,0,.662-.309,1.457,1.457,0,0,0,.211-.83Zm.85-.014a2.537,2.537,0,0,1-.106.754,1.758,1.758,0,0,1-.305.59,1.355,1.355,0,0,1-.5.384,1.6,1.6,0,0,1-.675.137,1.667,1.667,0,0,1-.466-.062A1.742,1.742,0,0,1,17.176-8v1.391h-.829v-4.737q.254-.068.624-.13a4.751,4.751,0,0,1,.781-.062,2.092,2.092,0,0,1,.761.13,1.586,1.586,0,0,1,.572.374,1.645,1.645,0,0,1,.363.59,2.25,2.25,0,0,1,.126.778Zm.713.014a2.252,2.252,0,0,1,.139-.83,1.742,1.742,0,0,1,.374-.593,1.546,1.546,0,0,1,.536-.356,1.655,1.655,0,0,1,.617-.12,1.475,1.475,0,0,1,1.155.459,1.987,1.987,0,0,1,.415,1.37q0,.068,0,.154t-.01.154H21.144a.946.946,0,0,0,.305.668,1.159,1.159,0,0,0,.786.236,2.58,2.58,0,0,0,.55-.055,2.272,2.272,0,0,0,.393-.116l.11.679a1.327,1.327,0,0,1-.189.072,2.663,2.663,0,0,1-.274.068q-.154.031-.332.049a3.167,3.167,0,0,1-.363.021,2.2,2.2,0,0,1-.822-.141,1.532,1.532,0,0,1-.576-.391,1.6,1.6,0,0,1-.336-.59,2.408,2.408,0,0,1-.109-.742Zm2.406-.37a1.09,1.09,0,0,0-.049-.325.786.786,0,0,0-.141-.267.665.665,0,0,0-.226-.178.721.721,0,0,0-.318-.065.742.742,0,0,0-.336.072.766.766,0,0,0-.246.189.862.862,0,0,0-.154.267,1.448,1.448,0,0,0-.075.309Zm3.023,1.563A3.086,3.086,0,0,0,26.3-8.5V-9.42a1.613,1.613,0,0,0-.2-.041,1.853,1.853,0,0,0-.288-.021,1.917,1.917,0,0,0-.278.021.865.865,0,0,0-.254.075.46.46,0,0,0-.182.154.431.431,0,0,0-.068.25.439.439,0,0,0,.185.408.955.955,0,0,0,.5.113Zm-.068-3.091a2.029,2.029,0,0,1,.692.1,1.105,1.105,0,0,1,.449.288,1.078,1.078,0,0,1,.24.449,2.2,2.2,0,0,1,.072.579v2.173q-.192.041-.579.1a5.915,5.915,0,0,1-.874.058,2.623,2.623,0,0,1-.59-.062,1.239,1.239,0,0,1-.456-.2.938.938,0,0,1-.295-.356,1.237,1.237,0,0,1-.106-.541,1.045,1.045,0,0,1,.12-.521.983.983,0,0,1,.325-.344,1.41,1.41,0,0,1,.476-.192,2.682,2.682,0,0,1,.566-.058,2.556,2.556,0,0,1,.288.017A2.685,2.685,0,0,1,26.3-10v-.137a1.073,1.073,0,0,0-.034-.274.568.568,0,0,0-.119-.236.561.561,0,0,0-.226-.154.979.979,0,0,0-.353-.055,3.133,3.133,0,0,0-.528.041,2.32,2.32,0,0,0-.391.1l-.1-.672A3.265,3.265,0,0,1,25-11.5a3.6,3.6,0,0,1,.644-.055Zm2.522.205a5.556,5.556,0,0,1,.624-.13,5.378,5.378,0,0,1,.85-.062,1.955,1.955,0,0,1,.733.12,1.144,1.144,0,0,1,.469.336,1.283,1.283,0,0,1,.246.521,2.909,2.909,0,0,1,.072.668v2.015h-.828V-9.762a2.722,2.722,0,0,0-.038-.492.868.868,0,0,0-.123-.329.492.492,0,0,0-.233-.185.983.983,0,0,0-.36-.058,2.764,2.764,0,0,0-.329.021q-.172.021-.254.034v2.894h-.83Zm6.909,2.823a1.152,1.152,0,0,0,.678-.157.522.522,0,0,0,.212-.445.575.575,0,0,0-.072-.295.753.753,0,0,0-.205-.223,1.72,1.72,0,0,0-.325-.185q-.192-.086-.439-.168a3.69,3.69,0,0,1-.476-.2,1.605,1.605,0,0,1-.4-.264,1.215,1.215,0,0,1-.281-.377,1.2,1.2,0,0,1-.106-.528,1.238,1.238,0,0,1,.445-1.011,1.853,1.853,0,0,1,1.213-.367,2.873,2.873,0,0,1,.792.1,2.425,2.425,0,0,1,.545.216l-.267.7a2.047,2.047,0,0,0-.511-.2,2.379,2.379,0,0,0-.572-.068.9.9,0,0,0-.545.144.473.473,0,0,0-.2.4.534.534,0,0,0,.067.27.669.669,0,0,0,.185.2,1.627,1.627,0,0,0,.281.165q.161.075.353.144.336.123.6.25a1.694,1.694,0,0,1,.445.3,1.18,1.18,0,0,1,.278.411,1.524,1.524,0,0,1,.1.572,1.188,1.188,0,0,1-.456,1,2.147,2.147,0,0,1-1.333.353,3.528,3.528,0,0,1-.538-.038,3.445,3.445,0,0,1-.432-.092,2.943,2.943,0,0,1-.325-.113,2,2,0,0,1-.219-.106l.254-.706a2.925,2.925,0,0,0,.5.205A2.471,2.471,0,0,0,35.079-8.522Zm5.805-1.152a2.315,2.315,0,0,1-.123.775,1.714,1.714,0,0,1-.349.6,1.573,1.573,0,0,1-.545.384,1.76,1.76,0,0,1-.7.137,1.735,1.735,0,0,1-.7-.137,1.58,1.58,0,0,1-.541-.384,1.757,1.757,0,0,1-.353-.6,2.257,2.257,0,0,1-.127-.775,2.229,2.229,0,0,1,.127-.771,1.734,1.734,0,0,1,.356-.593,1.573,1.573,0,0,1,.545-.38,1.756,1.756,0,0,1,.693-.134,1.781,1.781,0,0,1,.7.134,1.533,1.533,0,0,1,.545.38,1.763,1.763,0,0,1,.353.593,2.228,2.228,0,0,1,.126.772Zm-.85,0a1.4,1.4,0,0,0-.23-.846.751.751,0,0,0-.639-.312.751.751,0,0,0-.639.312,1.4,1.4,0,0,0-.23.846,1.425,1.425,0,0,0,.23.857.748.748,0,0,0,.639.315.748.748,0,0,0,.639-.315A1.425,1.425,0,0,0,40.035-9.673Zm1.563.007a2.2,2.2,0,0,1,.123-.744,1.765,1.765,0,0,1,.353-.6,1.617,1.617,0,0,1,.559-.4,1.829,1.829,0,0,1,.74-.144,2.51,2.51,0,0,1,.959.185l-.178.679a1.883,1.883,0,0,0-.325-.1,1.751,1.751,0,0,0-.387-.041.908.908,0,0,0-.74.305,1.309,1.309,0,0,0-.255.86,1.355,1.355,0,0,0,.24.846.958.958,0,0,0,.809.312,2.127,2.127,0,0,0,.418-.041,1.966,1.966,0,0,0,.356-.1l.116.686a1.726,1.726,0,0,1-.415.123,2.949,2.949,0,0,1-.572.055,2.078,2.078,0,0,1-.8-.141,1.515,1.515,0,0,1-.562-.391,1.619,1.619,0,0,1-.329-.6,2.473,2.473,0,0,1-.111-.751Zm4.325,1.789h-.83v-3.585h.829Zm.089-4.633a.475.475,0,0,1-.151.37A.512.512,0,0,1,45.5-12a.521.521,0,0,1-.363-.137.475.475,0,0,1-.151-.37.484.484,0,0,1,.151-.377.521.521,0,0,1,.363-.137.512.512,0,0,1,.356.137.484.484,0,0,1,.151.376Zm.822,2.858a2.252,2.252,0,0,1,.141-.829,1.742,1.742,0,0,1,.374-.593,1.546,1.546,0,0,1,.535-.356,1.655,1.655,0,0,1,.617-.12,1.475,1.475,0,0,1,1.155.459,1.987,1.987,0,0,1,.415,1.371q0,.068,0,.154t-.01.154H47.691A.945.945,0,0,0,48-8.744a1.159,1.159,0,0,0,.786.236,2.58,2.58,0,0,0,.552-.055,2.273,2.273,0,0,0,.393-.116l.11.679a1.327,1.327,0,0,1-.188.072,2.663,2.663,0,0,1-.274.068q-.154.031-.332.049a3.168,3.168,0,0,1-.363.021,2.2,2.2,0,0,1-.822-.141,1.532,1.532,0,0,1-.576-.391,1.6,1.6,0,0,1-.336-.59,2.408,2.408,0,0,1-.112-.741Zm2.406-.37a1.09,1.09,0,0,0-.049-.325.787.787,0,0,0-.141-.267.665.665,0,0,0-.226-.178.721.721,0,0,0-.318-.065.742.742,0,0,0-.336.072.766.766,0,0,0-.246.189.862.862,0,0,0-.154.267,1.448,1.448,0,0,0-.075.309Zm1.72-2.385.829-.137v1.081h1.273v.692H51.788v1.46a1.061,1.061,0,0,0,.137.617.541.541,0,0,0,.466.185,1.519,1.519,0,0,0,.4-.049,2.71,2.71,0,0,0,.278-.089l.137.658a3.111,3.111,0,0,1-.377.127,2.051,2.051,0,0,1-.549.065,1.736,1.736,0,0,1-.639-.1.945.945,0,0,1-.408-.3,1.18,1.18,0,0,1-.212-.473,2.939,2.939,0,0,1-.062-.634Zm5.887.946a26.116,26.116,0,0,1-1.286,3.7,3.717,3.717,0,0,1-.281.528,1.566,1.566,0,0,1-.322.363,1.148,1.148,0,0,1-.4.209,1.79,1.79,0,0,1-.508.065,1.784,1.784,0,0,1-.381-.041,1.278,1.278,0,0,1-.285-.089l.151-.665a1.348,1.348,0,0,0,.489.1.76.76,0,0,0,.506-.154,1.264,1.264,0,0,0,.32-.476q-.393-.754-.754-1.645a18.113,18.113,0,0,1-.642-1.894h.885q.069.288.169.624t.217.682q.117.344.246.688t.261.639q.218-.61.409-1.3t.348-1.333Zm3.8-1.734a2.237,2.237,0,0,1,.507.049,2.879,2.879,0,0,1,.329.092l-.158.686a1.3,1.3,0,0,0-.271-.089,1.531,1.531,0,0,0-.332-.034.859.859,0,0,0-.336.058.549.549,0,0,0-.219.161.618.618,0,0,0-.116.25,1.406,1.406,0,0,0-.034.318v.24h1.3v.692h-1.3v2.895h-.829v-3.839a1.542,1.542,0,0,1,.363-1.086,1.42,1.42,0,0,1,1.1-.394Zm4.509,3.523a2.314,2.314,0,0,1-.123.775,1.714,1.714,0,0,1-.349.6,1.573,1.573,0,0,1-.545.384,1.76,1.76,0,0,1-.7.137,1.735,1.735,0,0,1-.7-.137,1.58,1.58,0,0,1-.541-.384,1.757,1.757,0,0,1-.353-.6,2.258,2.258,0,0,1-.127-.775,2.228,2.228,0,0,1,.127-.771,1.734,1.734,0,0,1,.356-.593,1.575,1.575,0,0,1,.545-.38,1.756,1.756,0,0,1,.693-.134,1.781,1.781,0,0,1,.7.134,1.533,1.533,0,0,1,.545.38,1.763,1.763,0,0,1,.353.593,2.228,2.228,0,0,1,.125.771Zm-.85,0a1.4,1.4,0,0,0-.23-.846.751.751,0,0,0-.639-.312.751.751,0,0,0-.639.312,1.4,1.4,0,0,0-.23.846,1.425,1.425,0,0,0,.23.857.748.748,0,0,0,.639.315.748.748,0,0,0,.639-.315,1.425,1.425,0,0,0,.231-.857Zm3.8-1.042a2.646,2.646,0,0,0-.285-.072,2.092,2.092,0,0,0-.422-.038,1.667,1.667,0,0,0-.291.028,1.751,1.751,0,0,0-.216.049v2.871h-.829v-3.413a4.559,4.559,0,0,1,.6-.168,3.739,3.739,0,0,1,.8-.079q.082,0,.192.01t.219.028q.11.017.212.041t.165.045Zm3.811-1.96a2.8,2.8,0,0,1,1.587.377,1.327,1.327,0,0,1,.552,1.18,1.6,1.6,0,0,1-.147.716,1.238,1.238,0,0,1-.429.487,1.987,1.987,0,0,1-.686.278,4.325,4.325,0,0,1-.925.089h-.432v1.671h-.864v-4.683a4.288,4.288,0,0,1,.668-.092q.369-.022.678-.022Zm.062.747q-.329,0-.541.021v1.618h.418a2.121,2.121,0,0,0,.959-.175.676.676,0,0,0,.336-.662.786.786,0,0,0-.089-.391.639.639,0,0,0-.246-.246,1.16,1.16,0,0,0-.374-.127,2.691,2.691,0,0,0-.463-.038ZM76-8.46a3.086,3.086,0,0,0,.582-.041V-9.42a1.614,1.614,0,0,0-.2-.041,1.853,1.853,0,0,0-.288-.021,1.917,1.917,0,0,0-.278.021.865.865,0,0,0-.254.075.46.46,0,0,0-.182.154.431.431,0,0,0-.068.25.438.438,0,0,0,.185.408.955.955,0,0,0,.5.113Zm-.068-3.091a2.029,2.029,0,0,1,.692.1,1.105,1.105,0,0,1,.449.288,1.078,1.078,0,0,1,.24.449,2.2,2.2,0,0,1,.075.579V-7.96q-.192.041-.579.1a5.915,5.915,0,0,1-.874.058,2.623,2.623,0,0,1-.59-.062,1.239,1.239,0,0,1-.456-.2.938.938,0,0,1-.295-.356,1.236,1.236,0,0,1-.106-.541,1.046,1.046,0,0,1,.12-.521.983.983,0,0,1,.325-.344,1.41,1.41,0,0,1,.476-.192,2.682,2.682,0,0,1,.566-.058,2.553,2.553,0,0,1,.288.017A2.685,2.685,0,0,1,76.59-10v-.137a1.073,1.073,0,0,0-.034-.274.568.568,0,0,0-.121-.235.561.561,0,0,0-.226-.154.979.979,0,0,0-.353-.055,3.133,3.133,0,0,0-.528.041,2.32,2.32,0,0,0-.391.1l-.1-.672a3.265,3.265,0,0,1,.459-.11,3.6,3.6,0,0,1,.642-.055Zm2.324,1.9a2.252,2.252,0,0,1,.141-.829,1.742,1.742,0,0,1,.374-.593,1.546,1.546,0,0,1,.535-.356,1.655,1.655,0,0,1,.617-.12,1.475,1.475,0,0,1,1.155.459A1.987,1.987,0,0,1,81.5-9.721q0,.068,0,.154t-.01.154H79.117a.945.945,0,0,0,.305.668,1.159,1.159,0,0,0,.786.236,2.58,2.58,0,0,0,.552-.055,2.273,2.273,0,0,0,.393-.116l.11.679a1.327,1.327,0,0,1-.189.072,2.663,2.663,0,0,1-.274.068q-.154.031-.332.049a3.167,3.167,0,0,1-.363.021,2.2,2.2,0,0,1-.822-.141,1.531,1.531,0,0,1-.576-.391,1.6,1.6,0,0,1-.336-.59,2.409,2.409,0,0,1-.111-.741Zm2.406-.37a1.09,1.09,0,0,0-.049-.325.786.786,0,0,0-.141-.267.665.665,0,0,0-.226-.178.721.721,0,0,0-.318-.065.742.742,0,0,0-.336.072.765.765,0,0,0-.246.189.862.862,0,0,0-.154.267,1.449,1.449,0,0,0-.075.309Zm2.413.344a1.3,1.3,0,0,0,.26.86.885.885,0,0,0,.72.312,2.86,2.86,0,0,0,.339-.017,2.288,2.288,0,0,0,.23-.038v-2.057a1.285,1.285,0,0,0-.291-.141,1.139,1.139,0,0,0-.387-.065.742.742,0,0,0-.659.308,1.471,1.471,0,0,0-.21.836Zm2.378,1.693a4.914,4.914,0,0,1-.62.137,4.813,4.813,0,0,1-.786.062,2.092,2.092,0,0,1-.76-.132,1.586,1.586,0,0,1-.572-.374,1.645,1.645,0,0,1-.363-.59,2.25,2.25,0,0,1-.125-.78,2.621,2.621,0,0,1,.106-.771,1.687,1.687,0,0,1,.312-.593,1.39,1.39,0,0,1,.5-.38,1.627,1.627,0,0,1,.679-.134,1.552,1.552,0,0,1,.459.062,2.056,2.056,0,0,1,.344.137v-1.72l.829-.137Zm1.947.11h-.829v-3.587H87.4Zm.089-4.633a.475.475,0,0,1-.151.37.512.512,0,0,1-.356.137.521.521,0,0,1-.363-.137.475.475,0,0,1-.151-.37.484.484,0,0,1,.151-.377.521.521,0,0,1,.363-.137.512.512,0,0,1,.356.137.484.484,0,0,1,.152.374ZM89.778-8.46A3.086,3.086,0,0,0,90.36-8.5V-9.42a1.613,1.613,0,0,0-.2-.041,1.853,1.853,0,0,0-.288-.021,1.917,1.917,0,0,0-.278.021.865.865,0,0,0-.254.075.46.46,0,0,0-.182.154.431.431,0,0,0-.068.25.439.439,0,0,0,.185.408.955.955,0,0,0,.5.113Zm-.068-3.091a2.029,2.029,0,0,1,.693.1,1.105,1.105,0,0,1,.449.288,1.079,1.079,0,0,1,.24.449,2.2,2.2,0,0,1,.072.579V-7.96q-.192.041-.579.1a5.915,5.915,0,0,1-.874.058,2.623,2.623,0,0,1-.59-.062,1.239,1.239,0,0,1-.456-.2.938.938,0,0,1-.295-.356,1.237,1.237,0,0,1-.106-.541,1.046,1.046,0,0,1,.12-.521.983.983,0,0,1,.325-.344,1.409,1.409,0,0,1,.476-.192,2.682,2.682,0,0,1,.566-.058,2.556,2.556,0,0,1,.288.017A2.685,2.685,0,0,1,90.36-10v-.137a1.072,1.072,0,0,0-.034-.274.568.568,0,0,0-.121-.235.561.561,0,0,0-.226-.154.979.979,0,0,0-.353-.055,3.133,3.133,0,0,0-.528.041,2.32,2.32,0,0,0-.391.1l-.1-.672a3.265,3.265,0,0,1,.459-.11,3.6,3.6,0,0,1,.644-.056Zm2.481-.857.829-.137v1.081h1.275v.692H93.02v1.46a1.061,1.061,0,0,0,.137.617.541.541,0,0,0,.466.185,1.519,1.519,0,0,0,.4-.049,2.708,2.708,0,0,0,.278-.089l.137.658a3.112,3.112,0,0,1-.377.127,2.051,2.051,0,0,1-.549.069,1.736,1.736,0,0,1-.639-.1.945.945,0,0,1-.408-.3,1.18,1.18,0,0,1-.212-.473,2.939,2.939,0,0,1-.062-.634Zm5,1.693a2.645,2.645,0,0,0-.285-.072,2.092,2.092,0,0,0-.422-.038,1.668,1.668,0,0,0-.291.028,1.752,1.752,0,0,0-.216.049v2.87H95.15v-3.413a4.561,4.561,0,0,1,.6-.168,3.739,3.739,0,0,1,.8-.079q.082,0,.192.01t.219.028q.11.017.212.041t.165.045ZM98.8-7.877h-.829v-3.585H98.8Zm.089-4.633a.475.475,0,0,1-.151.37.512.512,0,0,1-.356.137.521.521,0,0,1-.363-.137.475.475,0,0,1-.151-.37.484.484,0,0,1,.151-.377.521.521,0,0,1,.363-.137.512.512,0,0,1,.356.137.484.484,0,0,1,.15.376Zm.822,2.844a2.2,2.2,0,0,1,.123-.744,1.765,1.765,0,0,1,.353-.6,1.618,1.618,0,0,1,.559-.4,1.829,1.829,0,0,1,.74-.144,2.51,2.51,0,0,1,.959.185l-.178.679a1.883,1.883,0,0,0-.325-.1,1.751,1.751,0,0,0-.387-.041.908.908,0,0,0-.74.305,1.309,1.309,0,0,0-.254.86,1.355,1.355,0,0,0,.24.846.958.958,0,0,0,.809.312,2.127,2.127,0,0,0,.418-.041,1.966,1.966,0,0,0,.356-.1l.116.686a1.726,1.726,0,0,1-.415.123,2.949,2.949,0,0,1-.572.055,2.078,2.078,0,0,1-.8-.141,1.515,1.515,0,0,1-.562-.391,1.619,1.619,0,0,1-.332-.6,2.472,2.472,0,0,1-.111-.752Z" transform="translate(527.734 298.001)" fill="#fff"/><path d="M3.347-11.975a1.389,1.389,0,0,0-1.121.456,1.893,1.893,0,0,0-.387,1.265,2.514,2.514,0,0,0,.092.7,1.549,1.549,0,0,0,.274.545,1.253,1.253,0,0,0,.452.353,1.481,1.481,0,0,0,.634.127,3.837,3.837,0,0,0,.391-.017,1.588,1.588,0,0,0,.26-.045V-10.3h.864v2.283a4,4,0,0,1-.6.151,5.2,5.2,0,0,1-.98.082,2.581,2.581,0,0,1-.939-.165,1.948,1.948,0,0,1-.723-.48A2.18,2.18,0,0,1,1.1-9.2a3.122,3.122,0,0,1-.165-1.055,2.855,2.855,0,0,1,.179-1.056,2.285,2.285,0,0,1,.5-.778,2.09,2.09,0,0,1,.74-.483,2.484,2.484,0,0,1,.9-.165,3.457,3.457,0,0,1,.586.045,3.958,3.958,0,0,1,.442.1,1.788,1.788,0,0,1,.305.116q.12.062.168.089l-.26.706a2.1,2.1,0,0,0-.511-.209,2.359,2.359,0,0,0-.641-.085ZM7.083-8.459A3.086,3.086,0,0,0,7.665-8.5v-.918a1.614,1.614,0,0,0-.2-.041A1.853,1.853,0,0,0,7.18-9.48,1.917,1.917,0,0,0,6.9-9.46a.865.865,0,0,0-.254.075.46.46,0,0,0-.182.154.431.431,0,0,0-.068.25.439.439,0,0,0,.185.408A.955.955,0,0,0,7.083-8.459ZM7.012-11.55a2.029,2.029,0,0,1,.692.1,1.105,1.105,0,0,1,.449.288,1.078,1.078,0,0,1,.24.449,2.2,2.2,0,0,1,.072.579v2.173q-.192.041-.579.1a5.915,5.915,0,0,1-.874.058,2.623,2.623,0,0,1-.59-.062,1.239,1.239,0,0,1-.456-.2.938.938,0,0,1-.295-.356,1.237,1.237,0,0,1-.106-.541,1.045,1.045,0,0,1,.12-.521.983.983,0,0,1,.325-.344,1.41,1.41,0,0,1,.476-.192,2.682,2.682,0,0,1,.566-.058,2.556,2.556,0,0,1,.288.017A2.685,2.685,0,0,1,7.662-10v-.137a1.073,1.073,0,0,0-.034-.274.568.568,0,0,0-.116-.235.561.561,0,0,0-.226-.154.979.979,0,0,0-.353-.055,3.133,3.133,0,0,0-.528.041,2.32,2.32,0,0,0-.391.1l-.1-.672a3.265,3.265,0,0,1,.459-.11,3.6,3.6,0,0,1,.642-.055Zm3.42,3.078a1.091,1.091,0,0,0,.48-.079.28.28,0,0,0,.151-.271.351.351,0,0,0-.161-.295,2.364,2.364,0,0,0-.531-.254,4.2,4.2,0,0,1-.415-.175,1.416,1.416,0,0,1-.325-.216.885.885,0,0,1-.216-.3,1.04,1.04,0,0,1-.079-.429.934.934,0,0,1,.363-.778,1.56,1.56,0,0,1,.987-.285,3.035,3.035,0,0,1,.6.058,2.935,2.935,0,0,1,.432.113l-.149.672a2.032,2.032,0,0,0-.349-.113,2.113,2.113,0,0,0-.492-.049.859.859,0,0,0-.411.086.281.281,0,0,0-.158.264.38.38,0,0,0,.031.158.34.34,0,0,0,.106.127,1.088,1.088,0,0,0,.2.116,3.066,3.066,0,0,0,.3.118,4.6,4.6,0,0,1,.5.216,1.355,1.355,0,0,1,.339.24.82.82,0,0,1,.2.305,1.218,1.218,0,0,1,.062.411.885.885,0,0,1-.38.778,1.894,1.894,0,0,1-1.086.264,2.974,2.974,0,0,1-.761-.079,3.945,3.945,0,0,1-.4-.127l.144-.693a3.736,3.736,0,0,0,.442.144,2.28,2.28,0,0,0,.586.068ZM12.68-12.4l.829-.137v1.081h1.275v.692H13.512v1.46a1.061,1.061,0,0,0,.135.616.541.541,0,0,0,.466.185,1.519,1.519,0,0,0,.4-.049,2.709,2.709,0,0,0,.278-.089l.137.658a3.111,3.111,0,0,1-.377.127A2.051,2.051,0,0,1,14-7.795a1.735,1.735,0,0,1-.639-.1.945.945,0,0,1-.408-.3,1.18,1.18,0,0,1-.212-.473,2.938,2.938,0,0,1-.062-.634Zm5,1.693a2.644,2.644,0,0,0-.285-.072,2.092,2.092,0,0,0-.422-.038,1.668,1.668,0,0,0-.291.028,1.751,1.751,0,0,0-.216.049v2.868h-.827v-3.413a4.559,4.559,0,0,1,.6-.168,3.739,3.739,0,0,1,.8-.079q.082,0,.192.01t.219.028q.11.017.212.041t.165.045ZM21.7-9.669a2.314,2.314,0,0,1-.123.775,1.714,1.714,0,0,1-.349.6,1.573,1.573,0,0,1-.545.384,1.76,1.76,0,0,1-.7.137,1.735,1.735,0,0,1-.7-.137,1.58,1.58,0,0,1-.541-.384,1.757,1.757,0,0,1-.353-.6,2.258,2.258,0,0,1-.127-.775,2.228,2.228,0,0,1,.127-.771,1.734,1.734,0,0,1,.358-.6,1.573,1.573,0,0,1,.545-.38,1.756,1.756,0,0,1,.693-.134,1.781,1.781,0,0,1,.7.134,1.534,1.534,0,0,1,.545.38,1.763,1.763,0,0,1,.353.593,2.228,2.228,0,0,1,.126.772Zm-.85,0a1.4,1.4,0,0,0-.23-.846.751.751,0,0,0-.639-.312.751.751,0,0,0-.639.312,1.4,1.4,0,0,0-.23.846,1.425,1.425,0,0,0,.23.857.748.748,0,0,0,.639.315.748.748,0,0,0,.639-.315,1.425,1.425,0,0,0,.232-.86Zm1.563.021a2.253,2.253,0,0,1,.141-.829,1.742,1.742,0,0,1,.374-.593,1.546,1.546,0,0,1,.537-.359,1.655,1.655,0,0,1,.617-.12,1.475,1.475,0,0,1,1.155.459,1.987,1.987,0,0,1,.415,1.371q0,.068,0,.154t-.01.154H23.273a.946.946,0,0,0,.3.668,1.159,1.159,0,0,0,.786.236,2.58,2.58,0,0,0,.552-.055,2.273,2.273,0,0,0,.393-.116l.11.679a1.327,1.327,0,0,1-.189.072,2.663,2.663,0,0,1-.274.068q-.154.031-.332.049a3.167,3.167,0,0,1-.363.021,2.2,2.2,0,0,1-.822-.141,1.532,1.532,0,0,1-.576-.391,1.6,1.6,0,0,1-.336-.59,2.408,2.408,0,0,1-.109-.741Zm2.406-.37a1.09,1.09,0,0,0-.049-.325.786.786,0,0,0-.141-.267.665.665,0,0,0-.226-.178.721.721,0,0,0-.318-.065.742.742,0,0,0-.336.072.765.765,0,0,0-.246.189.862.862,0,0,0-.154.267,1.448,1.448,0,0,0-.075.309Zm1.762-1.323a5.557,5.557,0,0,1,.624-.13,5.378,5.378,0,0,1,.85-.062,1.955,1.955,0,0,1,.733.12,1.144,1.144,0,0,1,.469.336,1.283,1.283,0,0,1,.246.521,2.909,2.909,0,0,1,.072.668v2.015h-.826V-9.761a2.722,2.722,0,0,0-.038-.492.868.868,0,0,0-.123-.329.491.491,0,0,0-.233-.185.983.983,0,0,0-.36-.058,2.764,2.764,0,0,0-.329.021q-.172.021-.254.034v2.894h-.83ZM30.6-12.4l.829-.137v1.081h1.275v.692H31.436v1.46a1.061,1.061,0,0,0,.137.617.541.541,0,0,0,.466.185,1.519,1.519,0,0,0,.4-.049,2.708,2.708,0,0,0,.278-.089l.137.658a3.111,3.111,0,0,1-.377.127,2.05,2.05,0,0,1-.547.066,1.736,1.736,0,0,1-.639-.1.945.945,0,0,1-.408-.3,1.18,1.18,0,0,1-.212-.473A2.938,2.938,0,0,1,30.61-9.3Zm2.7,2.752a2.253,2.253,0,0,1,.141-.829,1.742,1.742,0,0,1,.374-.593,1.546,1.546,0,0,1,.535-.356,1.655,1.655,0,0,1,.617-.12,1.474,1.474,0,0,1,1.155.459,1.987,1.987,0,0,1,.415,1.371q0,.068,0,.154t-.01.154H34.164a.946.946,0,0,0,.305.668,1.159,1.159,0,0,0,.786.236,2.58,2.58,0,0,0,.552-.055,2.272,2.272,0,0,0,.393-.116L36.31-8a1.327,1.327,0,0,1-.188.072,2.663,2.663,0,0,1-.274.068q-.154.031-.332.049a3.168,3.168,0,0,1-.363.021,2.2,2.2,0,0,1-.822-.141,1.532,1.532,0,0,1-.576-.391,1.6,1.6,0,0,1-.336-.59,2.408,2.408,0,0,1-.112-.741Zm2.406-.37a1.089,1.089,0,0,0-.049-.325.786.786,0,0,0-.141-.267.665.665,0,0,0-.226-.178.721.721,0,0,0-.318-.065.742.742,0,0,0-.336.072.766.766,0,0,0-.246.189.862.862,0,0,0-.154.267,1.448,1.448,0,0,0-.075.309Zm3.8-.692a2.644,2.644,0,0,0-.285-.072,2.092,2.092,0,0,0-.421-.038,1.668,1.668,0,0,0-.291.028,1.751,1.751,0,0,0-.216.049v2.871h-.83v-3.413a4.558,4.558,0,0,1,.6-.168,3.739,3.739,0,0,1,.8-.079q.082,0,.192.01t.219.028q.11.017.212.041t.165.045Zm4.017,1.042a2.314,2.314,0,0,1-.123.775,1.714,1.714,0,0,1-.349.6,1.573,1.573,0,0,1-.545.384,1.76,1.76,0,0,1-.7.137,1.735,1.735,0,0,1-.7-.137,1.58,1.58,0,0,1-.541-.384,1.757,1.757,0,0,1-.353-.6,2.258,2.258,0,0,1-.127-.775,2.228,2.228,0,0,1,.127-.771,1.734,1.734,0,0,1,.355-.594,1.573,1.573,0,0,1,.546-.38,1.756,1.756,0,0,1,.693-.134,1.781,1.781,0,0,1,.7.134,1.533,1.533,0,0,1,.544.38,1.764,1.764,0,0,1,.353.593,2.228,2.228,0,0,1,.127.772Zm-.85,0a1.4,1.4,0,0,0-.23-.846.751.751,0,0,0-.639-.312.751.751,0,0,0-.639.312,1.4,1.4,0,0,0-.23.846,1.425,1.425,0,0,0,.224.856.748.748,0,0,0,.639.315.748.748,0,0,0,.639-.315,1.425,1.425,0,0,0,.234-.857Zm3.009,1.864a2.25,2.25,0,0,1-.614-.083.943.943,0,0,1-.387-.216.765.765,0,0,1-.2-.349,1.778,1.778,0,0,1-.058-.476v-4.129l.829-.137v4.106a1.136,1.136,0,0,0,.024.254.405.405,0,0,0,.086.175.385.385,0,0,0,.168.11,1.313,1.313,0,0,0,.271.058Zm4.085-1.864a2.314,2.314,0,0,1-.123.775,1.714,1.714,0,0,1-.349.6,1.573,1.573,0,0,1-.545.384,1.76,1.76,0,0,1-.7.137,1.735,1.735,0,0,1-.7-.137,1.58,1.58,0,0,1-.541-.384,1.757,1.757,0,0,1-.353-.6,2.257,2.257,0,0,1-.127-.775,2.228,2.228,0,0,1,.127-.771,1.734,1.734,0,0,1,.354-.593,1.573,1.573,0,0,1,.544-.38,1.756,1.756,0,0,1,.692-.134,1.781,1.781,0,0,1,.7.134,1.534,1.534,0,0,1,.545.38,1.763,1.763,0,0,1,.353.593,2.228,2.228,0,0,1,.128.771Zm-.85,0a1.4,1.4,0,0,0-.23-.846.751.751,0,0,0-.639-.312.751.751,0,0,0-.639.312,1.4,1.4,0,0,0-.23.846,1.425,1.425,0,0,0,.23.857.748.748,0,0,0,.639.315.748.748,0,0,0,.639-.315,1.425,1.425,0,0,0,.229-.857Zm2.413-.089a1.1,1.1,0,0,0,.23.771.779.779,0,0,0,.593.246,1.241,1.241,0,0,0,.374-.055,1.067,1.067,0,0,0,.285-.13v-1.861q-.089-.021-.219-.038a2.6,2.6,0,0,0-.329-.017.836.836,0,0,0-.693.3,1.214,1.214,0,0,0-.24.786Zm2.31,1.524a1.622,1.622,0,0,1-.438,1.252,1.925,1.925,0,0,1-1.333.4,3.7,3.7,0,0,1-.639-.055,3.578,3.578,0,0,1-.565-.144l.151-.706a2.57,2.57,0,0,0,.483.144,2.953,2.953,0,0,0,.586.055,1.007,1.007,0,0,0,.713-.205.811.811,0,0,0,.212-.61v-.137a2.149,2.149,0,0,1-.325.123,1.587,1.587,0,0,1-.463.062,1.73,1.73,0,0,1-.627-.11,1.315,1.315,0,0,1-.487-.322,1.475,1.475,0,0,1-.316-.531,2.2,2.2,0,0,1-.113-.737,2.086,2.086,0,0,1,.12-.72,1.541,1.541,0,0,1,.349-.562,1.6,1.6,0,0,1,.559-.363,2.015,2.015,0,0,1,.747-.13,4.583,4.583,0,0,1,.768.062q.363.062.617.13Zm4.034-3.224A26.116,26.116,0,0,1,56.4-7.76a3.716,3.716,0,0,1-.281.528,1.566,1.566,0,0,1-.322.363,1.148,1.148,0,0,1-.4.209,1.79,1.79,0,0,1-.508.065,1.784,1.784,0,0,1-.381-.041,1.278,1.278,0,0,1-.285-.089l.151-.665a1.348,1.348,0,0,0,.489.1.76.76,0,0,0,.506-.154,1.264,1.264,0,0,0,.32-.476q-.393-.754-.754-1.645a18.108,18.108,0,0,1-.642-1.894h.885q.069.288.169.624t.217.682q.117.344.246.688t.261.639q.218-.61.409-1.3t.348-1.333Zm1.542,2.673a1.638,1.638,0,0,1,.014.172v.11a3.09,3.09,0,0,1-.134.877,3.762,3.762,0,0,1-.374.857l-.651-.178a3.371,3.371,0,0,0,.223-.778,4.483,4.483,0,0,0,.058-.668q0-.082,0-.205t-.01-.185Zm5.655-3.839h.864v4.75h-.864v-2.1H62.819v2.1h-.864v-4.75h.864v1.9h2.064ZM66.7-9.652a2.252,2.252,0,0,1,.141-.829,1.742,1.742,0,0,1,.374-.593,1.546,1.546,0,0,1,.535-.356,1.655,1.655,0,0,1,.617-.12,1.475,1.475,0,0,1,1.155.459,1.987,1.987,0,0,1,.415,1.371q0,.068,0,.154t-.01.154H67.559a.946.946,0,0,0,.305.668,1.159,1.159,0,0,0,.786.236,2.581,2.581,0,0,0,.552-.055,2.272,2.272,0,0,0,.393-.116l.11.679a1.328,1.328,0,0,1-.188.072,2.663,2.663,0,0,1-.274.068q-.154.031-.332.049a3.167,3.167,0,0,1-.363.021,2.2,2.2,0,0,1-.822-.141,1.532,1.532,0,0,1-.576-.391,1.6,1.6,0,0,1-.336-.59,2.409,2.409,0,0,1-.112-.741Zm2.406-.37a1.09,1.09,0,0,0-.049-.325.786.786,0,0,0-.141-.267.664.664,0,0,0-.226-.178.721.721,0,0,0-.318-.065.742.742,0,0,0-.336.072.766.766,0,0,0-.246.189.862.862,0,0,0-.154.267,1.447,1.447,0,0,0-.075.309Zm4.14.37a1.336,1.336,0,0,0-.25-.864.978.978,0,0,0-.806-.309q-.117,0-.246.01a1.336,1.336,0,0,0-.25.045v2.05a1.284,1.284,0,0,0,.291.141,1.139,1.139,0,0,0,.387.065.742.742,0,0,0,.662-.309,1.457,1.457,0,0,0,.211-.829Zm.85-.014a2.537,2.537,0,0,1-.106.754,1.758,1.758,0,0,1-.305.59,1.355,1.355,0,0,1-.5.384,1.6,1.6,0,0,1-.675.137,1.667,1.667,0,0,1-.466-.062A1.742,1.742,0,0,1,71.7-8v1.392h-.829v-4.737q.254-.068.624-.13a4.751,4.751,0,0,1,.781-.062,2.092,2.092,0,0,1,.761.13,1.585,1.585,0,0,1,.572.374,1.645,1.645,0,0,1,.363.59,2.25,2.25,0,0,1,.127.778ZM76.27-8.459a3.086,3.086,0,0,0,.582-.041v-.918a1.613,1.613,0,0,0-.2-.041,1.853,1.853,0,0,0-.288-.021,1.917,1.917,0,0,0-.278.021.865.865,0,0,0-.254.075.46.46,0,0,0-.182.154.431.431,0,0,0-.068.25.439.439,0,0,0,.185.408.955.955,0,0,0,.5.113ZM76.2-11.55a2.029,2.029,0,0,1,.693.1,1.105,1.105,0,0,1,.449.288,1.078,1.078,0,0,1,.24.449,2.2,2.2,0,0,1,.072.579v2.173q-.192.041-.579.1A5.915,5.915,0,0,1,76.2-7.8a2.623,2.623,0,0,1-.59-.062,1.239,1.239,0,0,1-.456-.2.938.938,0,0,1-.295-.356,1.236,1.236,0,0,1-.106-.541,1.045,1.045,0,0,1,.12-.521.983.983,0,0,1,.325-.344,1.41,1.41,0,0,1,.476-.192,2.681,2.681,0,0,1,.565-.058,2.553,2.553,0,0,1,.288.017,2.685,2.685,0,0,1,.322.058v-.137a1.074,1.074,0,0,0-.034-.274.568.568,0,0,0-.119-.234.561.561,0,0,0-.226-.154.979.979,0,0,0-.353-.055,3.133,3.133,0,0,0-.528.041,2.321,2.321,0,0,0-.391.1l-.1-.672a3.265,3.265,0,0,1,.459-.11,3.6,3.6,0,0,1,.644-.056Zm2.481-.857.829-.137v1.081h1.274v.692H79.512v1.46a1.061,1.061,0,0,0,.137.617.541.541,0,0,0,.466.185,1.519,1.519,0,0,0,.4-.049,2.708,2.708,0,0,0,.278-.089l.137.658a3.112,3.112,0,0,1-.377.127,2.05,2.05,0,0,1-.549.065,1.736,1.736,0,0,1-.639-.1.945.945,0,0,1-.408-.3,1.18,1.18,0,0,1-.212-.473,2.938,2.938,0,0,1-.062-.634ZM84.8-9.672a2.314,2.314,0,0,1-.123.775,1.714,1.714,0,0,1-.349.6,1.573,1.573,0,0,1-.545.384,1.759,1.759,0,0,1-.7.137,1.735,1.735,0,0,1-.7-.137,1.58,1.58,0,0,1-.541-.384,1.757,1.757,0,0,1-.353-.6,2.258,2.258,0,0,1-.127-.775,2.229,2.229,0,0,1,.127-.771,1.734,1.734,0,0,1,.356-.593,1.573,1.573,0,0,1,.545-.38,1.756,1.756,0,0,1,.692-.134,1.781,1.781,0,0,1,.7.134,1.534,1.534,0,0,1,.546.38,1.764,1.764,0,0,1,.353.593,2.228,2.228,0,0,1,.125.772Zm-.85,0a1.4,1.4,0,0,0-.23-.846.751.751,0,0,0-.639-.312.751.751,0,0,0-.639.312,1.4,1.4,0,0,0-.23.846,1.425,1.425,0,0,0,.23.857.748.748,0,0,0,.639.315.748.748,0,0,0,.639-.315,1.425,1.425,0,0,0,.23-.856Zm3.009,1.864a2.25,2.25,0,0,1-.613-.082.944.944,0,0,1-.387-.216.765.765,0,0,1-.2-.349,1.778,1.778,0,0,1-.059-.476V-13.06l.829-.137v4.106a1.138,1.138,0,0,0,.024.254.405.405,0,0,0,.086.175.385.385,0,0,0,.168.11,1.313,1.313,0,0,0,.271.058Zm4.085-1.864a2.314,2.314,0,0,1-.123.775,1.714,1.714,0,0,1-.349.6,1.573,1.573,0,0,1-.545.384,1.76,1.76,0,0,1-.7.137,1.735,1.735,0,0,1-.7-.137,1.58,1.58,0,0,1-.541-.384,1.757,1.757,0,0,1-.353-.6,2.258,2.258,0,0,1-.127-.775,2.229,2.229,0,0,1,.127-.771,1.734,1.734,0,0,1,.355-.593,1.573,1.573,0,0,1,.545-.38,1.756,1.756,0,0,1,.693-.134,1.781,1.781,0,0,1,.7.134,1.533,1.533,0,0,1,.544.38,1.763,1.763,0,0,1,.353.593,2.228,2.228,0,0,1,.127.772Zm-.85,0a1.4,1.4,0,0,0-.23-.846.751.751,0,0,0-.639-.312.751.751,0,0,0-.639.312,1.4,1.4,0,0,0-.23.846,1.425,1.425,0,0,0,.23.857.748.748,0,0,0,.639.315.748.748,0,0,0,.639-.315,1.425,1.425,0,0,0,.229-.856Zm2.413-.089a1.1,1.1,0,0,0,.23.771.779.779,0,0,0,.593.246,1.241,1.241,0,0,0,.374-.055,1.067,1.067,0,0,0,.285-.13v-1.861q-.089-.021-.219-.038a2.6,2.6,0,0,0-.329-.017.836.836,0,0,0-.693.3,1.214,1.214,0,0,0-.24.786Zm2.31,1.524a1.622,1.622,0,0,1-.435,1.254,1.925,1.925,0,0,1-1.333.4,3.7,3.7,0,0,1-.639-.055,3.577,3.577,0,0,1-.57-.145l.151-.706a2.57,2.57,0,0,0,.483.144,2.953,2.953,0,0,0,.586.055,1.007,1.007,0,0,0,.713-.205.811.811,0,0,0,.212-.61v-.137a2.148,2.148,0,0,1-.325.123,1.587,1.587,0,0,1-.463.062,1.73,1.73,0,0,1-.627-.11,1.315,1.315,0,0,1-.487-.322,1.474,1.474,0,0,1-.315-.531,2.2,2.2,0,0,1-.113-.737,2.086,2.086,0,0,1,.12-.72,1.541,1.541,0,0,1,.349-.562,1.6,1.6,0,0,1,.559-.363,2.015,2.015,0,0,1,.747-.13,4.583,4.583,0,0,1,.768.062q.363.062.617.13Zm4.037-3.221a26.115,26.115,0,0,1-1.286,3.7,3.715,3.715,0,0,1-.281.528,1.565,1.565,0,0,1-.322.363,1.148,1.148,0,0,1-.4.209,1.79,1.79,0,0,1-.508.065,1.783,1.783,0,0,1-.381-.041,1.278,1.278,0,0,1-.285-.089l.151-.665a1.348,1.348,0,0,0,.489.1.76.76,0,0,0,.506-.154,1.264,1.264,0,0,0,.32-.476q-.393-.754-.754-1.645a18.109,18.109,0,0,1-.643-1.892h.885q.069.288.169.624t.217.682q.117.344.246.688t.261.639q.218-.61.409-1.3t.348-1.333Zm3.6,3a3.087,3.087,0,0,0,.582-.041v-.92a1.614,1.614,0,0,0-.2-.041,1.853,1.853,0,0,0-.288-.021,1.917,1.917,0,0,0-.278.021.865.865,0,0,0-.254.075.46.46,0,0,0-.182.154.431.431,0,0,0-.068.25.439.439,0,0,0,.185.408.955.955,0,0,0,.5.113Zm-.068-3.091a2.028,2.028,0,0,1,.692.1,1.105,1.105,0,0,1,.449.288,1.078,1.078,0,0,1,.24.449,2.2,2.2,0,0,1,.072.579v2.173q-.192.041-.579.1a5.915,5.915,0,0,1-.874.058,2.623,2.623,0,0,1-.59-.062,1.239,1.239,0,0,1-.456-.2.938.938,0,0,1-.295-.356,1.237,1.237,0,0,1-.106-.541,1.046,1.046,0,0,1,.12-.521.983.983,0,0,1,.325-.344,1.41,1.41,0,0,1,.476-.192,2.682,2.682,0,0,1,.565-.058,2.556,2.556,0,0,1,.288.017,2.686,2.686,0,0,1,.322.058v-.137a1.073,1.073,0,0,0-.034-.274.568.568,0,0,0-.119-.237.561.561,0,0,0-.226-.154.979.979,0,0,0-.353-.055,3.133,3.133,0,0,0-.528.041,2.32,2.32,0,0,0-.391.1l-.1-.672a3.265,3.265,0,0,1,.459-.11,3.6,3.6,0,0,1,.644-.056Zm2.522.205a5.554,5.554,0,0,1,.624-.13,5.378,5.378,0,0,1,.85-.062,1.955,1.955,0,0,1,.733.12,1.144,1.144,0,0,1,.469.336,1.283,1.283,0,0,1,.246.521A2.909,2.909,0,0,1,108-9.89v2.015h-.829V-9.761a2.721,2.721,0,0,0-.038-.492.869.869,0,0,0-.123-.329.492.492,0,0,0-.233-.185.983.983,0,0,0-.36-.058,2.764,2.764,0,0,0-.329.021q-.172.021-.254.034v2.894h-.829Zm4.716,1.666a1.3,1.3,0,0,0,.26.86.885.885,0,0,0,.72.312,2.86,2.86,0,0,0,.339-.017,2.285,2.285,0,0,0,.23-.038v-2.058a1.285,1.285,0,0,0-.291-.141,1.139,1.139,0,0,0-.387-.065.742.742,0,0,0-.662.309,1.471,1.471,0,0,0-.209.836Zm2.378,1.693a4.912,4.912,0,0,1-.62.137,4.814,4.814,0,0,1-.786.062,2.092,2.092,0,0,1-.761-.13,1.585,1.585,0,0,1-.572-.374,1.645,1.645,0,0,1-.363-.59,2.25,2.25,0,0,1-.126-.782,2.622,2.622,0,0,1,.106-.771,1.687,1.687,0,0,1,.312-.593,1.39,1.39,0,0,1,.5-.38,1.627,1.627,0,0,1,.679-.134,1.552,1.552,0,0,1,.459.062,2.055,2.055,0,0,1,.344.137v-1.72l.829-.137Zm6,.11q-.233-.391-.521-.839t-.6-.9q-.309-.456-.627-.885t-.607-.771v3.4h-.85v-4.75h.706q.274.288.59.682t.634.819q.318.425.617.853t.531.8v-3.153h.857v4.75Zm4.826-.11q-.24.062-.624.127a5.055,5.055,0,0,1-.843.065,1.859,1.859,0,0,1-.723-.123,1.161,1.161,0,0,1-.466-.344,1.348,1.348,0,0,1-.25-.524,2.783,2.783,0,0,1-.075-.668v-2.009h.829v1.878a1.515,1.515,0,0,0,.168.822.657.657,0,0,0,.586.246q.151,0,.318-.014a1.686,1.686,0,0,0,.25-.034v-2.9h.829ZM124-12.4l.829-.137v1.081h1.275v.692h-1.275v1.46a1.061,1.061,0,0,0,.137.617.541.541,0,0,0,.466.185,1.519,1.519,0,0,0,.4-.049,2.711,2.711,0,0,0,.278-.089l.137.658a3.111,3.111,0,0,1-.377.127,2.051,2.051,0,0,1-.549.065,1.735,1.735,0,0,1-.639-.1.945.945,0,0,1-.408-.3,1.18,1.18,0,0,1-.212-.473,2.94,2.94,0,0,1-.062-.634Zm5,1.693a2.643,2.643,0,0,0-.285-.072,2.092,2.092,0,0,0-.422-.038,1.668,1.668,0,0,0-.291.028,1.752,1.752,0,0,0-.216.049v2.868h-.829v-3.413a4.559,4.559,0,0,1,.6-.168,3.739,3.739,0,0,1,.8-.079q.082,0,.192.01t.219.028q.11.017.212.041t.165.045Zm1.611,2.837h-.829v-3.587h.829Zm.089-4.633a.475.475,0,0,1-.151.37A.513.513,0,0,1,130.2-12a.521.521,0,0,1-.363-.137.476.476,0,0,1-.151-.37.484.484,0,0,1,.151-.377.521.521,0,0,1,.363-.137.513.513,0,0,1,.356.137.484.484,0,0,1,.15.374Zm.98.1.829-.137v1.081h1.275v.692h-1.275v1.46a1.061,1.061,0,0,0,.137.617.541.541,0,0,0,.466.185,1.519,1.519,0,0,0,.4-.049,2.707,2.707,0,0,0,.278-.089l.137.658a3.112,3.112,0,0,1-.377.127,2.051,2.051,0,0,1-.549.065,1.735,1.735,0,0,1-.639-.1.945.945,0,0,1-.408-.3,1.18,1.18,0,0,1-.212-.473,2.939,2.939,0,0,1-.061-.634Zm3.8,4.531h-.83v-3.587h.829Zm.089-4.633a.475.475,0,0,1-.151.37.512.512,0,0,1-.356.137.521.521,0,0,1-.363-.137.476.476,0,0,1-.151-.37.484.484,0,0,1,.151-.377.521.521,0,0,1,.363-.137.512.512,0,0,1,.356.137.484.484,0,0,1,.15.374Zm4.263,2.837a2.314,2.314,0,0,1-.123.775,1.714,1.714,0,0,1-.349.6,1.573,1.573,0,0,1-.545.384,1.759,1.759,0,0,1-.7.137,1.735,1.735,0,0,1-.7-.137,1.58,1.58,0,0,1-.541-.384,1.758,1.758,0,0,1-.353-.6,2.258,2.258,0,0,1-.127-.775,2.229,2.229,0,0,1,.127-.771,1.734,1.734,0,0,1,.356-.593,1.573,1.573,0,0,1,.545-.38,1.756,1.756,0,0,1,.693-.134,1.781,1.781,0,0,1,.7.134,1.534,1.534,0,0,1,.545.38,1.763,1.763,0,0,1,.353.593,2.227,2.227,0,0,1,.125.769Zm-.85,0a1.4,1.4,0,0,0-.23-.846.751.751,0,0,0-.639-.312.751.751,0,0,0-.639.312,1.4,1.4,0,0,0-.23.846,1.425,1.425,0,0,0,.23.857.748.748,0,0,0,.639.315.748.748,0,0,0,.639-.315,1.425,1.425,0,0,0,.229-.859Zm1.762-1.671a5.553,5.553,0,0,1,.624-.13,5.378,5.378,0,0,1,.85-.062,1.955,1.955,0,0,1,.733.12,1.144,1.144,0,0,1,.469.336,1.282,1.282,0,0,1,.246.521,2.908,2.908,0,0,1,.072.668v2.015h-.83V-9.761a2.725,2.725,0,0,0-.038-.492.868.868,0,0,0-.123-.329.492.492,0,0,0-.232-.184.983.983,0,0,0-.36-.058,2.764,2.764,0,0,0-.329.021q-.172.021-.254.034v2.892h-.827Z" transform="translate(528.018 305.801)" fill="#fff"/><rect width="143.734" height="0.372" transform="translate(528.577 281.085)" fill="#fff"/><rect width="143.734" height="0.373" transform="translate(528.577 246.761)" fill="#fff"/><path d="M549.893,271.531v-19h10.969v1.617h-9.1v6.609h8.117v1.591h-8.117v7.569h9.818v1.618Z" transform="translate(7.689 2.08)" fill="#fff"/><g transform="translate(571.266 254.194)"><path d="M565.571,270.432a6.25,6.25,0,0,0,3.455-.811A2.906,2.906,0,0,0,570.26,267a3.489,3.489,0,0,0-.4-1.744,3.736,3.736,0,0,0-1.056-1.183,6.954,6.954,0,0,0-1.508-.822c-.567-.226-1.162-.468-1.783-.721a20.85,20.85,0,0,1-2.113-.956,7.239,7.239,0,0,1-1.591-1.106,4.232,4.232,0,0,1-1-1.413,4.681,4.681,0,0,1-.344-1.868,4.408,4.408,0,0,1,1.618-3.7,7.148,7.148,0,0,1,4.5-1.261,10.439,10.439,0,0,1,1.507.109,11.719,11.719,0,0,1,1.385.289,10.738,10.738,0,0,1,1.18.4,4.769,4.769,0,0,1,.891.467l-.659,1.563a6.616,6.616,0,0,0-1.932-.878,8.767,8.767,0,0,0-2.455-.329,7.231,7.231,0,0,0-1.659.178,3.624,3.624,0,0,0-1.3.576,2.841,2.841,0,0,0-.864,1,3.5,3.5,0,0,0,.014,2.934,3.2,3.2,0,0,0,.919,1.043,7.293,7.293,0,0,0,1.385.795q.794.357,1.727.74,1.125.467,2.125.934a7.612,7.612,0,0,1,1.742,1.1,4.676,4.676,0,0,1,1.18,1.535,5.063,5.063,0,0,1,.439,2.221,4.449,4.449,0,0,1-1.8,3.867,8.19,8.19,0,0,1-4.866,1.289,13.433,13.433,0,0,1-2-.138,12.674,12.674,0,0,1-1.618-.344,9.2,9.2,0,0,1-1.207-.425,7.49,7.49,0,0,1-.767-.384l.6-1.618c.182.109.43.238.742.384a9.181,9.181,0,0,0,1.1.425,10.123,10.123,0,0,0,1.425.344,10.243,10.243,0,0,0,1.756.138" transform="translate(-559.95 -252.221)" fill="#fff"/><path d="M576.378,254.025q-1.041,0-1.769.069t-1.248.122v8.39h2.359a19.075,19.075,0,0,0,2.728-.177,6.082,6.082,0,0,0,2.085-.659,3.329,3.329,0,0,0,1.327-1.331,4.479,4.479,0,0,0,.465-2.167,3.918,3.918,0,0,0-.506-2.083,3.747,3.747,0,0,0-1.344-1.3,5.9,5.9,0,0,0-1.905-.672,12.417,12.417,0,0,0-2.195-.192m-.082-1.618q4.03,0,6,1.535a5.2,5.2,0,0,1,1.974,4.36,6.05,6.05,0,0,1-.576,2.757,4.675,4.675,0,0,1-1.645,1.837,7.45,7.45,0,0,1-2.618,1.015,17.57,17.57,0,0,1-3.5.315h-2.574v7.348H571.5V252.927a13.292,13.292,0,0,1,2.316-.4q1.331-.124,2.482-.124" transform="translate(-555.785 -252.157)" fill="#fff"/><path d="M595.474,262.644h1.864v8.473a14.554,14.554,0,0,1-2.043.562,17.346,17.346,0,0,1-3.743.344,8.933,8.933,0,0,1-3.455-.659,7.775,7.775,0,0,1-2.755-1.9,8.761,8.761,0,0,1-1.823-3.1,12.6,12.6,0,0,1-.659-4.237,11.748,11.748,0,0,1,.713-4.237,8.987,8.987,0,0,1,1.934-3.1,8.306,8.306,0,0,1,2.838-1.905,9.09,9.09,0,0,1,3.455-.659,11.285,11.285,0,0,1,3.482.453,9.027,9.027,0,0,1,2,.866l-.632,1.59a6.327,6.327,0,0,0-2.083-.891,11.23,11.23,0,0,0-2.851-.344,6.955,6.955,0,0,0-2.688.521,5.977,5.977,0,0,0-2.194,1.562,7.531,7.531,0,0,0-1.467,2.578,10.822,10.822,0,0,0-.535,3.564,12.311,12.311,0,0,0,.439,3.414,7.143,7.143,0,0,0,1.327,2.6,5.848,5.848,0,0,0,2.207,1.659,7.539,7.539,0,0,0,3.044.576,15.074,15.074,0,0,0,2.344-.151,6.433,6.433,0,0,0,1.275-.289Z" transform="translate(-551.683 -252.222)" fill="#fff"/></g><path d="M608.859,252.528h1.864v19h-1.864V262.4h-10.31v9.131h-1.868v-19h1.868v8.253h10.31Z" transform="translate(24.57 2.08)" fill="#fff"/><g transform="translate(528.575 249.859)"><path d="M617.479,254.667q-1.032,2.37-2.01,4.806t-2.023,5.259h8.11q-1.051-2.825-2.049-5.266t-2.027-4.8m6.537,16.865q-.545-1.4-1-2.691t-.873-2.518H612.86q-.478,1.233-.93,2.524t-.965,2.686h-1.946q1.081-2.968,2.044-5.53t1.888-4.85q.926-2.286,1.84-4.4t1.917-4.227h1.645q1,2.111,1.907,4.223t1.831,4.4q.926,2.286,1.882,4.852t2.1,5.53Z" transform="translate(-499.558 -247.781)" fill="#fff"/><path d="M636.493,271.531q-.531-.953-1.327-2.249t-1.776-2.752q-.978-1.457-2.04-3.011t-2.113-3.022q-1.053-1.47-2.061-2.752t-1.787-2.219v16.007h-1.84v-19h1.482q1.4,1.562,3,3.609t3.135,4.17q1.537,2.125,2.87,4.153t2.184,3.534V252.528h1.838v19Z" transform="translate(-494.318 -247.779)" fill="#fff"/><path d="M537.812,254.4a4.893,4.893,0,0,0,3.712-2.4c.737-1.13.688-2.966-1.09-2.961-1.31.005-2.615,1.369-3.259,2.388-.578.916-1.106,3,.639,2.972,1.022-.026-.522.008,0,0" transform="translate(-525.673 -249.038)" fill="#fff"/><path d="M532.977,253.744c-.876.083-1.773.131-2.64.289a4.01,4.01,0,0,0-1.459.418c-.476.348-.384.9.216.983a7.059,7.059,0,0,0,1.68-.373c.63-.092,1.275-.161,1.911-.2.934-.064,1.877-.062,2.813-.087,2.893-.076,5.815-.049,8.707.053,1.9.068,3.834.109,5.715.355a16.165,16.165,0,0,1,3.266.626c.312.112.849.5,1.195.509.709.009.753-.614.355-1-1.2-1.169-4.156-1.14-5.722-1.3-1.72-.173-3.453-.295-5.183-.326-3.617-.064-7.24-.109-10.854.053" transform="translate(-528.575 -247.38)" fill="#fff"/><path d="M532.411,256.719c-.28-1.081,3.441-1.056,4.062-1.114,1.591-.147,3.146-.295,4.742-.309,1.208-.011,4.836-.384,5.13,1.2.2,1.1-1.563,1.229-2.238,1.327-1.5.226-3.021.313-4.524.48-.792.087-1.581.175-2.369.285-.442.06-2.344.116-2.594.541a15.5,15.5,0,0,1,2.794-.147c1.229-.068,2.458-.128,3.686-.189.983-.049,5.885-.222,4.73,1.678-.6.98-3.27.885-4.289.94-1.2.064-2.408.117-3.611.2-.419.027-5.02.2-5.047.672-.007.1,11.442-.9,12.189.849.652,1.524-2.832,1.319-3.629,1.353-1.218.052-2.436.12-3.652.2-.766.049-1.531.113-2.3.175-.415.034-.831.062-1.244.117a3.842,3.842,0,0,0-.97.165c.065-.03-.6.255-.372.255,2.468,0,4.937-.12,7.406-.1a20.885,20.885,0,0,1,2.1.1c.478.052,2.008.008,2.331.368.746.829-.716.942-1.139.914a18.35,18.35,0,0,1-1.85-.2c.06.009.122.005.182.018a32.406,32.406,0,0,0-6.722-.109c-1.076.03-2.748.339-3.706-.257-1.613-1.006,1.043-1.875,1.78-2.026a35.032,35.032,0,0,1,4.933-.5c.742-.045,1.483-.088,2.224-.121a8.272,8.272,0,0,0,2.524-.155,5.55,5.55,0,0,1-1.177-.128c-.533-.015-1.068-.009-1.6-.014-1.053-.007-2.091.037-3.146.091-1.019.053-2.041.108-3.063.124-.885.014-3.793-.068-2.32-1.679.756-.827,2.415-.823,3.418-.949,1.182-.147,2.378-.214,3.566-.279.913-.049,1.827-.09,2.739-.151.58-.039,1.16-.094,1.735-.159.156-.018,1.2-.257,1.2-.256-.618-.492-2.761-.075-3.539-.022-.953.065-1.905.1-2.858.144-.978.049-5.364.815-4.951-.909.4-1.677,4.481-1.671,5.79-1.826.373-.044,5.722-.465,5.744-.716.049-.547-5.424-.18-6.045-.132-.951.072-1.905.168-2.851.272-.769.086-2.7.726-3.207-.023" transform="translate(-527.7 -246.798)" fill="#fff"/><path d="M531.446,271.153a.534.534,0,0,1-.949-.469l2.927-5.914a.535.535,0,0,1,.95.469Z" transform="translate(-527.917 -243.459)" fill="#fff"/><path d="M536.533,271.572a.534.534,0,0,1-.956-.453l2.824-5.963a.534.534,0,0,1,.956.453Z" transform="translate(-526.083 -243.321)" fill="#fff"/></g><rect width="143.734" height="0.373" transform="translate(528.577 302.968)" fill="#fff"/></g></svg>