<svg xmlns="http://www.w3.org/2000/svg" width="195.482" height="73.293" viewBox="0 0 195.482 73.293"><g transform="translate(18967.629 -6075.871)"><g transform="translate(-18967.588 6077.191)"><g transform="translate(142.083 0)"><path d="M539.025,259.866c3.123-.079,5.858-2.342,7.5-4.846,1.489-2.284,1.39-5.992-2.2-5.981-2.647.011-5.283,2.765-6.584,4.824-1.168,1.85-2.235,6.064,1.291,6,2.064-.053-1.055.017,0,0" transform="translate(-514.503 -249.038)" fill="#2ac9cd"/><path d="M537.469,253.858c-1.77.168-3.581.264-5.333.583a8.1,8.1,0,0,0-2.947.844c-.962.7-.775,1.809.437,1.986,1.436-.3,2.287-.517,3.395-.754,1.273-.187,2.576-.325,3.859-.412,1.887-.129,3.791-.126,5.682-.176,5.844-.154,11.748-.1,17.59.107,3.829.137,7.745.219,11.545.718a32.656,32.656,0,0,1,6.6,1.264c.629.225,1.715,1.02,2.414,1.028,1.432.019,1.52-1.24.718-2.018-2.428-2.361-8.4-2.3-11.558-2.619-3.475-.349-6.976-.6-10.47-.659-7.307-.129-14.626-.219-21.927.107" transform="translate(-528.575 -241.002)" fill="#2ac9cd"/><path d="M533.848,258.217c-.566-2.184,6.95-2.133,8.205-2.251,3.213-.3,6.355-.6,9.58-.624,2.441-.022,9.769-.775,10.363,2.433.41,2.229-3.158,2.482-4.522,2.681-3.021.457-6.1.633-9.14.97-1.6.176-3.194.354-4.786.575-.894.121-4.736.233-5.24,1.092.207-.352,4.728-.247,5.644-.3,2.482-.137,4.964-.258,7.447-.382,1.986-.1,11.889-.448,9.555,3.39-1.206,1.979-6.606,1.787-8.664,1.9-2.43.129-4.865.236-7.295.4-.847.055-10.141.4-10.2,1.358-.014.193,23.115-1.828,24.624,1.716,1.317,3.078-5.72,2.664-7.331,2.732-2.46.1-4.921.242-7.377.4-1.548.1-3.093.228-4.64.354-.838.068-1.679.126-2.512.236a7.763,7.763,0,0,0-1.96.333c.132-.061-1.206.514-.751.514,4.986,0,9.973-.242,14.962-.208a42.2,42.2,0,0,1,4.247.2c.965.1,4.057.017,4.708.743,1.506,1.674-1.446,1.9-2.3,1.847a37.08,37.08,0,0,1-3.738-.4c.121.019.247.011.368.036-4.269-.827-9.217-.333-13.579-.219-2.175.061-5.552.684-7.488-.519-3.258-2.031,2.108-3.788,3.6-4.093a70.78,70.78,0,0,1,9.965-1.015c1.5-.09,3-.179,4.494-.244,1.441-.066,3.78.269,5.1-.314a11.219,11.219,0,0,1-2.378-.258c-1.077-.03-2.158-.019-3.238-.028-2.128-.014-4.225.074-6.355.184-2.059.107-4.124.217-6.188.25-1.787.028-7.663-.137-4.686-3.392,1.528-1.671,4.879-1.663,6.9-1.916,2.389-.3,4.8-.432,7.2-.564,1.845-.1,3.692-.182,5.533-.3,1.171-.079,2.342-.19,3.5-.322.316-.036,2.428-.519,2.43-.517-1.248-.993-5.577-.151-7.149-.044-1.924.132-3.848.2-5.773.291-1.976.1-10.836,1.646-10-1.836.811-3.387,9.052-3.376,11.7-3.689.753-.088,11.558-.94,11.6-1.446.1-1.105-10.957-.363-12.213-.267-1.921.146-3.849.339-5.759.55-1.553.173-5.454,1.467-6.479-.047" transform="translate(-524.334 -238.175)" fill="#2ac9cd"/><path d="M532.443,277.9a1.078,1.078,0,0,1-1.916-.948l5.913-11.946a1.08,1.08,0,0,1,1.919.948Z" transform="translate(-525.313 -221.96)" fill="#2ac9cd"/><path d="M537.535,278.367a1.078,1.078,0,0,1-1.932-.915l5.7-12.046a1.078,1.078,0,0,1,1.932.915Z" transform="translate(-516.424 -221.295)" fill="#2ac9cd"/></g><path d="M3.06-23.46v7.5H7.472v-.587H3.69v-3H7.146v-.587H3.69v-2.739H7.472v-.587ZM12.939-21.4h-.6v3.26A1.477,1.477,0,0,1,10.8-16.461c-.837,0-1.456-.489-1.456-1.717V-21.4h-.6v3.217c0,1.543.782,2.282,1.989,2.282a1.672,1.672,0,0,0,1.608-.793v.728h.6Zm3.434.5a1.265,1.265,0,0,1,1.087.554l.5-.37a1.772,1.772,0,0,0-1.532-.75,1.389,1.389,0,0,0-1.369.8V-21.4h-.6v5.434h.6v-3.271C15.058-20.221,15.526-20.9,16.373-20.9Zm6.39,2.608v-.793a2.083,2.083,0,0,0-2.206-2.38,2.083,2.083,0,0,0-2.206,2.38v.793A2.1,2.1,0,0,0,20.558-15.9,2.09,2.09,0,0,0,22.764-18.287Zm-.6,0c0,1.141-.554,1.837-1.608,1.837-1.1,0-1.608-.7-1.608-1.837v-.793c0-1.185.565-1.826,1.608-1.826s1.608.641,1.608,1.826Zm6.206-.793c0-1.543-.772-2.38-2.119-2.38a1.746,1.746,0,0,0-1.641.75V-21.4h-.6v7.5h.6V-16.6a1.748,1.748,0,0,0,1.641.706c1.413,0,2.119-.913,2.119-2.4Zm-2.163,2.63c-1.2,0-1.587-.728-1.6-1.75v-.946c0-1.065.446-1.761,1.6-1.761,1.032,0,1.565.641,1.565,1.826v.782C27.774-17.157,27.252-16.45,26.209-16.45Zm7.336-2.076v-.554c0-1.543-.739-2.38-2.1-2.38s-2.1.837-2.1,2.38v.782a2.143,2.143,0,0,0,2.282,2.4,2,2,0,0,0,1.858-.88l-.478-.337a1.514,1.514,0,0,1-1.413.663c-1.152,0-1.652-.772-1.652-1.848v-.228Zm-3.6-.554c0-1.174.511-1.826,1.5-1.826s1.5.641,1.5,1.826v.011h-3Zm4.662,1.565c0,1.043.685,1.619,1.891,1.619a1.544,1.544,0,0,0,1.543-.739v.674h.6v-3.76c0-1.326-.63-1.739-1.956-1.739a1.886,1.886,0,0,0-1.891.869l.456.315c.348-.576.772-.619,1.424-.619,1,0,1.369.25,1.369,1.174v.674H36.457C35.338-19.048,34.61-18.559,34.61-17.515Zm3.434-.467c0,1.217-.663,1.522-1.543,1.522-.761,0-1.293-.283-1.293-1.043,0-.576.315-1.011,1.25-1.011h1.587Zm2.119,2.021h.6v-3.26A1.469,1.469,0,0,1,42.294-20.9c.848,0,1.467.489,1.467,1.728v3.206h.6v-3.217c0-1.532-.793-2.282-2-2.282a1.631,1.631,0,0,0-1.6.8V-21.4h-.6ZM51.1-18.928c1.739,0,2.728-.848,2.728-2.261s-1-2.271-2.728-2.271H48.814v7.5h.63v-2.967Zm-1.652-.587v-3.358H51.1c1.445,0,2.1.619,2.1,1.685s-.652,1.674-2.1,1.674Zm9.151.989v-.554c0-1.543-.739-2.38-2.1-2.38s-2.1.837-2.1,2.38v.782a2.143,2.143,0,0,0,2.282,2.4,2,2,0,0,0,1.858-.88l-.478-.337a1.514,1.514,0,0,1-1.413.663C55.5-16.45,55-17.222,55-18.3v-.228ZM55-19.08c0-1.174.511-1.826,1.5-1.826s1.5.641,1.5,1.826v.011H55Zm8.423-1.608a1.726,1.726,0,0,0-1.641-.772c-1.348,0-2.119.837-2.119,2.38v.782c0,1.489.706,2.4,2.119,2.4a1.725,1.725,0,0,0,1.641-.728v.663h.6v-7.5h-.6Zm-1.6,4.239c-1.054,0-1.565-.706-1.565-1.848v-.782c0-1.185.533-1.826,1.565-1.826,1.163,0,1.6.728,1.6,1.837v.782C63.421-17.222,63.041-16.45,61.823-16.45Zm3.88.489h.6V-21.4h-.6Zm-.065-6.771h.728v-.728h-.728Zm2.076,5.217c0,1.043.685,1.619,1.891,1.619a1.544,1.544,0,0,0,1.543-.739v.674h.6v-3.76c0-1.326-.63-1.739-1.956-1.739a1.886,1.886,0,0,0-1.891.869l.456.315c.348-.576.772-.619,1.424-.619,1,0,1.369.25,1.369,1.174v.674H69.561C68.442-19.048,67.714-18.559,67.714-17.515Zm3.434-.467c0,1.217-.663,1.522-1.543,1.522-.761,0-1.293-.283-1.293-1.043,0-.576.315-1.011,1.25-1.011h1.587Zm1.641-2.858h.7v3.206c0,1.13.348,1.674,1.554,1.674h.38v-.576h-.359c-.88,0-.978-.391-.978-1.261v-3.043h1.337V-21.4H74.083v-1.2h-.6v1.2h-.7Zm5.738-.054a1.265,1.265,0,0,1,1.087.554l.5-.37a1.772,1.772,0,0,0-1.532-.75,1.389,1.389,0,0,0-1.369.8V-21.4h-.6v5.434h.6v-3.271C77.213-20.221,77.68-20.9,78.528-20.9Zm2.456,4.934h.6V-21.4h-.6Zm-.065-6.771h.728v-.728h-.728Zm5.738,5.619a1.532,1.532,0,0,1-1.369.663c-1.2,0-1.7-.772-1.7-1.848v-.782a1.6,1.6,0,0,1,1.7-1.826,1.644,1.644,0,0,1,1.359.609l.478-.326a2.158,2.158,0,0,0-1.837-.837,2.124,2.124,0,0,0-2.293,2.38v.782a2.136,2.136,0,0,0,2.293,2.4,2.04,2.04,0,0,0,1.848-.88Zm4.358-6.347v7.5h4.412v-.587H91.645v-3H95.1v-.587H91.645v-2.739h3.782v-.587Zm9.825,5.173v-.793a2.083,2.083,0,0,0-2.206-2.38,2.083,2.083,0,0,0-2.206,2.38v.793A2.1,2.1,0,0,0,98.633-15.9,2.09,2.09,0,0,0,100.84-18.287Zm-.6,0c0,1.141-.554,1.837-1.608,1.837-1.1,0-1.608-.7-1.608-1.837v-.793c0-1.185.565-1.826,1.608-1.826s1.608.641,1.608,1.826Zm5.412-2.271a2.03,2.03,0,0,0-1.924-.9c-1.228,0-1.891.587-1.891,1.467,0,1.1.837,1.413,1.761,1.532,1.076.141,1.619.38,1.619,1.076,0,.652-.533.924-1.38.924a1.677,1.677,0,0,1-1.587-.663l-.467.326a2.224,2.224,0,0,0,2.043.9c1.445,0,1.989-.652,1.989-1.5,0-1.152-.88-1.456-1.935-1.6-.761-.1-1.445-.25-1.445-1.011,0-.619.554-.891,1.282-.891a1.508,1.508,0,0,1,1.478.663Zm1.608,4.6h.6V-21.4h-.6Zm-.065-6.771h.728v-.728H107.2Zm2.347,6.771h.6v-3.26a1.469,1.469,0,0,1,1.532-1.674c.848,0,1.467.489,1.467,1.728v3.206h.6v-3.217c0-1.532-.793-2.282-2-2.282a1.631,1.631,0,0,0-1.6.8V-21.4h-.6Zm9.857-2.326v-.793a2.083,2.083,0,0,0-2.206-2.38,2.083,2.083,0,0,0-2.206,2.38v.793A2.1,2.1,0,0,0,117.2-15.9,2.09,2.09,0,0,0,119.4-18.287Zm-.6,0c0,1.141-.554,1.837-1.608,1.837-1.1,0-1.608-.7-1.608-1.837v-.793c0-1.185.565-1.826,1.608-1.826s1.608.641,1.608,1.826Zm6.206-.793c0-1.543-.772-2.38-2.119-2.38a1.746,1.746,0,0,0-1.641.75V-21.4h-.6v7.5h.6V-16.6a1.748,1.748,0,0,0,1.641.706c1.413,0,2.119-.913,2.119-2.4Zm-2.163,2.63c-1.2,0-1.587-.728-1.6-1.75v-.946c0-1.065.446-1.761,1.6-1.761,1.032,0,1.565.641,1.565,1.826v.782C124.412-17.157,123.891-16.45,122.847-16.45Zm3.413.489h.6v-3.26A1.469,1.469,0,0,1,128.39-20.9c.848,0,1.467.489,1.467,1.728v3.206h.6v-3.217c0-1.532-.793-2.282-2-2.282a1.652,1.652,0,0,0-1.6.8v-2.8h-.6Zm5.88,0h.6V-21.4h-.6Zm-.065-6.771h.728v-.728h-.728Zm2.348,5.119c0,1.13.38,1.674,1.63,1.674V-16.5c-.946,0-1.032-.5-1.032-1.261V-23.46h-.6Zm3.076,1.652h.6V-21.4h-.6Zm-.065-6.771h.728v-.728h-.728Zm5.738,5.619a1.532,1.532,0,0,1-1.369.663c-1.2,0-1.7-.772-1.7-1.848v-.782a1.6,1.6,0,0,1,1.7-1.826,1.644,1.644,0,0,1,1.359.609l.478-.326a2.158,2.158,0,0,0-1.837-.837,2.124,2.124,0,0,0-2.293,2.38v.782a2.136,2.136,0,0,0,2.293,2.4,2.04,2.04,0,0,0,1.848-.88ZM3.06-9.715v7.5H7.472V-2.8H3.69v-3H7.146V-6.39H3.69V-9.128H7.472v-.587Zm9.249,2.9a2.03,2.03,0,0,0-1.924-.9c-1.228,0-1.891.587-1.891,1.467,0,1.1.837,1.413,1.761,1.532,1.076.141,1.619.38,1.619,1.076,0,.652-.533.924-1.38.924a1.677,1.677,0,0,1-1.587-.663l-.467.326a2.224,2.224,0,0,0,2.043.9c1.445,0,1.989-.652,1.989-1.5,0-1.152-.88-1.456-1.935-1.6-.761-.1-1.445-.25-1.445-1.011,0-.619.554-.891,1.282-.891a1.508,1.508,0,0,1,1.478.663Zm5.586,2.271v-.793a2.083,2.083,0,0,0-2.206-2.38,2.083,2.083,0,0,0-2.206,2.38v.793a2.1,2.1,0,0,0,2.206,2.391A2.09,2.09,0,0,0,17.895-4.542Zm-.6,0c0,1.141-.554,1.837-1.608,1.837-1.1,0-1.608-.7-1.608-1.837v-.793c0-1.185.565-1.826,1.608-1.826S17.3-6.52,17.3-5.335ZM23.5-5.335c0-1.543-.772-2.38-2.119-2.38a1.746,1.746,0,0,0-1.641.75V-7.65h-.6v7.5h.6V-2.857a1.748,1.748,0,0,0,1.641.706c1.413,0,2.119-.913,2.119-2.4ZM21.34-2.705c-1.2,0-1.587-.728-1.6-1.75V-5.4c0-1.065.446-1.761,1.6-1.761,1.032,0,1.565.641,1.565,1.826v.782C22.905-3.412,22.383-2.705,21.34-2.705Zm3.413.489h.6v-3.26A1.469,1.469,0,0,1,26.883-7.15c.848,0,1.467.489,1.467,1.728v3.206h.6V-5.433c0-1.532-.793-2.282-2-2.282a1.652,1.652,0,0,0-1.6.8v-2.8h-.6ZM30.2-3.77c0,1.043.685,1.619,1.891,1.619a1.544,1.544,0,0,0,1.543-.739v.674h.6v-3.76c0-1.326-.63-1.739-1.956-1.739a1.886,1.886,0,0,0-1.891.869l.456.315c.348-.576.772-.619,1.424-.619,1,0,1.369.25,1.369,1.174V-5.3H32.045C30.926-5.3,30.2-4.814,30.2-3.77Zm3.434-.467c0,1.217-.663,1.522-1.543,1.522C31.328-2.716,30.8-3,30.8-3.759c0-.576.315-1.011,1.25-1.011h1.587Zm1.848-.315c0,1.489.706,2.4,2.119,2.4a1.725,1.725,0,0,0,1.641-.728v.446c0,1.076-.489,1.793-1.587,1.793A1.463,1.463,0,0,1,36.284-1.3l-.467.337a1.9,1.9,0,0,0,1.8.88,2.074,2.074,0,0,0,2.217-2.347V-7.65h-.6v.706A1.726,1.726,0,0,0,37.6-7.715c-1.348,0-2.119.837-2.119,2.38Zm2.163,1.848c-1.054,0-1.565-.706-1.565-1.848v-.782c0-1.185.533-1.826,1.565-1.826,1.13,0,1.6.7,1.6,1.761v.859C39.24-3.477,38.859-2.705,37.642-2.705Zm3.88.489h.6V-7.65h-.6Zm-.065-6.771h.728v-.728h-.728ZM43.326-7.1h.7V-3.89c0,1.13.348,1.674,1.554,1.674h.38v-.576H45.6c-.88,0-.978-.391-.978-1.261V-7.1h1.337V-7.65H44.619v-1.2h-.6v1.2h-.7Zm3.989,4.88h.6V-7.65h-.6Zm-.065-6.771h.728v-.728h-.728Zm5.912,2.174a2.03,2.03,0,0,0-1.924-.9c-1.228,0-1.891.587-1.891,1.467,0,1.1.837,1.413,1.761,1.532,1.076.141,1.619.38,1.619,1.076,0,.652-.533.924-1.38.924a1.677,1.677,0,0,1-1.587-.663l-.467.326a2.224,2.224,0,0,0,2.043.9c1.445,0,1.989-.652,1.989-1.5,0-1.152-.88-1.456-1.935-1.6-.761-.1-1.445-.25-1.445-1.011,0-.619.554-.891,1.282-.891a1.508,1.508,0,0,1,1.478.663Zm9.586,4.6L61.008-5.531a1.938,1.938,0,0,0,1.543-2.021c0-1.424-.978-2.163-2.674-2.163H57.541v7.5h.63V-5.4h1.706a3.765,3.765,0,0,0,.5-.022l1.663,3.206ZM58.172-5.987V-9.128h1.706c1.315,0,2.043.456,2.043,1.576s-.728,1.565-2.043,1.565ZM67.7-4.781v-.554c0-1.543-.739-2.38-2.1-2.38s-2.1.837-2.1,2.38v.782a2.143,2.143,0,0,0,2.282,2.4,2,2,0,0,0,1.858-.88l-.478-.337a1.514,1.514,0,0,1-1.413.663c-1.152,0-1.652-.772-1.652-1.848v-.228Zm-3.6-.554c0-1.174.511-1.826,1.5-1.826s1.5.641,1.5,1.826v.011h-3Zm4.662.782c0,1.489.706,2.4,2.119,2.4a1.725,1.725,0,0,0,1.641-.728v.446c0,1.076-.489,1.793-1.587,1.793A1.463,1.463,0,0,1,69.572-1.3L69.1-.966a1.9,1.9,0,0,0,1.8.88,2.074,2.074,0,0,0,2.217-2.347V-7.65h-.6v.706a1.726,1.726,0,0,0-1.641-.772c-1.348,0-2.119.837-2.119,2.38Zm2.163,1.848c-1.054,0-1.565-.706-1.565-1.848v-.782c0-1.185.533-1.826,1.565-1.826,1.13,0,1.6.7,1.6,1.761v.859C72.528-3.477,72.148-2.705,70.931-2.705Zm3.88.489h.6V-7.65h-.6Zm-.065-6.771h.728v-.728h-.728Zm5.912,2.174a2.03,2.03,0,0,0-1.924-.9c-1.228,0-1.891.587-1.891,1.467,0,1.1.837,1.413,1.761,1.532,1.076.141,1.619.38,1.619,1.076,0,.652-.533.924-1.38.924a1.677,1.677,0,0,1-1.587-.663l-.467.326a2.224,2.224,0,0,0,2.043.9c1.445,0,1.989-.652,1.989-1.5,0-1.152-.88-1.456-1.935-1.6-.761-.1-1.445-.25-1.445-1.011,0-.619.554-.891,1.282-.891a1.508,1.508,0,0,1,1.478.663Zm.967-.283h.7V-3.89c0,1.13.348,1.674,1.554,1.674h.38v-.576H83.9c-.88,0-.978-.391-.978-1.261V-7.1h1.337V-7.65H82.918v-1.2h-.6v1.2h-.7Zm5.738-.054A1.265,1.265,0,0,1,88.45-6.6l.5-.37a1.772,1.772,0,0,0-1.532-.75,1.389,1.389,0,0,0-1.369.8V-7.65h-.6v5.434h.6V-5.487C86.048-6.476,86.516-7.15,87.363-7.15Zm2.326,7c1.293,0,1.641-.543,2.087-1.848L93.743-7.65h-.63L91.5-3,89.624-7.65h-.652L91.2-2.129l-.022.065c-.37,1.043-.641,1.326-1.489,1.326Z" transform="translate(-2.561 72.059)" fill="#002d48"/><path d="M138.166-.721H-1.361A.639.639,0,0,1-2-1.361.639.639,0,0,1-1.361-2H138.166a.639.639,0,0,1,.639.639A.639.639,0,0,1,138.166-.721Z" transform="translate(2 42.915)" fill="#002d48"/><path d="M-18540.727,6125.549c2.174-2.791,4.941-2.824,7.082-3.252s1.826.385,1.826.385-.014,1.6-.982,1.791-3.307.189-6.725,3.424S-18542.9,6128.34-18540.727,6125.549Z" transform="translate(18678.178 -6108.692)" fill="#2ac9cd"/></g><path d="M15.973-40.6a8.594,8.594,0,0,1-4.862-1.272A7.654,7.654,0,0,1,8.287-45.24a11.352,11.352,0,0,1-.916-4.6,13.737,13.737,0,0,1,.692-4.507,9.927,9.927,0,0,1,1.963-3.422,8.711,8.711,0,0,1,3.011-2.188,9.305,9.305,0,0,1,3.8-.767,8.631,8.631,0,0,1,3.2.542,4.577,4.577,0,0,1,2.132,1.646,4.77,4.77,0,0,1,.767,2.786,5.405,5.405,0,0,1-.617,2.581,6.408,6.408,0,0,1-1.739,2.038,10.015,10.015,0,0,1-2.655,1.459,17.323,17.323,0,0,1-3.441.879,29.4,29.4,0,0,1-4.039.337v-2.618a19.51,19.51,0,0,0,2.524-.168,17.565,17.565,0,0,0,2.487-.5,9.193,9.193,0,0,0,2.132-.879,4.943,4.943,0,0,0,1.477-1.253,2.582,2.582,0,0,0,.542-1.608,1.9,1.9,0,0,0-.8-1.72,3.894,3.894,0,0,0-2.15-.524,5.476,5.476,0,0,0-2.3.486,5.679,5.679,0,0,0-1.907,1.44,6.8,6.8,0,0,0-1.309,2.3,9.323,9.323,0,0,0-.467,3.067,9.092,9.092,0,0,0,.654,3.59,5.544,5.544,0,0,0,1.851,2.394,4.8,4.8,0,0,0,2.88.86,5.7,5.7,0,0,0,1.907-.28,4.817,4.817,0,0,0,1.477-.86q.692-.58,1.515-1.4a1.557,1.557,0,0,1,1.028-.561,1.637,1.637,0,0,1,.991.411,1.64,1.64,0,0,1,.636.879,1.107,1.107,0,0,1-.262.954,7.809,7.809,0,0,1-2.207,2.263,9.255,9.255,0,0,1-2.6,1.215A9.436,9.436,0,0,1,15.973-40.6Zm116.273-.15A2.276,2.276,0,0,1,131.067-41a.8.8,0,0,1-.393-.729V-55.113a3.291,3.291,0,0,0-.486-2.113,1.716,1.716,0,0,0-1.346-.542,1.677,1.677,0,0,0-1.066.337,2.191,2.191,0,0,0-.673.972,5.542,5.542,0,0,0-.318,1.5,1.268,1.268,0,0,1-.337.879,1.394,1.394,0,0,1-.972.28,1.66,1.66,0,0,1-.972-.262q-.374-.262-.337-1.234a7,7,0,0,1,.654-2.786,4.437,4.437,0,0,1,1.608-1.833,4.4,4.4,0,0,1,2.412-.654,6.961,6.961,0,0,1,1.833.224,3.813,3.813,0,0,1,1.421.711,4.041,4.041,0,0,1,.991,1.2,5.683,5.683,0,0,1,.58,1.683l.037.187a8.618,8.618,0,0,1,.972-1.739,7.63,7.63,0,0,1,1.2-1.309,4.866,4.866,0,0,1,1.328-.823,3.615,3.615,0,0,1,1.365-.28,1.613,1.613,0,0,1,.916.262q.393.262.393,1.159a6.414,6.414,0,0,0,.206,1.758,2.242,2.242,0,0,0,.6,1.066,1.323,1.323,0,0,0,.916.355,3.057,3.057,0,0,0,1.945-.86,19.98,19.98,0,0,0,1.945-1.907.744.744,0,0,1,.748-.28A1.53,1.53,0,0,1,147-58.7a1.842,1.842,0,0,1,.467.8.754.754,0,0,1-.15.729,13.794,13.794,0,0,1-2.73,2.543A5.192,5.192,0,0,1,141.6-53.58a4.094,4.094,0,0,1-1.889-.449,3.763,3.763,0,0,1-1.459-1.346,5.4,5.4,0,0,1-.767-2.169,3.322,3.322,0,0,0-1.066.711,7.308,7.308,0,0,0-.972,1.178,10.324,10.324,0,0,0-.86,1.571,16.244,16.244,0,0,0-.692,1.851v10.509a.793.793,0,0,1-.411.729A2.479,2.479,0,0,1,132.246-40.752Z" transform="translate(-18975 6152.227)" fill="#2ac9cd"/><path d="M12.476-85.843a.874.874,0,0,1-.785-.337,2.2,2.2,0,0,1-.224-1.159,2.184,2.184,0,0,1,.224-1.178.9.9,0,0,1,.785-.318H24.63a.949.949,0,0,1,.8.318,2.044,2.044,0,0,1,.243,1.178,2.055,2.055,0,0,1-.243,1.159.924.924,0,0,1-.8.337ZM36-74.063q-1.646,0-1.646-1.047v-33.509a.818.818,0,0,1,.43-.767,2.593,2.593,0,0,1,1.253-.243h7.517a21.006,21.006,0,0,1,6.563.879,7.605,7.605,0,0,1,3.983,2.8,8.743,8.743,0,0,1,1.346,5.1,10.759,10.759,0,0,1-1.122,5.1,10.278,10.278,0,0,1-2.955,3.478,15.315,15.315,0,0,1-4.039,2.15,26,26,0,0,1-4.45,1.159q-1.459.187-2.824.3t-2.412.112V-75.11a.869.869,0,0,1-.411.785A2.331,2.331,0,0,1,36-74.063Zm1.646-17.428q.748,0,1.608-.056t1.776-.15q.916-.093,1.851-.206a17.781,17.781,0,0,0,4.45-1.384,8.646,8.646,0,0,0,3.422-2.8,7.836,7.836,0,0,0,1.328-4.712,5.54,5.54,0,0,0-.954-3.4,5.4,5.4,0,0,0-2.861-1.851,16.42,16.42,0,0,0-4.712-.58H37.645Zm25.992,16.9A1.782,1.782,0,0,1,62.4-74.96a1.441,1.441,0,0,1-.411-1.122v-32.537a.826.826,0,0,1,.411-.767,2.479,2.479,0,0,1,1.234-.243H80.579a.949.949,0,0,1,.8.318,2.044,2.044,0,0,1,.243,1.178,2.056,2.056,0,0,1-.243,1.159.924.924,0,0,1-.8.337h-15.3v12.005H78.111a.949.949,0,0,1,.8.318,2.044,2.044,0,0,1,.243,1.178,2.055,2.055,0,0,1-.243,1.159.924.924,0,0,1-.8.337H65.283v14.062h15.3a.949.949,0,0,1,.8.318,2.044,2.044,0,0,1,.243,1.178,2.056,2.056,0,0,1-.243,1.159.924.924,0,0,1-.8.337Zm26.179,0a1.782,1.782,0,0,1-1.234-.374,1.441,1.441,0,0,1-.411-1.122v-32.537a.826.826,0,0,1,.411-.767,2.479,2.479,0,0,1,1.234-.243h16.942a.949.949,0,0,1,.8.318,2.044,2.044,0,0,1,.243,1.178,2.055,2.055,0,0,1-.243,1.159.924.924,0,0,1-.8.337h-15.3v12.005H104.29a.949.949,0,0,1,.8.318,2.044,2.044,0,0,1,.243,1.178,2.055,2.055,0,0,1-.243,1.159.924.924,0,0,1-.8.337H91.462v14.062h15.3a.949.949,0,0,1,.8.318,2.044,2.044,0,0,1,.243,1.178,2.055,2.055,0,0,1-.243,1.159.924.924,0,0,1-.8.337Z" transform="translate(-18958.34 6185.5)" fill="#002d48"/></g></svg>