<svg xmlns="http://www.w3.org/2000/svg" width="215.701" height="80.874" viewBox="0 0 215.701 80.874"><g transform="translate(18967.629 -6075.871)"><g transform="translate(-18967.584 6077.328)"><g transform="translate(156.779)"><path d="M539.273,260.985c3.446-.088,6.464-2.584,8.274-5.347,1.643-2.52,1.534-6.612-2.429-6.6-2.921.012-5.83,3.051-7.265,5.323-1.288,2.041-2.466,6.691,1.424,6.624,2.278-.058-1.165.019,0,0" transform="translate(-512.215 -249.038)" fill="#2ac9cd"/><path d="M538.388,253.882c-1.953.185-3.952.291-5.884.643a8.938,8.938,0,0,0-3.252.931c-1.062.777-.856,2,.482,2.191,1.584-.33,2.524-.57,3.746-.832,1.4-.206,2.842-.358,4.259-.455,2.082-.142,4.183-.139,6.27-.194,6.449-.17,12.963-.11,19.41.118,4.225.151,8.546.242,12.74.792a36.034,36.034,0,0,1,7.279,1.395c.695.249,1.892,1.125,2.663,1.134,1.58.021,1.677-1.368.792-2.226-2.679-2.605-9.263-2.542-12.754-2.89-3.835-.386-7.7-.657-11.553-.727-8.062-.142-16.139-.242-24.2.118" transform="translate(-528.575 -239.695)" fill="#2ac9cd"/><path d="M534.142,258.524c-.624-2.41,7.669-2.353,9.054-2.484,3.545-.329,7.012-.657,10.57-.688,2.693-.024,10.78-.856,11.435,2.684.453,2.46-3.485,2.739-4.989,2.958-3.334.5-6.734.7-10.085,1.07-1.765.194-3.524.391-5.281.634-.986.134-5.226.257-5.781,1.205.228-.388,5.217-.273,6.227-.329,2.739-.151,5.478-.285,8.217-.422,2.191-.11,13.119-.494,10.543,3.74-1.331,2.183-7.289,1.972-9.56,2.1-2.681.142-5.368.261-8.049.438-.935.06-11.189.438-11.25,1.5-.015.213,25.505-2.017,27.171,1.893,1.453,3.4-6.312,2.939-8.089,3.015-2.715.115-5.43.267-8.14.438-1.708.11-3.413.252-5.12.391-.925.076-1.853.139-2.772.261a8.568,8.568,0,0,0-2.163.367c.146-.067-1.331.567-.828.567,5.5,0,11-.267,16.509-.23a46.574,46.574,0,0,1,4.686.219c1.065.115,4.477.019,5.2.819,1.662,1.847-1.6,2.1-2.539,2.038a40.9,40.9,0,0,1-4.125-.438c.134.021.273.012.406.039-4.711-.913-10.17-.367-14.983-.242-2.4.067-6.127.755-8.262-.573-3.595-2.242,2.326-4.18,3.967-4.516a78.1,78.1,0,0,1,11-1.12c1.653-.1,3.306-.2,4.958-.269,1.59-.072,4.171.3,5.627-.346a12.381,12.381,0,0,1-2.624-.285c-1.189-.033-2.381-.021-3.573-.031-2.348-.015-4.662.082-7.012.2-2.272.118-4.55.24-6.828.276-1.972.031-8.456-.151-5.171-3.742,1.686-1.844,5.384-1.835,7.619-2.114,2.636-.329,5.3-.477,7.95-.622,2.036-.11,4.073-.2,6.106-.336,1.292-.088,2.584-.209,3.867-.355.348-.039,2.679-.573,2.681-.571-1.377-1.1-6.154-.167-7.888-.048-2.123.146-4.246.219-6.37.321-2.18.11-11.956,1.816-11.037-2.026.9-3.737,9.988-3.725,12.906-4.07.83-.1,12.754-1.038,12.8-1.6.11-1.219-12.09-.4-13.476-.295-2.12.161-4.247.374-6.354.607-1.714.191-6.018,1.619-7.149-.051" transform="translate(-523.644 -236.409)" fill="#2ac9cd"/><path d="M532.647,279.287a1.19,1.19,0,0,1-2.114-1.046l6.524-13.182a1.192,1.192,0,0,1,2.118,1.046Z" transform="translate(-524.779 -217.556)" fill="#2ac9cd"/><path d="M537.74,279.758a1.19,1.19,0,0,1-2.132-1.01l6.294-13.292a1.19,1.19,0,0,1,2.132,1.01Z" transform="translate(-514.446 -216.784)" fill="#2ac9cd"/></g><path d="M3.06-23.46v8.275H7.929v-.648H3.756v-3.31H7.569v-.648H3.756v-3.022H7.929v-.648Zm10.9,2.278H13.3v3.6a1.629,1.629,0,0,1-1.7,1.847c-.923,0-1.607-.54-1.607-1.895v-3.55h-.66v3.55c0,1.7.863,2.518,2.195,2.518a1.845,1.845,0,0,0,1.775-.875v.8h.66Zm3.789.552a1.4,1.4,0,0,1,1.2.612l.552-.408a1.955,1.955,0,0,0-1.691-.827,1.533,1.533,0,0,0-1.511.887v-.815h-.66v6h.66V-18.8C16.3-19.886,16.815-20.63,17.75-20.63ZM24.8-17.752v-.875c0-1.7-.9-2.626-2.434-2.626s-2.434.923-2.434,2.626v.875c0,1.679.887,2.638,2.434,2.638C23.974-15.114,24.8-16.121,24.8-17.752Zm-.66,0c0,1.259-.612,2.027-1.775,2.027-1.211,0-1.775-.767-1.775-2.027v-.875c0-1.307.624-2.015,1.775-2.015s1.775.708,1.775,2.015Zm6.847-.875c0-1.7-.851-2.626-2.338-2.626a1.927,1.927,0,0,0-1.811.827v-.756h-.66v8.275h.66v-2.986a1.929,1.929,0,0,0,1.811.779c1.559,0,2.338-1.007,2.338-2.65Zm-2.386,2.9c-1.319,0-1.751-.8-1.763-1.931V-18.7c0-1.175.492-1.943,1.763-1.943,1.139,0,1.727.708,1.727,2.015v.863C30.33-16.5,29.754-15.725,28.6-15.725Zm8.095-2.29v-.612c0-1.7-.815-2.626-2.314-2.626s-2.314.923-2.314,2.626v.863a2.365,2.365,0,0,0,2.518,2.65,2.209,2.209,0,0,0,2.051-.971l-.528-.372a1.671,1.671,0,0,1-1.559.732c-1.271,0-1.823-.851-1.823-2.039v-.252Zm-3.969-.612c0-1.3.564-2.015,1.655-2.015s1.655.708,1.655,2.015v.012h-3.31ZM37.873-16.9c0,1.151.756,1.787,2.087,1.787a1.7,1.7,0,0,0,1.7-.815v.744h.66v-4.149c0-1.463-.7-1.919-2.159-1.919a2.081,2.081,0,0,0-2.087.959l.5.348c.384-.636.851-.684,1.571-.684,1.1,0,1.511.276,1.511,1.3v.744H39.912C38.676-18.591,37.873-18.052,37.873-16.9Zm3.79-.516c0,1.343-.732,1.679-1.7,1.679-.839,0-1.427-.312-1.427-1.151,0-.636.348-1.115,1.379-1.115h1.751ZM44-15.185h.66v-3.6a1.621,1.621,0,0,1,1.691-1.847c.935,0,1.619.54,1.619,1.907v3.538h.66v-3.55c0-1.691-.875-2.518-2.207-2.518a1.8,1.8,0,0,0-1.763.887v-.815H44Zm12.064-3.274c1.919,0,3.01-.935,3.01-2.494s-1.1-2.506-3.01-2.506H53.547v8.275h.7v-3.274Zm-1.823-.648v-3.706h1.823c1.595,0,2.314.684,2.314,1.859s-.72,1.847-2.314,1.847Zm10.1,1.091v-.612c0-1.7-.815-2.626-2.314-2.626s-2.314.923-2.314,2.626v.863a2.365,2.365,0,0,0,2.518,2.65,2.209,2.209,0,0,0,2.051-.971l-.528-.372a1.671,1.671,0,0,1-1.559.732c-1.271,0-1.823-.851-1.823-2.039v-.252Zm-3.969-.612c0-1.3.564-2.015,1.655-2.015s1.655.708,1.655,2.015v.012H60.37ZM69.664-20.4a1.9,1.9,0,0,0-1.811-.851c-1.487,0-2.338.923-2.338,2.626v.863c0,1.643.779,2.65,2.338,2.65a1.9,1.9,0,0,0,1.811-.8v.732h.66V-23.46h-.66ZM67.9-15.725c-1.163,0-1.727-.779-1.727-2.039v-.863c0-1.307.588-2.015,1.727-2.015,1.283,0,1.763.8,1.763,2.027v.863C69.664-16.577,69.244-15.725,67.9-15.725Zm4.281.54h.66v-6h-.66Zm-.072-7.471h.8v-.8h-.8ZM74.4-16.9c0,1.151.756,1.787,2.087,1.787a1.7,1.7,0,0,0,1.7-.815v.744h.66v-4.149c0-1.463-.7-1.919-2.159-1.919a2.081,2.081,0,0,0-2.087.959l.5.348c.384-.636.851-.684,1.571-.684,1.1,0,1.511.276,1.511,1.3v.744H76.44C75.2-18.591,74.4-18.052,74.4-16.9Zm3.789-.516c0,1.343-.732,1.679-1.7,1.679-.839,0-1.427-.312-1.427-1.151,0-.636.348-1.115,1.379-1.115H78.19ZM80-20.57h.767v3.538c0,1.247.384,1.847,1.715,1.847h.42v-.636h-.4c-.971,0-1.079-.432-1.079-1.391V-20.57H82.9v-.612H81.428V-22.5h-.66v1.319H80Zm6.332-.06a1.4,1.4,0,0,1,1.2.612l.552-.408a1.955,1.955,0,0,0-1.691-.827,1.533,1.533,0,0,0-1.511.887v-.815h-.66v6h.66V-18.8C84.882-19.886,85.4-20.63,86.333-20.63Zm2.71,5.444h.66v-6h-.66Zm-.072-7.471h.8v-.8h-.8Zm6.332,6.2a1.69,1.69,0,0,1-1.511.732c-1.319,0-1.871-.851-1.871-2.039v-.863a1.766,1.766,0,0,1,1.871-2.015,1.814,1.814,0,0,1,1.5.672l.528-.36a2.381,2.381,0,0,0-2.027-.923,2.344,2.344,0,0,0-2.53,2.626v.863a2.357,2.357,0,0,0,2.53,2.65,2.251,2.251,0,0,0,2.039-.971Zm4.809-7v8.275h4.869v-.648h-4.173v-3.31h3.813v-.648h-3.813v-3.022h4.173v-.648Zm10.841,5.708v-.875c0-1.7-.9-2.626-2.434-2.626s-2.434.923-2.434,2.626v.875c0,1.679.887,2.638,2.434,2.638C110.125-15.114,110.953-16.121,110.953-17.752Zm-.66,0c0,1.259-.612,2.027-1.775,2.027-1.211,0-1.775-.767-1.775-2.027v-.875c0-1.307.624-2.015,1.775-2.015s1.775.708,1.775,2.015Zm5.972-2.506a2.24,2.24,0,0,0-2.123-1c-1.355,0-2.087.648-2.087,1.619,0,1.211.923,1.559,1.943,1.691,1.187.156,1.787.42,1.787,1.187,0,.72-.588,1.019-1.523,1.019a1.85,1.85,0,0,1-1.751-.732l-.516.36a2.454,2.454,0,0,0,2.255,1c1.595,0,2.195-.72,2.195-1.655,0-1.271-.971-1.607-2.135-1.763-.839-.108-1.595-.276-1.595-1.115,0-.684.612-.983,1.415-.983a1.664,1.664,0,0,1,1.631.732Zm1.775,5.073h.66v-6h-.66Zm-.072-7.471h.8v-.8h-.8Zm2.59,7.471h.66v-3.6a1.621,1.621,0,0,1,1.691-1.847c.935,0,1.619.54,1.619,1.907v3.538h.66v-3.55c0-1.691-.875-2.518-2.207-2.518a1.8,1.8,0,0,0-1.763.887v-.815h-.66Zm10.877-2.566v-.875c0-1.7-.9-2.626-2.434-2.626s-2.434.923-2.434,2.626v.875c0,1.679.887,2.638,2.434,2.638C130.608-15.114,131.435-16.121,131.435-17.752Zm-.66,0c0,1.259-.612,2.027-1.775,2.027-1.211,0-1.775-.767-1.775-2.027v-.875c0-1.307.624-2.015,1.775-2.015s1.775.708,1.775,2.015Zm6.847-.875c0-1.7-.851-2.626-2.338-2.626a1.927,1.927,0,0,0-1.811.827v-.756h-.66v8.275h.66v-2.986a1.929,1.929,0,0,0,1.811.779c1.559,0,2.338-1.007,2.338-2.65Zm-2.386,2.9c-1.319,0-1.751-.8-1.763-1.931V-18.7c0-1.175.492-1.943,1.763-1.943,1.139,0,1.727.708,1.727,2.015v.863C136.964-16.5,136.388-15.725,135.237-15.725Zm3.766.54h.66v-3.6a1.621,1.621,0,0,1,1.691-1.847c.935,0,1.619.54,1.619,1.907v3.538h.66v-3.55c0-1.691-.875-2.518-2.207-2.518a1.823,1.823,0,0,0-1.763.887V-23.46H139Zm6.488,0h.66v-6h-.66Zm-.072-7.471h.8v-.8h-.8Zm2.59,5.648c0,1.247.42,1.847,1.8,1.847v-.624c-1.043,0-1.139-.552-1.139-1.391V-23.46h-.66Zm3.394,1.823h.66v-6h-.66Zm-.072-7.471h.8v-.8h-.8Zm6.332,6.2a1.69,1.69,0,0,1-1.511.732c-1.319,0-1.871-.851-1.871-2.039v-.863a1.766,1.766,0,0,1,1.871-2.015,1.814,1.814,0,0,1,1.5.672l.528-.36a2.381,2.381,0,0,0-2.027-.923,2.344,2.344,0,0,0-2.53,2.626v.863a2.357,2.357,0,0,0,2.53,2.65,2.251,2.251,0,0,0,2.039-.971ZM3.06-8.294V-.019H7.929V-.667H3.756v-3.31H7.569v-.648H3.756V-7.646H7.929v-.648Zm10.205,3.2a2.24,2.24,0,0,0-2.123-1c-1.355,0-2.087.648-2.087,1.619,0,1.211.923,1.559,1.943,1.691,1.187.156,1.787.42,1.787,1.187,0,.72-.588,1.019-1.523,1.019A1.85,1.85,0,0,1,9.512-1.3L9-.942a2.454,2.454,0,0,0,2.255,1c1.595,0,2.195-.72,2.195-1.655,0-1.271-.971-1.607-2.135-1.763-.839-.108-1.595-.276-1.595-1.115,0-.684.612-.983,1.415-.983a1.664,1.664,0,0,1,1.631.732Zm6.164,2.506v-.875c0-1.7-.9-2.626-2.434-2.626s-2.434.923-2.434,2.626v.875c0,1.679.887,2.638,2.434,2.638C18.6.053,19.429-.954,19.429-2.585Zm-.66,0c0,1.259-.612,2.027-1.775,2.027-1.211,0-1.775-.767-1.775-2.027v-.875c0-1.307.624-2.015,1.775-2.015s1.775.708,1.775,2.015Zm6.847-.875c0-1.7-.851-2.626-2.338-2.626a1.927,1.927,0,0,0-1.811.827v-.756h-.66V2.259h.66V-.727a1.929,1.929,0,0,0,1.811.779c1.559,0,2.338-1.007,2.338-2.65Zm-2.386,2.9c-1.319,0-1.751-.8-1.763-1.931V-3.533c0-1.175.492-1.943,1.763-1.943,1.139,0,1.727.708,1.727,2.015V-2.6C24.958-1.338,24.382-.559,23.231-.559ZM27-.019h.66v-3.6a1.621,1.621,0,0,1,1.691-1.847c.935,0,1.619.54,1.619,1.907V-.019h.66v-3.55c0-1.691-.875-2.518-2.207-2.518a1.823,1.823,0,0,0-1.763.887V-8.294H27ZM33-1.734C33-.583,33.76.053,35.091.053a1.7,1.7,0,0,0,1.7-.815v.744h.66V-4.168c0-1.463-.7-1.919-2.159-1.919a2.081,2.081,0,0,0-2.087.959l.5.348c.384-.636.851-.684,1.571-.684,1.1,0,1.511.276,1.511,1.3v.744H35.043C33.808-3.425,33-2.885,33-1.734Zm3.79-.516c0,1.343-.732,1.679-1.7,1.679-.839,0-1.427-.312-1.427-1.151,0-.636.348-1.115,1.379-1.115h1.751ZM38.832-2.6c0,1.643.779,2.65,2.338,2.65a1.9,1.9,0,0,0,1.811-.8v.492c0,1.187-.54,1.979-1.751,1.979A1.615,1.615,0,0,1,39.72.988L39.2,1.36a2.1,2.1,0,0,0,1.991.971,2.289,2.289,0,0,0,2.446-2.59V-6.015h-.66v.779a1.9,1.9,0,0,0-1.811-.851c-1.487,0-2.338.923-2.338,2.626ZM41.219-.559c-1.163,0-1.727-.779-1.727-2.039v-.863c0-1.307.588-2.015,1.727-2.015,1.247,0,1.763.767,1.763,1.943v.947C42.982-1.41,42.562-.559,41.219-.559Zm4.281.54h.66v-6H45.5ZM45.428-7.49h.8v-.8h-.8ZM47.491-5.4h.767v3.538c0,1.247.384,1.847,1.715,1.847h.42V-.655H50c-.971,0-1.079-.432-1.079-1.391V-5.4h1.475v-.612H48.918V-7.334h-.66v1.319h-.767Zm4.4,5.384h.66v-6h-.66ZM51.82-7.49h.8v-.8h-.8Zm6.524,2.4a2.24,2.24,0,0,0-2.123-1c-1.355,0-2.087.648-2.087,1.619,0,1.211.923,1.559,1.943,1.691,1.187.156,1.787.42,1.787,1.187,0,.72-.588,1.019-1.523,1.019A1.85,1.85,0,0,1,54.59-1.3l-.516.36a2.454,2.454,0,0,0,2.255,1c1.595,0,2.195-.72,2.195-1.655,0-1.271-.971-1.607-2.135-1.763-.839-.108-1.595-.276-1.595-1.115,0-.684.612-.983,1.415-.983a1.664,1.664,0,0,1,1.631.732ZM68.921-.019,67-3.677a2.139,2.139,0,0,0,1.7-2.231c0-1.571-1.079-2.386-2.95-2.386H63.176V-.019h.7V-3.533h1.883a4.155,4.155,0,0,0,.552-.024L68.141-.019ZM63.872-4.18V-7.646h1.883c1.451,0,2.255.5,2.255,1.739s-.8,1.727-2.255,1.727ZM74.389-2.849v-.612c0-1.7-.815-2.626-2.314-2.626s-2.314.923-2.314,2.626V-2.6A2.365,2.365,0,0,0,72.278.053a2.209,2.209,0,0,0,2.051-.971L73.8-1.29a1.671,1.671,0,0,1-1.559.732c-1.271,0-1.823-.851-1.823-2.039v-.252ZM70.42-3.461c0-1.3.564-2.015,1.655-2.015s1.655.708,1.655,2.015v.012H70.42Zm5.145.863c0,1.643.779,2.65,2.338,2.65a1.9,1.9,0,0,0,1.811-.8v.492c0,1.187-.54,1.979-1.751,1.979A1.615,1.615,0,0,1,76.452.988l-.516.372a2.1,2.1,0,0,0,1.991.971,2.289,2.289,0,0,0,2.446-2.59V-6.015h-.66v.779A1.9,1.9,0,0,0,77.9-6.087c-1.487,0-2.338.923-2.338,2.626ZM77.951-.559c-1.163,0-1.727-.779-1.727-2.039v-.863c0-1.307.588-2.015,1.727-2.015,1.247,0,1.763.767,1.763,1.943v.947C79.713-1.41,79.294-.559,77.951-.559Zm4.281.54h.66v-6h-.66ZM82.16-7.49h.8v-.8h-.8Zm6.524,2.4a2.24,2.24,0,0,0-2.123-1c-1.355,0-2.087.648-2.087,1.619,0,1.211.923,1.559,1.943,1.691,1.187.156,1.787.42,1.787,1.187,0,.72-.588,1.019-1.523,1.019A1.85,1.85,0,0,1,84.93-1.3l-.516.36a2.454,2.454,0,0,0,2.255,1c1.595,0,2.195-.72,2.195-1.655,0-1.271-.971-1.607-2.135-1.763-.839-.108-1.595-.276-1.595-1.115,0-.684.612-.983,1.415-.983a1.664,1.664,0,0,1,1.631.732ZM89.751-5.4h.767v3.538c0,1.247.384,1.847,1.715,1.847h.42V-.655h-.4c-.971,0-1.079-.432-1.079-1.391V-5.4h1.475v-.612H91.178V-7.334h-.66v1.319h-.767Zm6.332-.06a1.4,1.4,0,0,1,1.2.612l.552-.408a1.955,1.955,0,0,0-1.691-.827,1.533,1.533,0,0,0-1.511.887v-.815h-.66v6h.66v-3.61C94.632-4.72,95.147-5.463,96.083-5.463Zm2.566,7.723c1.427,0,1.811-.6,2.3-2.039l2.171-6.236h-.7L100.652-.882,98.577-6.015h-.72L100.316.077l-.024.072c-.408,1.151-.708,1.463-1.643,1.463Z" transform="translate(-2.51 77.086)" fill="#fff"/><path d="M152.663-.589H-1.295A.705.705,0,0,1-2-1.295.705.705,0,0,1-1.295-2H152.663a.705.705,0,0,1,.705.705A.705.705,0,0,1,152.663-.589Z" transform="translate(2 47.147)" fill="#fff"/><path d="M-18540.57,6125.9c2.4-3.079,5.453-3.116,7.816-3.589s2.014.425,2.014.425-.014,1.766-1.084,1.975-3.648.209-7.42,3.778S-18542.969,6128.978-18540.57,6125.9Z" transform="translate(18692.236 -6107.297)" fill="#2ac9cd"/></g><path d="M16.862-38.521a9.483,9.483,0,0,1-5.365-1.4,8.445,8.445,0,0,1-3.116-3.714,12.526,12.526,0,0,1-1.011-5.076,15.158,15.158,0,0,1,.763-4.973A10.954,10.954,0,0,1,10.3-57.463a9.612,9.612,0,0,1,3.322-2.414,10.268,10.268,0,0,1,4.189-.846,9.524,9.524,0,0,1,3.528.6,5.05,5.05,0,0,1,2.352,1.816,5.264,5.264,0,0,1,.846,3.074,5.964,5.964,0,0,1-.681,2.847,7.071,7.071,0,0,1-1.919,2.249,11.051,11.051,0,0,1-2.93,1.609,19.115,19.115,0,0,1-3.8.97,32.441,32.441,0,0,1-4.457.371v-2.889a21.528,21.528,0,0,0,2.786-.186,19.382,19.382,0,0,0,2.744-.557,10.144,10.144,0,0,0,2.352-.97,5.454,5.454,0,0,0,1.63-1.382,2.849,2.849,0,0,0,.6-1.774,2.094,2.094,0,0,0-.887-1.9,4.3,4.3,0,0,0-2.373-.578,6.042,6.042,0,0,0-2.538.536,6.266,6.266,0,0,0-2.1,1.589,7.506,7.506,0,0,0-1.444,2.538A10.288,10.288,0,0,0,11-49.375a10.033,10.033,0,0,0,.722,3.962,6.118,6.118,0,0,0,2.043,2.641,5.3,5.3,0,0,0,3.178.949,6.29,6.29,0,0,0,2.1-.31,5.315,5.315,0,0,0,1.63-.949q.763-.64,1.671-1.548a1.718,1.718,0,0,1,1.135-.619,1.806,1.806,0,0,1,1.094.454,1.81,1.81,0,0,1,.7.97,1.221,1.221,0,0,1-.289,1.052,8.617,8.617,0,0,1-2.435,2.5,10.212,10.212,0,0,1-2.868,1.341A10.412,10.412,0,0,1,16.862-38.521Zm128.3-.165a2.511,2.511,0,0,1-1.3-.268.884.884,0,0,1-.433-.8V-54.533a3.631,3.631,0,0,0-.536-2.332,1.893,1.893,0,0,0-1.486-.6,1.85,1.85,0,0,0-1.176.371,2.418,2.418,0,0,0-.743,1.073,6.116,6.116,0,0,0-.351,1.651,1.4,1.4,0,0,1-.371.97,1.538,1.538,0,0,1-1.073.31,1.832,1.832,0,0,1-1.073-.289q-.413-.289-.371-1.362a7.722,7.722,0,0,1,.722-3.074,4.9,4.9,0,0,1,1.774-2.022,4.851,4.851,0,0,1,2.662-.722,7.681,7.681,0,0,1,2.022.248,4.207,4.207,0,0,1,1.568.784,4.458,4.458,0,0,1,1.094,1.321,6.271,6.271,0,0,1,.64,1.857l.041.206a9.508,9.508,0,0,1,1.073-1.919,8.419,8.419,0,0,1,1.321-1.444,5.37,5.37,0,0,1,1.465-.908,3.989,3.989,0,0,1,1.506-.31,1.78,1.78,0,0,1,1.011.289q.433.289.433,1.279a7.078,7.078,0,0,0,.227,1.94,2.474,2.474,0,0,0,.66,1.176,1.46,1.46,0,0,0,1.011.392,3.373,3.373,0,0,0,2.146-.949,22.046,22.046,0,0,0,2.146-2.1.821.821,0,0,1,.825-.31,1.688,1.688,0,0,1,.846.516,2.032,2.032,0,0,1,.516.887.832.832,0,0,1-.165.8A15.22,15.22,0,0,1,158.779-54a5.729,5.729,0,0,1-3.3,1.155,4.517,4.517,0,0,1-2.084-.5,4.152,4.152,0,0,1-1.609-1.486,5.956,5.956,0,0,1-.846-2.393,3.666,3.666,0,0,0-1.176.784,8.063,8.063,0,0,0-1.073,1.3,11.39,11.39,0,0,0-.949,1.733,17.925,17.925,0,0,0-.763,2.043v11.6a.875.875,0,0,1-.454.8A2.735,2.735,0,0,1,145.161-38.686Z" transform="translate(-18975 6153.844)" fill="#2ac9cd"/><path d="M12.58-83.383a.964.964,0,0,1-.867-.371,2.423,2.423,0,0,1-.248-1.279,2.41,2.41,0,0,1,.248-1.3.988.988,0,0,1,.867-.351H25.992a1.047,1.047,0,0,1,.887.351,2.256,2.256,0,0,1,.268,1.3,2.268,2.268,0,0,1-.268,1.279,1.02,1.02,0,0,1-.887.371Zm25.957,13q-1.816,0-1.816-1.155v-36.975a.9.9,0,0,1,.475-.846,2.861,2.861,0,0,1,1.382-.268h8.295a23.178,23.178,0,0,1,7.242.97,8.392,8.392,0,0,1,4.395,3.1A9.647,9.647,0,0,1,60-99.931,11.872,11.872,0,0,1,58.758-94.3a11.341,11.341,0,0,1-3.26,3.838,16.9,16.9,0,0,1-4.457,2.373,28.689,28.689,0,0,1-4.911,1.279q-1.609.206-3.116.33t-2.662.124V-71.54a.959.959,0,0,1-.454.867A2.572,2.572,0,0,1,38.537-70.384Zm1.816-19.23q.825,0,1.774-.062t1.96-.165q1.011-.1,2.043-.227A19.62,19.62,0,0,0,51.041-91.6a9.541,9.541,0,0,0,3.776-3.1,8.647,8.647,0,0,0,1.465-5.2,6.113,6.113,0,0,0-1.052-3.755,5.96,5.96,0,0,0-3.157-2.043,18.118,18.118,0,0,0-5.2-.64h-6.52Zm28.68,18.653a1.967,1.967,0,0,1-1.362-.413,1.59,1.59,0,0,1-.454-1.238v-35.9a.911.911,0,0,1,.454-.846,2.736,2.736,0,0,1,1.362-.268H87.727a1.047,1.047,0,0,1,.887.351,2.256,2.256,0,0,1,.268,1.3,2.268,2.268,0,0,1-.268,1.279,1.02,1.02,0,0,1-.887.371H70.849v13.247H85a1.047,1.047,0,0,1,.887.351,2.256,2.256,0,0,1,.268,1.3,2.268,2.268,0,0,1-.268,1.279A1.02,1.02,0,0,1,85-89.78H70.849v15.516H87.727a1.047,1.047,0,0,1,.887.351,2.256,2.256,0,0,1,.268,1.3,2.268,2.268,0,0,1-.268,1.279,1.02,1.02,0,0,1-.887.371Zm28.887,0a1.967,1.967,0,0,1-1.362-.413,1.59,1.59,0,0,1-.454-1.238v-35.9a.911.911,0,0,1,.454-.846,2.736,2.736,0,0,1,1.362-.268h18.694a1.047,1.047,0,0,1,.887.351,2.256,2.256,0,0,1,.268,1.3,2.268,2.268,0,0,1-.268,1.279,1.02,1.02,0,0,1-.887.371H99.736v13.247H113.89a1.047,1.047,0,0,1,.887.351,2.256,2.256,0,0,1,.268,1.3,2.268,2.268,0,0,1-.268,1.279,1.02,1.02,0,0,1-.887.371H99.736v15.516h16.878a1.047,1.047,0,0,1,.887.351,2.256,2.256,0,0,1,.268,1.3,2.268,2.268,0,0,1-.268,1.279,1.02,1.02,0,0,1-.887.371Z" transform="translate(-18956.193 6185.5)" fill="#fff"/></g></svg>