<svg xmlns="http://www.w3.org/2000/svg" xmlns:xlink="http://www.w3.org/1999/xlink" width="198.5" height="81.62" viewBox="0 0 198.5 81.62"><defs><clipPath id="a"><rect width="79.5" height="81.62" fill="#fff"/></clipPath></defs><g transform="translate(-140 -799.939)"><g transform="translate(240 828.75)"><path d="M20,13H4a1,1,0,0,1,0-2H20a1,1,0,0,1,0,2Z"/><path d="M13,20a1,1,0,0,1-.707-1.707L18.586,12,12.293,5.707a1,1,0,0,1,1.414-1.414l7,7a1,1,0,0,1,0,1.414l-7,7A1,1,0,0,1,13,20Z"/></g><g transform="translate(280.5 808.049)"><path d="M26.5-1A56,56,0,0,1,45.591,1.993a19.182,19.182,0,0,1,5.992,3.368A6.242,6.242,0,0,1,54,10a6.242,6.242,0,0,1-2.417,4.639,19.182,19.182,0,0,1-5.992,3.368A56,56,0,0,1,26.5,21,56,56,0,0,1,7.409,18.007a19.182,19.182,0,0,1-5.992-3.368A6.242,6.242,0,0,1-1,10,6.242,6.242,0,0,1,1.417,5.361,19.182,19.182,0,0,1,7.409,1.993,56,56,0,0,1,26.5-1Zm0,20a53.984,53.984,0,0,0,18.385-2.865C49.407,14.429,52,12.193,52,10s-2.593-4.429-7.115-6.135A53.984,53.984,0,0,0,26.5,1,53.984,53.984,0,0,0,8.115,3.865C3.593,5.571,1,7.807,1,10s2.593,4.429,7.115,6.135A53.984,53.984,0,0,0,26.5,19Z" transform="translate(4 3)"/><path d="M30.4,29.5a56.113,56.113,0,0,1-19.02-2.963A19.144,19.144,0,0,1,5.412,23.2,6.179,6.179,0,0,1,3,18.6a5.987,5.987,0,0,1,2.1-4.315,16.994,16.994,0,0,1,5.237-3.208,1,1,0,0,1,.772,1.845C7.226,14.546,5,16.616,5,18.6c0,2.166,2.582,4.376,7.084,6.065A54.1,54.1,0,0,0,30.4,27.5a54.1,54.1,0,0,0,18.317-2.836c4.5-1.688,7.084-3.9,7.084-6.065,0-1.984-2.226-4.054-6.108-5.678a1,1,0,0,1,.772-1.845A16.994,16.994,0,0,1,55.7,14.285,5.987,5.987,0,0,1,57.8,18.6a6.179,6.179,0,0,1-2.412,4.6,19.144,19.144,0,0,1-5.971,3.335A56.113,56.113,0,0,1,30.4,29.5Z" transform="translate(0 20.702)"/><path d="M30.4,30.1a56.112,56.112,0,0,1-19.02-2.963A19.144,19.144,0,0,1,5.412,23.8,6.179,6.179,0,0,1,3,19.2V6A1,1,0,0,1,5,6V19.2c0,2.166,2.582,4.376,7.084,6.065A54.1,54.1,0,0,0,30.4,28.1a54.1,54.1,0,0,0,18.317-2.836c4.5-1.688,7.084-3.9,7.084-6.065V6a1,1,0,0,1,2,0V19.2a6.179,6.179,0,0,1-2.412,4.6,19.144,19.144,0,0,1-5.971,3.335A56.113,56.113,0,0,1,30.4,30.1Z" transform="translate(0 6.901)"/><path d="M30.4,38.1a56.113,56.113,0,0,1-19.02-2.963A19.144,19.144,0,0,1,5.412,31.8,6.179,6.179,0,0,1,3,27.2V14a1,1,0,0,1,2,0V27.2c0,2.166,2.582,4.376,7.084,6.065A54.1,54.1,0,0,0,30.4,36.1a54.1,54.1,0,0,0,18.317-2.836c4.5-1.688,7.084-3.9,7.084-6.065V14a1,1,0,1,1,2,0V27.2a6.179,6.179,0,0,1-2.412,4.6,19.144,19.144,0,0,1-5.971,3.335A56.113,56.113,0,0,1,30.4,38.1Z" transform="translate(0 25.302)"/></g><g transform="translate(140 799.939)"><g clip-path="url(#a)"><path d="M17.544,18.906H1.361A1.361,1.361,0,0,1,0,17.544V1.361A1.361,1.361,0,0,1,1.361,0H11.13a1.361,1.361,0,0,1,0,2.723H2.723v13.46h13.46V11.355a1.361,1.361,0,1,1,2.723,0v6.19a1.361,1.361,0,0,1-1.361,1.361" fill="#fff"/><path d="M39.854,16.291a1.357,1.357,0,0,1-.963-.4l-2.224-2.223a1.361,1.361,0,0,1,1.925-1.925L39.854,13,47.362,5.5a1.361,1.361,0,0,1,1.925,1.925l-8.47,8.47a1.357,1.357,0,0,1-.963.4" transform="translate(-29.685 -4.173)" fill="#fff"/><path d="M210.816,23.263H163.464a1.361,1.361,0,0,1,0-2.723h47.351a1.361,1.361,0,1,1,0,2.723" transform="translate(-132.677 -16.811)" fill="#fff"/><path d="M187.507,71.333H163.464a1.361,1.361,0,0,1,0-2.723h24.042a1.361,1.361,0,0,1,0,2.723" transform="translate(-132.677 -56.156)" fill="#fff"/><path d="M17.544,191.65H1.361A1.361,1.361,0,0,1,0,190.288V174.105a1.361,1.361,0,0,1,1.361-1.361H11.13a1.361,1.361,0,1,1,0,2.723H2.723v13.46h13.46V184.1a1.361,1.361,0,1,1,2.723,0v6.19a1.361,1.361,0,0,1-1.361,1.361" transform="translate(0 -141.387)" fill="#fff"/><path d="M39.854,189.035a1.357,1.357,0,0,1-.963-.4l-2.224-2.224a1.361,1.361,0,1,1,1.925-1.925l1.261,1.261,7.508-7.508a1.361,1.361,0,0,1,1.925,1.925l-8.47,8.47a1.357,1.357,0,0,1-.963.4" transform="translate(-29.685 -145.56)" fill="#fff"/><path d="M210.816,196.008H163.464a1.361,1.361,0,0,1,0-2.723h47.351a1.361,1.361,0,1,1,0,2.723" transform="translate(-132.677 -158.199)" fill="#fff"/><path d="M187.507,244.077H163.464a1.361,1.361,0,1,1,0-2.723h24.042a1.361,1.361,0,1,1,0,2.723" transform="translate(-132.677 -197.542)" fill="#fff"/><path d="M17.544,364.394H1.361A1.361,1.361,0,0,1,0,363.032V346.849a1.361,1.361,0,0,1,1.361-1.361H11.13a1.361,1.361,0,0,1,0,2.723H2.723v13.46h13.46v-4.828a1.361,1.361,0,1,1,2.723,0v6.19a1.361,1.361,0,0,1-1.361,1.361" transform="translate(0 -282.773)" fill="#fff"/><path d="M39.854,361.779a1.361,1.361,0,0,1-.963-.4l-2.224-2.224a1.361,1.361,0,1,1,1.925-1.925l1.261,1.261,7.508-7.508a1.361,1.361,0,0,1,1.925,1.925l-8.47,8.47a1.361,1.361,0,0,1-.963.4" transform="translate(-29.685 -286.945)" fill="#fff"/><path d="M210.816,368.751H163.464a1.361,1.361,0,0,1,0-2.723h47.351a1.361,1.361,0,0,1,0,2.723" transform="translate(-132.677 -299.585)" fill="#fff"/><path d="M187.507,416.821H163.464a1.361,1.361,0,0,1,0-2.723h24.042a1.361,1.361,0,0,1,0,2.723" transform="translate(-132.677 -338.929)" fill="#fff"/></g></g></g></svg>