<svg xmlns="http://www.w3.org/2000/svg" xmlns:xlink="http://www.w3.org/1999/xlink" width="198.5" height="110.328" viewBox="0 0 198.5 110.328"><defs><clipPath id="a"><rect width="79.5" height="110.328" transform="translate(0 0)" fill="none"/></clipPath></defs><g transform="translate(-140 -398.563)"><g transform="translate(140 398.566)"><g transform="translate(0 -0.004)" clip-path="url(#a)"><path d="M77.607,110.324H1.9A1.894,1.894,0,0,1,0,108.43V26.456a1.894,1.894,0,0,1,3.788,0v80.081H75.713V3.785H26.46A1.894,1.894,0,1,1,26.46,0H77.607A1.894,1.894,0,0,1,79.5,1.891V108.43a1.894,1.894,0,0,1-1.894,1.894" transform="translate(-0.001 0.003)" fill="#fff" fill-rule="evenodd"/><path d="M21.779,28.349H1.894A1.894,1.894,0,0,1,.555,25.115L25.119.551A1.894,1.894,0,0,1,28.353,1.89V21.775a6.581,6.581,0,0,1-6.573,6.573M6.466,24.561H21.779a2.788,2.788,0,0,0,2.785-2.785V6.463Z" transform="translate(0 0.004)" fill="#fff" fill-rule="evenodd"/><path d="M390.318,742.172H345.851a1.894,1.894,0,1,1,0-3.788h44.467a1.894,1.894,0,0,1,0,3.788" transform="translate(-328.334 -704.846)" fill="#fff" fill-rule="evenodd"/><path d="M390.318,1011.822H345.851a1.894,1.894,0,1,1,0-3.788h44.467a1.894,1.894,0,0,1,0,3.788" transform="translate(-328.334 -962.249)" fill="#fff" fill-rule="evenodd"/><path d="M390.318,1281.47H345.851a1.894,1.894,0,0,1,0-3.788h44.467a1.894,1.894,0,0,1,0,3.788" transform="translate(-328.334 -1219.649)" fill="#fff" fill-rule="evenodd"/><path d="M335.829,1541.167H272.4a1.894,1.894,0,0,1-1.894-1.894v-28.351a1.894,1.894,0,0,1,1.894-1.894h63.425a1.894,1.894,0,1,1,0,3.788H274.3v24.563h61.531a1.894,1.894,0,1,1,0,3.788" transform="translate(-258.223 -1440.487)" fill="#fff" fill-rule="evenodd"/><path d="M872.881,1669.12H867.4a1.894,1.894,0,1,1,0-3.788h5.481a2,2,0,0,0,.006-4h-1.592a5.783,5.783,0,1,1,0-11.565h5.481a1.894,1.894,0,1,1,0,3.788h-5.481a1.995,1.995,0,1,0,0,3.989h1.592a5.789,5.789,0,0,1-.006,11.577" transform="translate(-826.195 -1574.833)" fill="#fff" fill-rule="evenodd"/><path d="M443.5,1669.12H438.74a9.677,9.677,0,1,1,0-19.354H443.5a1.894,1.894,0,0,1,0,3.788H438.74a5.889,5.889,0,1,0,0,11.778H443.5a1.894,1.894,0,0,1,0,3.788" transform="translate(-409.575 -1574.833)" fill="#fff" fill-rule="evenodd"/><path d="M1209.187,1669.109a1.894,1.894,0,0,1-1.728-1.118l-7-15.566a1.894,1.894,0,1,1,3.455-1.553l5.268,11.723,5.269-11.723a1.894,1.894,0,1,1,3.455,1.553l-7,15.566a1.894,1.894,0,0,1-1.728,1.118" transform="translate(-1145.778 -1574.821)" fill="#fff" fill-rule="evenodd"/></g></g><g transform="translate(240 442)"><path d="M20,13H4a1,1,0,0,1,0-2H20a1,1,0,0,1,0,2Z"/><path d="M13,20a1,1,0,0,1-.707-1.707L18.586,12,12.293,5.707a1,1,0,0,1,1.414-1.414l7,7a1,1,0,0,1,0,1.414l-7,7A1,1,0,0,1,13,20Z"/></g><g transform="translate(280.5 421.299)"><path d="M26.5-1A56,56,0,0,1,45.591,1.993a19.182,19.182,0,0,1,5.992,3.368A6.242,6.242,0,0,1,54,10a6.242,6.242,0,0,1-2.417,4.639,19.182,19.182,0,0,1-5.992,3.368A56,56,0,0,1,26.5,21,56,56,0,0,1,7.409,18.007a19.182,19.182,0,0,1-5.992-3.368A6.242,6.242,0,0,1-1,10,6.242,6.242,0,0,1,1.417,5.361,19.182,19.182,0,0,1,7.409,1.993,56,56,0,0,1,26.5-1Zm0,20a53.984,53.984,0,0,0,18.385-2.865C49.407,14.429,52,12.193,52,10s-2.593-4.429-7.115-6.135A53.984,53.984,0,0,0,26.5,1,53.984,53.984,0,0,0,8.115,3.865C3.593,5.571,1,7.807,1,10s2.593,4.429,7.115,6.135A53.984,53.984,0,0,0,26.5,19Z" transform="translate(4 3)"/><path d="M30.4,29.5a56.113,56.113,0,0,1-19.02-2.963A19.144,19.144,0,0,1,5.412,23.2,6.179,6.179,0,0,1,3,18.6a5.987,5.987,0,0,1,2.1-4.315,16.994,16.994,0,0,1,5.237-3.208,1,1,0,0,1,.772,1.845C7.226,14.546,5,16.616,5,18.6c0,2.166,2.582,4.376,7.084,6.065A54.1,54.1,0,0,0,30.4,27.5a54.1,54.1,0,0,0,18.317-2.836c4.5-1.688,7.084-3.9,7.084-6.065,0-1.984-2.226-4.054-6.108-5.678a1,1,0,0,1,.772-1.845A16.994,16.994,0,0,1,55.7,14.285,5.987,5.987,0,0,1,57.8,18.6a6.179,6.179,0,0,1-2.412,4.6,19.144,19.144,0,0,1-5.971,3.335A56.113,56.113,0,0,1,30.4,29.5Z" transform="translate(0 20.702)"/><path d="M30.4,30.1a56.112,56.112,0,0,1-19.02-2.963A19.144,19.144,0,0,1,5.412,23.8,6.179,6.179,0,0,1,3,19.2V6A1,1,0,0,1,5,6V19.2c0,2.166,2.582,4.376,7.084,6.065A54.1,54.1,0,0,0,30.4,28.1a54.1,54.1,0,0,0,18.317-2.836c4.5-1.688,7.084-3.9,7.084-6.065V6a1,1,0,0,1,2,0V19.2a6.179,6.179,0,0,1-2.412,4.6,19.144,19.144,0,0,1-5.971,3.335A56.113,56.113,0,0,1,30.4,30.1Z" transform="translate(0 6.901)"/><path d="M30.4,38.1a56.113,56.113,0,0,1-19.02-2.963A19.144,19.144,0,0,1,5.412,31.8,6.179,6.179,0,0,1,3,27.2V14a1,1,0,0,1,2,0V27.2c0,2.166,2.582,4.376,7.084,6.065A54.1,54.1,0,0,0,30.4,36.1a54.1,54.1,0,0,0,18.317-2.836c4.5-1.688,7.084-3.9,7.084-6.065V14a1,1,0,1,1,2,0V27.2a6.179,6.179,0,0,1-2.412,4.6,19.144,19.144,0,0,1-5.971,3.335A56.113,56.113,0,0,1,30.4,38.1Z" transform="translate(0 25.302)"/></g></g></svg>