<svg xmlns="http://www.w3.org/2000/svg" width="292.544" height="101.805" viewBox="0 0 292.544 101.805"><g transform="translate(1 8611.985)"><path d="M54.144,99.077,40.792,69.088a4.6,4.6,0,0,1,2.329-6.067l.061-.027L39.892,55.6a28.917,28.917,0,1,1,3.517-1.74L46.764,61.4l.256-.114a4.6,4.6,0,0,1,6.067,2.329L66.439,93.6A4.6,4.6,0,0,1,64.11,99.67l-3.9,1.736a4.592,4.592,0,0,1-6.068-2.329ZM47.821,63.084l-3.9,1.736a2.629,2.629,0,0,0-1.331,3.467L55.943,98.276a2.629,2.629,0,0,0,3.467,1.331l3.9-1.736A2.629,2.629,0,0,0,64.64,94.4L51.288,64.415a2.626,2.626,0,0,0-3.467-1.331ZM2.626,28.887A26.248,26.248,0,0,0,46.882,48c-.15-6.181-4.181-11.135-9.131-11.135-.13,0-.271,0-.4.007a8.454,8.454,0,0,1,2.642-.423c4.537,0,8.363,3.656,9.544,8.648A26.257,26.257,0,1,0,2.626,28.887ZM29.048,28a8.874,8.874,0,0,1-6.462,4.3,7.821,7.821,0,0,1-2.694-.186c.13-.007.271-.018.4-.033,5.052-.53,8.589-6.378,7.862-13.339-.443-6.434-4.374-11.463-9.159-11.463-.131,0-.273,0-.4.009a7.845,7.845,0,0,1,2.66-.466c5.251,0,9.554,5.325,9.961,12.091A15.857,15.857,0,0,1,30.092,26c.636,5.612,4.18,9.908,8.459,9.908.121,0,.253,0,.372-.008a7.32,7.32,0,0,1-2.474.431C32.334,36.328,29.866,32.835,29.048,28Z" transform="translate(-1 -8611.985)" fill="#fff"/><path d="M3.577-41.447c0,3.906,2.468,6.254,6.854,6.254q5.14,0,6.542-4.026a.751.751,0,0,0-.527-1.054l-1.294-.455c-.575-.216-.791-.1-1.054.5Q13.27-38,10.431-38C7.962-38,6.6-39.218,6.6-41.423v-5.3c0-2.2,1.366-3.4,3.834-3.4,1.917,0,3.139.743,3.666,2.2.216.575.455.695,1.03.5l1.318-.455a.728.728,0,0,0,.5-1.054c-.935-2.66-3.115-4-6.518-4-4.385,0-6.854,2.372-6.854,6.23Zm23.8-10.5c-.192-.5-.431-.647-1.006-.647H25.1a.865.865,0,0,0-1.006.671L18.1-36.342c-.192.527,0,.791.551.791h1.1c.982,0,1.294-.144,1.486-.719l1.126-3.091h6.614l1.1,3.091c.192.575.5.719,1.486.719h1.246c.551,0,.743-.264.551-.791Zm.767,10.113H23.2l1.845-5.08a8.758,8.758,0,0,0,.527-2.9h.168l.024.407a15.224,15.224,0,0,0,.551,2.516ZM46.256-52.566c-.6,0-.815.216-.815.815v7.429a29.8,29.8,0,0,0,.527,4.841h-.144a21.473,21.473,0,0,0-2.013-4.074l-5.823-8.627a.861.861,0,0,0-.791-.383H35.832c-.6,0-.839.216-.839.815v15.384c0,.6.24.815.839.815H37.1c.6,0,.815-.216.815-.815v-7.524a30.032,30.032,0,0,0-.527-4.769h.144A22.091,22.091,0,0,0,39.5-44.634l5.871,8.675a.878.878,0,0,0,.791.407h1.366c.6,0,.815-.216.815-.815V-51.751c0-.6-.216-.815-.815-.815Zm4.936,11.119c0,3.906,2.468,6.254,6.854,6.254q5.14,0,6.542-4.026a.751.751,0,0,0-.527-1.054l-1.294-.455c-.575-.216-.791-.1-1.054.5Q60.885-38,58.046-38c-2.468,0-3.834-1.222-3.834-3.427v-5.3c0-2.2,1.366-3.4,3.834-3.4,1.917,0,3.139.743,3.666,2.2.216.575.455.695,1.03.5l1.318-.455a.728.728,0,0,0,.5-1.054c-.935-2.66-3.115-4-6.518-4-4.385,0-6.854,2.372-6.854,6.23ZM67.847-52.566c-.6,0-.839.216-.839.815v15.384c0,.6.24.815.839.815h1.366c.6,0,.815-.216.815-.815v-5.655H71.8c1.63,0,2.2.335,2.852,1.677l2.013,4.074c.288.6.575.719,1.63.719h1.39c.551,0,.695-.264.407-.815l-2.636-5.056a2.968,2.968,0,0,0-.767-1.03c2.013-.671,3.163-2.372,3.163-4.841,0-3.283-2.037-5.272-5.392-5.272Zm8.2,7.093a2.607,2.607,0,0,1-1.869.647H70.027v-4.936h4.146a2.625,2.625,0,0,1,1.869.623,2.509,2.509,0,0,1,.647,1.845A2.413,2.413,0,0,1,76.042-45.472Zm6.087,4.026c0,3.906,2.468,6.254,6.854,6.254,4.337,0,6.83-2.348,6.83-6.254v-5.224c0-3.906-2.492-6.254-6.83-6.254-4.385,0-6.854,2.348-6.854,6.254Zm10.688.024c0,2.2-1.366,3.427-3.834,3.427s-3.834-1.2-3.834-3.427v-5.272c0-2.229,1.366-3.427,3.834-3.427s3.834,1.222,3.834,3.427Zm11.91-11.143c-.6,0-.839.216-.839.815v15.384c0,.6.24.815.839.815h5.368c4.409,0,6.949-2.4,6.949-6.326v-4.361c0-3.93-2.54-6.326-6.949-6.326Zm9.322,10.712c0,2.277-1.414,3.5-3.93,3.5h-3.211V-49.762h3.211c2.516,0,3.93,1.222,3.93,3.5Zm13.467-10.089c-.192-.5-.431-.647-1.006-.647h-1.27a.865.865,0,0,0-1.006.671l-5.991,15.576c-.192.527,0,.791.551.791h1.1c.983,0,1.294-.144,1.486-.719l1.126-3.091h6.614l1.1,3.091c.192.575.5.719,1.486.719h1.246c.551,0,.743-.264.551-.791Zm.767,10.113h-4.936l1.845-5.08a8.758,8.758,0,0,0,.527-2.9h.168l.024.407a15.224,15.224,0,0,0,.551,2.516ZM3.577-14.2c0,3.906,2.468,6.254,6.854,6.254q5.14,0,6.542-4.026a.751.751,0,0,0-.527-1.054l-1.294-.455c-.575-.216-.791-.1-1.054.5q-.827,2.229-3.666,2.229c-2.468,0-3.834-1.222-3.834-3.427v-5.3c0-2.2,1.366-3.4,3.834-3.4,1.917,0,3.139.743,3.666,2.2.216.575.455.695,1.03.5l1.318-.455a.728.728,0,0,0,.5-1.054c-.935-2.66-3.115-4-6.518-4-4.385,0-6.854,2.372-6.854,6.23Zm23.8-10.5c-.192-.5-.431-.647-1.006-.647H25.1a.865.865,0,0,0-1.006.671L18.1-9.1c-.192.527,0,.791.551.791h1.1c.982,0,1.294-.144,1.486-.719l1.126-3.091h6.614l1.1,3.091c.192.575.5.719,1.486.719h1.246c.551,0,.743-.264.551-.791Zm.767,10.113H23.2l1.845-5.08a8.758,8.758,0,0,0,.527-2.9h.168l.024.407a15.224,15.224,0,0,0,.551,2.516ZM35.832-25.32c-.6,0-.839.216-.839.815V-9.12c0,.6.24.815.839.815h6.782c3.235,0,5.392-1.725,5.392-4.673,0-2.181-.815-3.571-2.444-4.146v-.1a3.844,3.844,0,0,0,1.821-3.618c0-2.876-1.821-4.481-4.912-4.481ZM38.012-18.3v-4.218h4.1c1.462,0,2.2.695,2.2,2.109s-.743,2.109-2.2,2.109Zm6.806,4.984a1.987,1.987,0,0,1-2.277,2.2H38.012v-4.457h4.529A2,2,0,0,1,44.818-13.314Zm6.59-12.006c-.6,0-.839.216-.839.815V-9.12c0,.6.24.815.839.815h9.777c.6,0,.815-.216.815-.815v-1.174c0-.6-.216-.815-.815-.815h-7.6v-4.409H59.8c.6,0,.815-.216.815-.815v-1.174c0-.6-.216-.815-.815-.815H53.589v-4.194h7.333c.6,0,.839-.216.839-.815V-24.5c0-.6-.24-.815-.839-.815ZM75.4-13.482c-.575-.216-.791-.1-1.054.5q-.827,2.229-3.666,2.229c-2.468,0-3.834-1.222-3.834-3.427v-5.3c0-2.2,1.366-3.4,3.834-3.4,1.917,0,3.139.743,3.666,2.2.216.575.455.695,1.03.5l1.318-.455a.728.728,0,0,0,.5-1.054c-.935-2.66-3.115-4-6.518-4-4.385,0-6.854,2.372-6.854,6.23V-14.2c0,3.618,2.133,5.895,5.895,6.207l-.767,1.845c-.192.407-.1.6.312.575a3.913,3.913,0,0,1,.6-.024c.695.024,1.03.24,1.03.695,0,.575-.383.863-1.174.863a2.942,2.942,0,0,1-1.438-.383c-.264-.12-.383-.024-.383.288l.024.719a.671.671,0,0,0,.407.671,3.808,3.808,0,0,0,1.749.312c1.989,0,3.043-.791,3.211-2.348A1.927,1.927,0,0,0,71.273-6.94a1.081,1.081,0,0,0-.312.024l.407-1.054c3-.168,4.96-1.51,5.847-4a.751.751,0,0,0-.527-1.054ZM87.616-24.7c-.192-.5-.431-.647-1.006-.647H85.34a.865.865,0,0,0-1.006.671L78.343-9.1c-.192.527,0,.791.551.791H80c.982,0,1.294-.144,1.486-.719l1.126-3.091h6.614l1.1,3.091c.192.575.5.719,1.486.719h1.246c.551,0,.743-.264.551-.791Zm.767,10.113H83.447l1.845-5.08a8.758,8.758,0,0,0,.527-2.9h.168l.024.407a15.223,15.223,0,0,0,.551,2.516ZM100.676-25.32c-.6,0-.839.216-.839.815V-9.12c0,.6.24.815.839.815h9.777c.6,0,.815-.216.815-.815v-1.174c0-.6-.216-.815-.815-.815h-7.6v-4.409h6.207c.6,0,.815-.216.815-.815v-1.174c0-.6-.216-.815-.815-.815h-6.207v-4.194h7.333c.6,0,.839-.216.839-.815V-24.5c0-.6-.24-.815-.839-.815Zm19.123,0c-.6,0-.839.216-.839.815V-9.12c0,.6.24.815.839.815h1.366c.6,0,.815-.216.815-.815v-5.1h4.17c3.475,0,5.655-2.085,5.655-5.536s-2.181-5.559-5.655-5.559Zm2.181,8.291v-5.488h3.882a2.539,2.539,0,0,1,2.78,2.756,2.522,2.522,0,0,1-2.78,2.732Zm12.964-8.291c-.6,0-.839.216-.839.815V-9.12c0,.6.24.815.839.815h9.777c.6,0,.815-.216.815-.815v-1.174c0-.6-.216-.815-.815-.815h-7.6v-4.409h6.207c.6,0,.815-.216.815-.815v-1.174c0-.6-.216-.815-.815-.815h-6.207v-4.194h7.333c.6,0,.839-.216.839-.815V-24.5c0-.6-.24-.815-.839-.815Zm12.533,4.889c.072,1.773.575,2.9,1.653,3.595a5.729,5.729,0,0,0,2.3.982,22.006,22.006,0,0,0,2.564.383,13.218,13.218,0,0,1,1.917.288,2.162,2.162,0,0,1,1.869,1.941c0,1.653-1.27,2.492-3.81,2.492a3.65,3.65,0,0,1-3.738-2.229c-.264-.575-.479-.695-1.03-.5L147.884-13c-.575.192-.719.455-.5,1.054,1.03,2.684,2.971,4,6.59,4,4.313,0,6.83-2.109,6.83-5.368a4.559,4.559,0,0,0-1.318-3.4,7.023,7.023,0,0,0-3.019-1.342c-.887-.168-2.612-.359-3.355-.5-1.27-.192-2.684-.767-2.54-2.037,0-1.462,1.15-2.2,3.475-2.2a3.443,3.443,0,0,1,3.5,2.013c.288.551.479.623,1.03.407l1.318-.575c.551-.24.695-.6.455-1.1-1.174-2.468-2.971-3.618-6.3-3.618C149.849-25.679,147.477-23.57,147.477-20.431ZM162.67-14.2c0,3.906,2.468,6.254,6.854,6.254q5.14,0,6.542-4.026a.751.751,0,0,0-.527-1.054l-1.294-.455c-.575-.216-.791-.1-1.054.5q-.827,2.229-3.666,2.229c-2.468,0-3.834-1.222-3.834-3.427v-5.3c0-2.2,1.366-3.4,3.834-3.4,1.917,0,3.139.743,3.666,2.2.216.575.455.695,1.03.5l1.318-.455a.728.728,0,0,0,.5-1.054c-.935-2.66-3.115-4-6.518-4-4.385,0-6.854,2.372-6.854,6.23Zm15.337,0c0,3.906,2.468,6.254,6.854,6.254,4.337,0,6.83-2.348,6.83-6.254v-5.224c0-3.906-2.492-6.254-6.83-6.254-4.385,0-6.854,2.348-6.854,6.254Zm10.688.024c0,2.2-1.366,3.427-3.834,3.427s-3.834-1.2-3.834-3.427v-5.272c0-2.229,1.366-3.427,3.834-3.427s3.834,1.222,3.834,3.427Zm16.918.695c-.575-.216-.791-.1-1.054.5q-.827,2.229-3.666,2.229c-2.468,0-3.834-1.222-3.834-3.427v-5.3c0-2.2,1.366-3.4,3.834-3.4,1.917,0,3.139.743,3.666,2.2.216.575.455.695,1.03.5l1.318-.455a.728.728,0,0,0,.5-1.054c-.935-2.66-3.115-4-6.518-4-4.385,0-6.854,2.372-6.854,6.23V-14.2c0,3.618,2.133,5.895,5.895,6.207l-.767,1.845c-.192.407-.1.6.312.575a3.913,3.913,0,0,1,.6-.024c.695.024,1.03.24,1.03.695,0,.575-.383.863-1.174.863a2.942,2.942,0,0,1-1.438-.383c-.264-.12-.383-.024-.383.288l.024.719a.671.671,0,0,0,.407.671,3.807,3.807,0,0,0,1.749.312c1.989,0,3.043-.791,3.211-2.348A1.927,1.927,0,0,0,201.49-6.94a1.081,1.081,0,0,0-.312.024l.407-1.054c3-.168,4.96-1.51,5.847-4a.751.751,0,0,0-.527-1.054Zm3.762-.719c0,3.906,2.468,6.254,6.854,6.254,4.337,0,6.83-2.348,6.83-6.254v-5.224c0-3.906-2.492-6.254-6.83-6.254-4.385,0-6.854,2.348-6.854,6.254Zm10.688.024c0,2.2-1.366,3.427-3.834,3.427s-3.834-1.2-3.834-3.427v-5.272c0-2.229,1.366-3.427,3.834-3.427s3.834,1.222,3.834,3.427Z" transform="translate(68.487 -8547.875)" fill="#fff"/><path d="M2.933-24.825c-.1,0-.145.045-.145.145v7.634c0,.1.045.145.145.145h.234c.089,0,.134-.045.134-.145v-2.935H5.935A2.255,2.255,0,0,0,8.4-22.392a2.267,2.267,0,0,0-2.467-2.433ZM3.3-20.461v-3.884H5.891a1.818,1.818,0,0,1,1.975,1.953,1.806,1.806,0,0,1-1.975,1.931Zm7.009-4.565c0-.089-.045-.134-.123-.134H9.965c-.078,0-.123.045-.123.134v7.991c0,.089.045.134.123.134h.223c.078,0,.123-.045.123-.134ZM12.018-21.6a.124.124,0,0,0,.067.19l.179.067a.13.13,0,0,0,.179-.056,1.8,1.8,0,0,1,1.752-.949c1.306,0,1.708.647,1.708,1.73V-20c-.781-.078-1.328-.123-1.652-.123-1.741,0-2.422.446-2.422,1.685a1.541,1.541,0,0,0,.5,1.284,3.052,3.052,0,0,0,1.875.413,4.6,4.6,0,0,0,1.775-.29c.313-.134.4-.246.4-.636v-2.935a2.481,2.481,0,0,0-.469-1.585,2.092,2.092,0,0,0-1.7-.592A2.251,2.251,0,0,0,12.018-21.6ZM15.9-17.783c0,.268-.033.324-.257.413a4.176,4.176,0,0,1-1.473.223,2.384,2.384,0,0,1-1.462-.324,1.2,1.2,0,0,1-.391-.982c0-.926.5-1.272,1.886-1.272.313,0,.882.045,1.7.123Zm2.835-6.172c-.089,0-.134.045-.134.123v1.217H17.4a.112.112,0,0,0-.123.123v.19a.112.112,0,0,0,.123.123H18.6v3.248a2.354,2.354,0,0,0,.491,1.73,2.451,2.451,0,0,0,1.741.458.118.118,0,0,0,.134-.134v-.19a.118.118,0,0,0-.134-.134,2.01,2.01,0,0,1-1.384-.346,1.918,1.918,0,0,1-.368-1.4V-22.18h1.775c.089,0,.134-.045.134-.123v-.19c0-.078-.045-.123-.134-.123H19.083v-1.217c0-.078-.045-.123-.134-.123Zm3.2,2.355a.124.124,0,0,0,.067.19l.179.067a.13.13,0,0,0,.179-.056,1.8,1.8,0,0,1,1.752-.949c1.306,0,1.708.647,1.708,1.73V-20c-.781-.078-1.328-.123-1.652-.123-1.741,0-2.422.446-2.422,1.685a1.541,1.541,0,0,0,.5,1.284,3.052,3.052,0,0,0,1.875.413,4.6,4.6,0,0,0,1.775-.29c.313-.134.4-.246.4-.636v-2.935a2.481,2.481,0,0,0-.469-1.585,2.092,2.092,0,0,0-1.7-.592A2.251,2.251,0,0,0,21.94-21.6Zm3.884,3.817c0,.268-.033.324-.257.413a4.176,4.176,0,0,1-1.473.223,2.384,2.384,0,0,1-1.462-.324,1.2,1.2,0,0,1-.391-.982c0-.926.5-1.272,1.886-1.272.313,0,.882.045,1.7.123Zm4.855-7.377a2.378,2.378,0,0,0-1.674.491,2.338,2.338,0,0,0-.491,1.685v.368h-1.15c-.089,0-.134.045-.134.123v.19c0,.078.045.123.134.123h1.15v5.145a.118.118,0,0,0,.134.134h.212a.118.118,0,0,0,.134-.134V-22.18H30.78c.089,0,.134-.045.134-.123v-.19c0-.078-.045-.123-.134-.123H28.994v-.368a1.908,1.908,0,0,1,.368-1.373,2.057,2.057,0,0,1,1.4-.357c.089,0,.134-.045.134-.123v-.19a.118.118,0,0,0-.134-.134Zm.982,6.462c0,1.205.926,1.953,2.388,1.953s2.4-.748,2.4-1.953v-2.121c0-1.217-.926-1.964-2.4-1.964s-2.388.759-2.388,1.964Zm4.308,0c0,.938-.759,1.518-1.92,1.518s-1.909-.592-1.909-1.518V-20.83c0-.926.759-1.518,1.909-1.518s1.92.58,1.92,1.518Zm4.487-4.085a5.394,5.394,0,0,0-1.987.357c-.346.145-.424.268-.424.614v4.777a.118.118,0,0,0,.134.134H38.4c.078,0,.123-.045.123-.134v-4.643a.387.387,0,0,1,.234-.368,4.636,4.636,0,0,1,1.685-.29H40.8c.078,0,.123-.045.123-.134v-.179c0-.089-.045-.134-.123-.134Zm5,.536a1.933,1.933,0,0,0-1.484-.536,3.878,3.878,0,0,0-1.652.346c-.324.167-.424.29-.424.636v4.766a.118.118,0,0,0,.134.134h.223c.078,0,.123-.045.123-.134v-4.643a.4.4,0,0,1,.234-.391,3.033,3.033,0,0,1,1.306-.268c1.06,0,1.585.547,1.585,1.652v3.65a.118.118,0,0,0,.134.134h.212a.118.118,0,0,0,.134-.134v-3.672a2.277,2.277,0,0,0-.268-1.172,3.55,3.55,0,0,1,1.73-.458c1.06,0,1.54.525,1.54,1.652v3.65a.118.118,0,0,0,.134.134h.212a.118.118,0,0,0,.134-.134v-3.672c0-1.384-.659-2.076-1.964-2.076A4.046,4.046,0,0,0,45.457-22.247Zm5.625.647a.124.124,0,0,0,.067.19l.179.067a.13.13,0,0,0,.179-.056,1.8,1.8,0,0,1,1.752-.949c1.306,0,1.708.647,1.708,1.73V-20c-.781-.078-1.328-.123-1.652-.123-1.741,0-2.422.446-2.422,1.685a1.541,1.541,0,0,0,.5,1.284,3.052,3.052,0,0,0,1.875.413,4.6,4.6,0,0,0,1.775-.29c.313-.134.4-.246.4-.636v-2.935a2.481,2.481,0,0,0-.469-1.585,2.092,2.092,0,0,0-1.7-.592A2.251,2.251,0,0,0,51.082-21.6Zm3.884,3.817c0,.268-.033.324-.257.413a4.176,4.176,0,0,1-1.473.223,2.384,2.384,0,0,1-1.462-.324,1.2,1.2,0,0,1-.391-.982c0-.926.5-1.272,1.886-1.272.313,0,.882.045,1.7.123Zm4.955-1.183c0,1.484.77,2.221,2.31,2.221a4.974,4.974,0,0,0,1.842-.324c.357-.145.446-.257.446-.614v-7.344a.118.118,0,0,0-.134-.134h-.212a.118.118,0,0,0-.134.134v2.645a5.294,5.294,0,0,0-1.975-.4A1.913,1.913,0,0,0,59.921-20.6Zm4.118,1.15c0,.234-.033.279-.268.379a4.449,4.449,0,0,1-1.507.257c-1.25,0-1.875-.6-1.875-1.8v-1.607a1.542,1.542,0,0,1,1.741-1.752,4.421,4.421,0,0,1,1.909.424Zm2.042-1.127a2.054,2.054,0,0,0,2.344,2.2A2.472,2.472,0,0,0,70.8-18.017c.056-.089.045-.156-.045-.2l-.156-.089a.14.14,0,0,0-.2.056,2.088,2.088,0,0,1-1.976,1.094A1.64,1.64,0,0,1,66.562-18.9v-.759h4.085c.167,0,.257-.078.257-.246v-.569a2.154,2.154,0,0,0-2.411-2.31,2.155,2.155,0,0,0-2.411,2.333Zm4.342-1.1H66.562v-.446a1.723,1.723,0,0,1,1.931-1.864,1.723,1.723,0,0,1,1.931,1.864ZM82.2-24.825a.239.239,0,0,0-.2.134l-2.969,5.268L76.038-24.7a.253.253,0,0,0-.212-.123h-.179c-.1,0-.145.045-.145.145v7.634c0,.1.045.145.145.145h.2c.1,0,.145-.045.145-.145v-5.123c0-.58-.022-1.205-.067-1.864h.022c.268.58.536,1.094.8,1.551l2.02,3.572a.178.178,0,0,0,.19.112h.145a.181.181,0,0,0,.179-.112l1.987-3.527c.279-.5.558-1.027.837-1.6h.022c-.056.614-.078,1.239-.078,1.864v5.123c0,.1.045.145.134.145h.223c.089,0,.134-.045.134-.145V-24.68c0-.1-.045-.145-.134-.145ZM84.241-18.7c0,1.205.926,1.953,2.388,1.953s2.4-.748,2.4-1.953v-2.121c0-1.217-.926-1.964-2.4-1.964s-2.388.759-2.388,1.964Zm4.308,0c0,.938-.759,1.518-1.92,1.518s-1.909-.592-1.909-1.518V-20.83c0-.926.759-1.518,1.909-1.518s1.92.58,1.92,1.518Zm2.5-3.717c-.346.145-.424.268-.424.614v4.766a.118.118,0,0,0,.134.134h.223c.078,0,.123-.045.123-.134v-4.643a.387.387,0,0,1,.234-.368,4.794,4.794,0,0,1,1.674-.29,1.536,1.536,0,0,1,1.741,1.73v3.572c0,.089.045.134.123.134H95.1a.118.118,0,0,0,.134-.134v-3.594a1.909,1.909,0,0,0-2.165-2.154A5.461,5.461,0,0,0,91.049-22.414Zm6.161-2.2c-.223,0-.29.067-.29.279v.067c0,.223.067.29.29.29h.056c.212,0,.279-.078.279-.29v-.067c0-.212-.067-.279-.279-.279Zm-.089,2a.112.112,0,0,0-.123.123v5.458c0,.089.045.134.123.134h.223a.118.118,0,0,0,.134-.134v-5.458c0-.078-.045-.123-.134-.123ZM100-23.955c-.089,0-.134.045-.134.123v1.217H98.661a.112.112,0,0,0-.123.123v.19a.112.112,0,0,0,.123.123h1.205v3.248a2.354,2.354,0,0,0,.491,1.73,2.451,2.451,0,0,0,1.741.458.118.118,0,0,0,.134-.134v-.19a.118.118,0,0,0-.134-.134,2.01,2.01,0,0,1-1.384-.346,1.918,1.918,0,0,1-.368-1.4V-22.18h1.775c.089,0,.134-.045.134-.123v-.19c0-.078-.045-.123-.134-.123h-1.775v-1.217c0-.078-.045-.123-.134-.123Zm3.17,5.257c0,1.205.926,1.953,2.388,1.953s2.4-.748,2.4-1.953v-2.121c0-1.217-.926-1.964-2.4-1.964s-2.388.759-2.388,1.964Zm4.308,0c0,.938-.759,1.518-1.92,1.518s-1.909-.592-1.909-1.518V-20.83c0-.926.759-1.518,1.909-1.518s1.92.58,1.92,1.518Zm4.487-4.085a5.394,5.394,0,0,0-1.987.357c-.346.145-.424.268-.424.614v4.777a.118.118,0,0,0,.134.134h.223c.078,0,.123-.045.123-.134v-4.643a.387.387,0,0,1,.234-.368,4.636,4.636,0,0,1,1.685-.29h.357c.078,0,.123-.045.123-.134v-.179c0-.089-.045-.134-.123-.134Zm1.83-1.83c-.223,0-.29.067-.29.279v.067c0,.223.067.29.29.29h.056c.212,0,.279-.078.279-.29v-.067c0-.212-.067-.279-.279-.279Zm-.089,2a.112.112,0,0,0-.123.123v5.458c0,.089.045.134.123.134h.223a.118.118,0,0,0,.134-.134v-5.458c0-.078-.045-.123-.134-.123Zm2.321,5.279,3.594-4.81a.274.274,0,0,0,.056-.167v-.179a.112.112,0,0,0-.123-.123h-3.962a.112.112,0,0,0-.123.123v.179c0,.089.045.134.123.134h3.482l-3.594,4.822a.267.267,0,0,0-.056.156v.167c0,.089.045.134.123.134h4.063c.078,0,.123-.045.123-.134V-17.2c0-.089-.045-.134-.123-.134Zm4.911-4.264a.124.124,0,0,0,.067.19l.179.067a.13.13,0,0,0,.179-.056,1.8,1.8,0,0,1,1.752-.949c1.306,0,1.708.647,1.708,1.73V-20c-.781-.078-1.328-.123-1.652-.123-1.741,0-2.422.446-2.422,1.685a1.541,1.541,0,0,0,.5,1.284,3.052,3.052,0,0,0,1.875.413,4.6,4.6,0,0,0,1.775-.29c.313-.134.4-.246.4-.636v-2.935a2.481,2.481,0,0,0-.469-1.585,2.092,2.092,0,0,0-1.7-.592A2.251,2.251,0,0,0,120.938-21.6Zm3.884,3.817c0,.268-.033.324-.257.413a4.176,4.176,0,0,1-1.473.223,2.384,2.384,0,0,1-1.462-.324,1.2,1.2,0,0,1-.391-.982c0-.926.5-1.272,1.886-1.272.313,0,.882.045,1.7.123Zm6.418-.815c-.089-.033-.145,0-.179.089a1.711,1.711,0,0,1-1.9,1.328,1.652,1.652,0,0,1-1.886-1.719V-20.64c0-1.071.647-1.708,1.886-1.708a1.653,1.653,0,0,1,1.875,1.261c.033.089.089.123.179.089l.19-.067a.136.136,0,0,0,.078-.19,2.113,2.113,0,0,0-2.3-1.529c-1.563,0-2.377.792-2.377,2.165v1.708a2.02,2.02,0,0,0,2.2,2.165l-.335.893c-.056.123-.022.19.1.156a1.1,1.1,0,0,1,.413-.067c.5,0,.759.179.759.547,0,.458-.324.737-.871.737a1.493,1.493,0,0,1-.915-.29c-.045-.045-.078,0-.078.045v.145a.189.189,0,0,0,.1.179,1.783,1.783,0,0,0,.938.246c.748,0,1.239-.368,1.25-1.038.011-.5-.368-.837-.96-.837a1.071,1.071,0,0,0-.357.045l.279-.759a2.163,2.163,0,0,0,2.188-1.607.122.122,0,0,0-.078-.179Zm5.2-6.083c-.056,0-.089.033-.089.1q0,.7-.536.7a1.474,1.474,0,0,1-.8-.4,1.6,1.6,0,0,0-.938-.4c-.558,0-.837.346-.837,1.049a.082.082,0,0,0,.089.089h.156a.082.082,0,0,0,.089-.089c0-.435.19-.714.536-.714a1.521,1.521,0,0,1,.826.4,1.516,1.516,0,0,0,.915.4c.547,0,.826-.346.826-1.038,0-.067-.033-.1-.089-.1Zm-3.627,3.08a.124.124,0,0,0,.067.19l.179.067a.13.13,0,0,0,.179-.056,1.8,1.8,0,0,1,1.752-.949c1.306,0,1.708.647,1.708,1.73V-20c-.781-.078-1.328-.123-1.652-.123-1.741,0-2.422.446-2.422,1.685a1.541,1.541,0,0,0,.5,1.284,3.052,3.052,0,0,0,1.875.413,4.6,4.6,0,0,0,1.775-.29c.313-.134.4-.246.4-.636v-2.935a2.481,2.481,0,0,0-.469-1.585,2.092,2.092,0,0,0-1.7-.592A2.251,2.251,0,0,0,132.814-21.6Zm3.884,3.817c0,.268-.033.324-.257.413a4.176,4.176,0,0,1-1.473.223,2.384,2.384,0,0,1-1.462-.324,1.2,1.2,0,0,1-.391-.982c0-.926.5-1.272,1.886-1.272.313,0,.882.045,1.7.123Zm2-.915c0,1.205.926,1.953,2.388,1.953s2.4-.748,2.4-1.953v-2.121c0-1.217-.926-1.964-2.4-1.964s-2.388.759-2.388,1.964Zm4.308,0c0,.938-.759,1.518-1.92,1.518s-1.909-.592-1.909-1.518V-20.83c0-.926.759-1.518,1.909-1.518s1.92.58,1.92,1.518Zm5.335-6.127c-.1,0-.145.045-.145.145v7.634c0,.1.045.145.145.145h4.71c.1,0,.145-.045.145-.145v-.2c0-.089-.045-.134-.145-.134h-4.342v-3.292h3.705c.089,0,.134-.045.134-.145v-.2a.118.118,0,0,0-.134-.134h-3.705v-3.192h4.185c.1,0,.145-.045.145-.134v-.2c0-.1-.045-.145-.145-.145Zm6.741,2.366c-.357.145-.446.257-.446.614v7.266a.118.118,0,0,0,.134.134h.223c.078,0,.123-.045.123-.134v-2.645a4.435,4.435,0,0,0,1.931.48,1.932,1.932,0,0,0,2.2-2.165v-1.641a2.006,2.006,0,0,0-2.3-2.232A5.053,5.053,0,0,0,155.08-22.459Zm3.683,3.538a1.539,1.539,0,0,1-1.741,1.741,4.329,4.329,0,0,1-1.909-.491V-21.7c0-.234.022-.279.279-.379a4.292,4.292,0,0,1,1.5-.257c1.25,0,1.875.6,1.875,1.8Zm2.31-5.692c-.223,0-.29.067-.29.279v.067c0,.223.067.29.29.29h.056c.212,0,.279-.078.279-.29v-.067c0-.212-.067-.279-.279-.279Zm-.089,2a.112.112,0,0,0-.123.123v5.458c0,.089.045.134.123.134h.223a.118.118,0,0,0,.134-.134v-5.458c0-.078-.045-.123-.134-.123Zm1.976,3.65c0,1.484.77,2.221,2.31,2.221a4.974,4.974,0,0,0,1.842-.324c.357-.145.446-.257.446-.614v-7.344a.118.118,0,0,0-.134-.134h-.212a.118.118,0,0,0-.134.134v2.645a5.294,5.294,0,0,0-1.975-.4A1.913,1.913,0,0,0,162.96-20.6Zm4.118,1.15c0,.234-.033.279-.268.379a4.449,4.449,0,0,1-1.507.257c-1.25,0-1.875-.6-1.875-1.8v-1.607a1.542,1.542,0,0,1,1.741-1.752,4.421,4.421,0,0,1,1.909.424Zm2.042-1.127a2.054,2.054,0,0,0,2.344,2.2,2.472,2.472,0,0,0,2.377-1.272c.056-.089.045-.156-.045-.2l-.156-.089a.14.14,0,0,0-.2.056,2.088,2.088,0,0,1-1.975,1.094A1.64,1.64,0,0,1,169.6-18.9v-.759h4.085c.167,0,.257-.078.257-.246v-.569a2.154,2.154,0,0,0-2.411-2.31,2.155,2.155,0,0,0-2.411,2.333Zm4.342-1.1H169.6v-.446a1.723,1.723,0,0,1,1.931-1.864,1.723,1.723,0,0,1,1.931,1.864Zm5.525-2.2a1.933,1.933,0,0,0-1.484-.536,3.878,3.878,0,0,0-1.652.346c-.324.167-.424.29-.424.636v4.766a.118.118,0,0,0,.134.134h.223c.078,0,.123-.045.123-.134v-4.643a.4.4,0,0,1,.234-.391,3.033,3.033,0,0,1,1.306-.268c1.06,0,1.585.547,1.585,1.652v3.65a.118.118,0,0,0,.134.134h.212a.118.118,0,0,0,.134-.134v-3.672a2.277,2.277,0,0,0-.268-1.172,3.55,3.55,0,0,1,1.73-.458c1.06,0,1.54.525,1.54,1.652v3.65a.118.118,0,0,0,.134.134h.212a.118.118,0,0,0,.134-.134v-3.672c0-1.384-.658-2.076-1.964-2.076A4.046,4.046,0,0,0,178.987-22.247Zm5.993-2.366c-.223,0-.29.067-.29.279v.067c0,.223.067.29.29.29h.056c.212,0,.279-.078.279-.29v-.067c0-.212-.067-.279-.279-.279Zm-.089,2a.112.112,0,0,0-.123.123v5.458c0,.089.045.134.123.134h.223a.118.118,0,0,0,.134-.134v-5.458c0-.078-.045-.123-.134-.123Zm1.975,3.918c0,1.205.926,1.953,2.388,1.953s2.4-.748,2.4-1.953v-2.121c0-1.217-.926-1.964-2.4-1.964s-2.388.759-2.388,1.964Zm4.308,0c0,.938-.759,1.518-1.92,1.518s-1.909-.592-1.909-1.518V-20.83c0-.926.759-1.518,1.909-1.518s1.92.58,1.92,1.518Zm2.623-6.328c0-.089-.045-.134-.123-.134h-.223c-.078,0-.123.045-.123.134v7.991c0,.089.045.134.123.134h.223c.078,0,.123-.045.123-.134Zm2.958,1.328c-.067.033-.067.089-.011.156l.067.089c.033.045.1.045.179.011l1.987-1.138c.078-.033.078-.089.022-.167l-.112-.123c-.056-.078-.145-.078-.246-.011Zm-1.284,5c0,1.205.926,1.953,2.388,1.953s2.4-.748,2.4-1.953v-2.121c0-1.217-.926-1.964-2.4-1.964s-2.388.759-2.388,1.964Zm4.308,0c0,.938-.759,1.518-1.92,1.518s-1.909-.592-1.909-1.518V-20.83c0-.926.759-1.518,1.909-1.518s1.92.58,1.92,1.518Zm1.909-.268a1.894,1.894,0,0,0,2.143,2.143,5.056,5.056,0,0,0,1.987-.4v.759c0,1.306-.614,1.953-1.842,1.953a1.75,1.75,0,0,1-1.741-1.06.14.14,0,0,0-.2-.056l-.156.078c-.089.045-.112.112-.056.212a2.24,2.24,0,0,0,2.165,1.261q2.31,0,2.31-2.411v-5.357c0-.357-.078-.446-.435-.614a4.831,4.831,0,0,0-1.83-.324c-1.563,0-2.344.748-2.344,2.255Zm3.851-3.114c.234.1.279.145.279.368v4.04a4.932,4.932,0,0,1-1.931.413,1.516,1.516,0,0,1-1.719-1.719v-1.54c0-1.217.636-1.819,1.9-1.819A4.257,4.257,0,0,1,205.539-22.08Zm2.757-2.534c-.223,0-.29.067-.29.279v.067c0,.223.067.29.29.29h.056c.212,0,.279-.078.279-.29v-.067c0-.212-.067-.279-.279-.279Zm-.089,2a.112.112,0,0,0-.123.123v5.458c0,.089.045.134.123.134h.223a.118.118,0,0,0,.134-.134v-5.458c0-.078-.045-.123-.134-.123Zm1.964,3.705c0,1.373.826,2.165,2.355,2.165a2.195,2.195,0,0,0,2.355-1.607.122.122,0,0,0-.078-.179l-.2-.067c-.089-.033-.145,0-.179.089a1.711,1.711,0,0,1-1.9,1.328A1.652,1.652,0,0,1,210.64-18.9V-20.64c0-1.071.647-1.708,1.886-1.708a1.653,1.653,0,0,1,1.875,1.261c.033.089.089.123.179.089l.19-.067a.136.136,0,0,0,.078-.19,2.113,2.113,0,0,0-2.3-1.529c-1.563,0-2.377.792-2.377,2.165Zm6-2.69a.124.124,0,0,0,.067.19l.179.067a.13.13,0,0,0,.179-.056,1.8,1.8,0,0,1,1.752-.949c1.306,0,1.708.647,1.708,1.73V-20c-.781-.078-1.328-.123-1.652-.123-1.741,0-2.422.446-2.422,1.685a1.541,1.541,0,0,0,.5,1.284,3.052,3.052,0,0,0,1.875.413,4.6,4.6,0,0,0,1.775-.29c.313-.134.4-.246.4-.636v-2.935a2.481,2.481,0,0,0-.469-1.585,2.092,2.092,0,0,0-1.7-.592A2.251,2.251,0,0,0,216.175-21.6Zm3.884,3.817c0,.268-.033.324-.257.413a4.176,4.176,0,0,1-1.473.223,2.384,2.384,0,0,1-1.462-.324,1.2,1.2,0,0,1-.391-.982c0-.926.5-1.272,1.886-1.272.313,0,.882.045,1.7.123Z" transform="translate(69.017 -8519.912)" fill="#fff"/></g></svg>