<svg xmlns="http://www.w3.org/2000/svg" width="292" height="57.484" viewBox="0 0 292 57.484"><g transform="translate(-3695.129 -5754.929)"><g transform="translate(3776.259 5766.276)"><path d="M10.337,74.692V69.969H9.42v4.25a8.465,8.465,0,0,1-3.428.813,5.2,5.2,0,0,1,0-10.4,9.447,9.447,0,0,1,3.481.639l.237-.742a9.262,9.262,0,0,0-3.718-.736,6.04,6.04,0,0,0,0,12.078,8.716,8.716,0,0,0,4.345-1.174" transform="translate(-0.063 -63.282)" fill="#fff"/><path d="M8.342,65.753v-.781a3.588,3.588,0,0,0-3.091,1.97v-.405a11.434,11.434,0,0,0-.1-1.378h-.73v8.186h.834V69.269a3.33,3.33,0,0,1,3.091-3.516" transform="translate(8.46 -60.965)" fill="#fff" fill-rule="evenodd"/><path d="M12.977,70.017V65.04h-.831v4.8a2.545,2.545,0,1,1-5.063,0v-4.8H6.255v4.977a3.26,3.26,0,0,0,3.363,3.4,3.249,3.249,0,0,0,3.36-3.4" transform="translate(12.058 -60.832)" fill="#fff"/><path d="M17.274,69.256a4.023,4.023,0,0,0-3.936-4.277,3.557,3.557,0,0,0-3.123,1.745v-.186a8.815,8.815,0,0,0-.124-1.375h-.7V77.069h.816V71.8a3.554,3.554,0,0,0,3.123,1.73,4.024,4.024,0,0,0,3.939-4.279m-.828,0a3.219,3.219,0,0,1-3.108,3.516,3.535,3.535,0,0,1,0-7.03,3.226,3.226,0,0,1,3.108,3.514" transform="translate(18.204 -60.951)" fill="#fff" fill-rule="evenodd"/><path d="M21.062,69.256A4.164,4.164,0,1,0,16.9,73.535a4.116,4.116,0,0,0,4.158-4.279m-.834,0A3.334,3.334,0,1,1,16.9,65.742a3.334,3.334,0,0,1,3.324,3.514" transform="translate(24.746 -60.951)" fill="#fff" fill-rule="evenodd"/><path d="M25.849,76.018v-12.4h-.834v5.761a3.546,3.546,0,0,0-3.123-1.73,4.292,4.292,0,0,0,0,8.556,3.558,3.558,0,0,0,3.123-1.73v.169a8.466,8.466,0,0,0,.124,1.375Zm-.8-4.1a3.154,3.154,0,1,1-6.267,0,3.153,3.153,0,1,1,6.267,0" transform="translate(34.95 -63.617)" fill="#fff" fill-rule="evenodd"/><path d="M25.849,76.018v-12.4h-.834v5.761a3.546,3.546,0,0,0-3.123-1.73,4.292,4.292,0,0,0,0,8.556,3.558,3.558,0,0,0,3.123-1.73v.169a8.466,8.466,0,0,0,.124,1.375Zm-.8-4.1a3.154,3.154,0,1,1-6.267,0,3.153,3.153,0,1,1,6.267,0" transform="translate(123.838 -63.617)" fill="#fff" fill-rule="evenodd"/><path d="M29.2,69.323a3.934,3.934,0,1,0-7.828-.056,4.069,4.069,0,0,0,4.2,4.279,6.577,6.577,0,0,0,2.65-.512l-.169-.745a6.754,6.754,0,0,1-2.481.473,3.237,3.237,0,0,1-3.363-3.443H29.2Zm-.884-.787H22.269a3.023,3.023,0,0,1,3.008-2.783,3.055,3.055,0,0,1,3.04,2.783" transform="translate(41.651 -60.963)" fill="#fff" fill-rule="evenodd"/><path d="M29.2,69.323a3.934,3.934,0,1,0-7.828-.056,4.069,4.069,0,0,0,4.2,4.279,6.577,6.577,0,0,0,2.65-.512l-.169-.745a6.754,6.754,0,0,1-2.481.473,3.237,3.237,0,0,1-3.363-3.443H29.2Zm-.884-.787H22.269a3.023,3.023,0,0,1,3.008-2.783,3.055,3.055,0,0,1,3.04,2.783" transform="translate(130.538 -60.963)" fill="#fff" fill-rule="evenodd"/><path d="M32.625,75.547V74.7h-5.2V69.975h4.691v-.831H27.428V64.679h5.063v-.831h-5.93v11.7Z" transform="translate(51.808 -63.166)" fill="#fff"/><path d="M34.464,71.3c0-2.614-4.129-2.428-4.129-4.262,0-.68.547-1.3,1.63-1.3a4.932,4.932,0,0,1,1.769.408l.222-.713a4.956,4.956,0,0,0-1.99-.458A2.206,2.206,0,0,0,29.5,67.032c0,2.543,4.129,2.3,4.129,4.262,0,.9-.784,1.479-1.869,1.479a4.668,4.668,0,0,1-2.121-.645l-.29.68a4.722,4.722,0,0,0,2.41.73,2.442,2.442,0,0,0,2.7-2.242" transform="translate(57.268 -60.955)" fill="#fff"/><path d="M36.176,75.242v-.677c-.172.018-.34.018-.733.018-1.124,0-1.748-.526-1.748-1.973V67.7h2.481v-.766H33.694V64.072h-.828v2.866H31.627V67.7h1.239v4.924a2.359,2.359,0,0,0,2.579,2.682,2.789,2.789,0,0,0,.731-.068" transform="translate(61.723 -62.726)" fill="#fff"/><path d="M40.675,70.017V65.04h-.834v4.8a2.546,2.546,0,1,1-5.066,0v-4.8h-.831v4.977a3.366,3.366,0,1,0,6.731,0" transform="translate(66.259 -60.832)" fill="#fff"/><path d="M44.9,76.018v-12.4H44.07v5.761a3.547,3.547,0,0,0-3.126-1.73,4.293,4.293,0,0,0,0,8.556,3.559,3.559,0,0,0,3.126-1.73v.169a9.3,9.3,0,0,0,.118,1.375Zm-.8-4.1a3.154,3.154,0,1,1-6.267,0,3.153,3.153,0,1,1,6.267,0" transform="translate(72.256 -63.617)" fill="#fff" fill-rule="evenodd"/><path d="M48.751,69.256a4.16,4.16,0,1,0-4.161,4.279,4.115,4.115,0,0,0,4.161-4.279m-.825,0a3.335,3.335,0,1,1-3.336-3.514,3.34,3.34,0,0,1,3.336,3.514" transform="translate(78.965 -60.951)" fill="#fff" fill-rule="evenodd"/><path d="M48.991,71.3c0-2.614-4.129-2.428-4.129-4.262,0-.68.547-1.3,1.63-1.3a4.9,4.9,0,0,1,1.766.408l.225-.713a4.929,4.929,0,0,0-1.99-.458,2.206,2.206,0,0,0-2.464,2.055c0,2.543,4.132,2.3,4.132,4.262,0,.9-.784,1.479-1.869,1.479a4.669,4.669,0,0,1-2.123-.645l-.29.68a4.735,4.735,0,0,0,2.413.73,2.441,2.441,0,0,0,2.7-2.242" transform="translate(85.704 -60.955)" fill="#fff"/></g><g transform="translate(3916.763 5784.817)"><path d="M7.791,61.549a4.02,4.02,0,0,0-3.9-4.323A4,4,0,0,0,0,61.5a4.047,4.047,0,0,0,4.175,4.259,6.48,6.48,0,0,0,2.633-.507l-.167-.739a6.807,6.807,0,0,1-2.471.47A3.222,3.222,0,0,1,.825,61.551H7.791Zm-.879-.776H.9A3,3,0,0,1,3.889,58a3.044,3.044,0,0,1,3.022,2.771" transform="translate(0 -53.913)" fill="#fff" fill-rule="evenodd"/><path d="M12.38,59.327c0-2.18-1.436-3.446-3.749-3.446H5.623V67.525H6.5V62.81H8.633c2.347,0,3.747-1.271,3.747-3.483m-.877,0c0,1.658-.724,2.653-3.1,2.653H6.507V56.709H8.4c2.325,0,3.1.963,3.1,2.618" transform="translate(8.228 -55.881)" fill="#fff" fill-rule="evenodd"/><path d="M16.369,61.549a4.019,4.019,0,0,0-3.9-4.323A4,4,0,0,0,8.58,61.5a4.046,4.046,0,0,0,4.173,4.256,6.54,6.54,0,0,0,2.636-.5l-.167-.739a6.807,6.807,0,0,1-2.471.47,3.222,3.222,0,0,1-3.345-3.431Zm-.877-.776H9.477A3,3,0,0,1,12.467,58a3.042,3.042,0,0,1,3.025,2.771" transform="translate(12.554 -53.913)" fill="#fff" fill-rule="evenodd"/><path d="M17.3,63.522c0-2.606-4.1-2.419-4.1-4.244,0-.675.539-1.283,1.623-1.283a4.882,4.882,0,0,1,1.759.406l.222-.709a4.9,4.9,0,0,0-1.978-.461,2.2,2.2,0,0,0-2.451,2.047c0,2.537,4.109,2.3,4.109,4.244,0,.892-.776,1.471-1.857,1.471a4.732,4.732,0,0,1-2.116-.64l-.286.675a4.642,4.642,0,0,0,2.4.727,2.438,2.438,0,0,0,2.68-2.232" transform="translate(17.875 -53.906)" fill="#fff"/><path d="M21.844,65.208l-.268-.741a6.582,6.582,0,0,1-2.485.525,3.5,3.5,0,0,1,.02-7,6.579,6.579,0,0,1,2.483.525l.249-.746a6.534,6.534,0,0,0-2.737-.539,4.26,4.26,0,1,0,0,8.52,6.533,6.533,0,0,0,2.739-.544" transform="translate(21.676 -53.904)" fill="#fff"/><path d="M26.385,61.491a4.141,4.141,0,1,0-4.143,4.259,4.1,4.1,0,0,0,4.143-4.259m-.828,0a3.317,3.317,0,1,1-3.315-3.5,3.321,3.321,0,0,1,3.315,3.5" transform="translate(26.493 -53.904)" fill="#fff" fill-rule="evenodd"/><path d="M28.813,65.25l-.167-.741a6.385,6.385,0,0,1-2.448.473A3.491,3.491,0,0,1,26.2,58a6.442,6.442,0,0,1,2.448.453l.167-.727a6.232,6.232,0,0,0-2.616-.5,4.273,4.273,0,0,0-.645,8.483l-.2,1.278a4.922,4.922,0,0,1,.69-.064c.744,0,1,.372,1,.727,0,.32-.236.729-1,.729a2.922,2.922,0,0,1-.963-.222l-.133.571a2.53,2.53,0,0,0,1.163.288,1.431,1.431,0,0,0,1.576-1.352c0-.813-.576-1.281-1.525-1.281h-.084l.1-.631h.022a6.127,6.127,0,0,0,2.618-.5" transform="translate(32.19 -53.914)" fill="#fff"/><path d="M33.486,61.491a4.142,4.142,0,1,0-4.143,4.259,4.1,4.1,0,0,0,4.143-4.259m-.828,0a3.318,3.318,0,1,1-3.315-3.5,3.321,3.321,0,0,1,3.315,3.5" transform="translate(36.88 -53.904)" fill="#fff" fill-rule="evenodd"/></g><g transform="translate(3832.8 5784.125)"><path d="M7.858,61.081V48.745H7.03v5.732a3.533,3.533,0,0,0-3.111-1.724,4.271,4.271,0,0,0,0,8.513A3.536,3.536,0,0,0,7.03,59.544v.172a9.273,9.273,0,0,0,.118,1.365Zm-.793-4.074a3.239,3.239,0,0,1-3.146,3.5,3.21,3.21,0,0,1-3.091-3.5,3.184,3.184,0,0,1,3.091-3.478,3.215,3.215,0,0,1,3.146,3.478" transform="translate(0 -48.733)" fill="#fff" fill-rule="evenodd"/><path d="M11.664,58.7V50.556h-.825V52.1a3.513,3.513,0,0,0-3.094-1.724,4.271,4.271,0,0,0,0,8.515,3.492,3.492,0,0,0,3.094-1.741v.187a9,9,0,0,0,.116,1.367h.709Zm-.776-4.074a3.224,3.224,0,0,1-3.143,3.481,3.208,3.208,0,0,1-3.111-3.481,3.2,3.2,0,0,1,3.094-3.5,3.241,3.241,0,0,1,3.16,3.5" transform="translate(5.573 -46.354)" fill="#fff" fill-rule="evenodd"/><path d="M18.424,60.4l-.222-.793a8.379,8.379,0,0,1-2.99.525c-3.347,0-4.968-2.335-4.968-5.175s1.621-5.183,4.968-5.183a9.187,9.187,0,0,1,2.924.52l.236-.776a8.556,8.556,0,0,0-3.16-.571c-3.786,0-5.828,2.7-5.828,6.013s2.042,6.013,5.828,6.013a8.643,8.643,0,0,0,3.212-.571" transform="translate(13.731 -48.439)" fill="#fff"/><path d="M21.363,58.7V50.556h-.83V52.1a3.505,3.505,0,0,0-3.089-1.724,4.271,4.271,0,0,0,0,8.515,3.484,3.484,0,0,0,3.089-1.741v.187a9.278,9.278,0,0,0,.118,1.367h.712Zm-.778-4.074a3.143,3.143,0,1,1-6.249,0,3.2,3.2,0,0,1,3.091-3.5,3.238,3.238,0,0,1,3.158,3.5" transform="translate(19.761 -46.354)" fill="#fff" fill-rule="evenodd"/><path d="M25.277,57a4,4,0,0,0-3.916-4.256,3.55,3.55,0,0,0-3.111,1.741V48.74h-.828V61.076h.707a8.455,8.455,0,0,0,.121-1.352v-.187a3.54,3.54,0,0,0,3.111,1.739A4.018,4.018,0,0,0,25.277,57m-.825,0a3.21,3.21,0,0,1-3.091,3.5,3.506,3.506,0,0,1,0-6.978A3.184,3.184,0,0,1,24.452,57" transform="translate(25.492 -48.74)" fill="#fff" fill-rule="evenodd"/><path d="M28.875,54.689a3.913,3.913,0,1,0-7.789-.052,4.046,4.046,0,0,0,4.175,4.256,6.549,6.549,0,0,0,2.636-.5l-.17-.739a6.767,6.767,0,0,1-2.466.47,3.222,3.222,0,0,1-3.345-3.431ZM28,53.911H21.983a3,3,0,0,1,2.988-2.769A3.04,3.04,0,0,1,28,53.911" transform="translate(30.853 -46.361)" fill="#fff" fill-rule="evenodd"/><path d="M31.587,58.389l-.167-.741a6.444,6.444,0,0,1-2.448.473,3.491,3.491,0,0,1,0-6.978,6.344,6.344,0,0,1,2.448.458l.167-.729a6.241,6.241,0,0,0-2.616-.5,4.273,4.273,0,0,0-.645,8.483l-.2,1.278a5.4,5.4,0,0,1,.692-.064c.744,0,1,.369,1,.724,0,.32-.236.729-1,.729a2.968,2.968,0,0,1-.966-.222l-.133.574a2.569,2.569,0,0,0,1.165.286A1.43,1.43,0,0,0,30.457,60.8c0-.81-.581-1.278-1.525-1.278h-.086l.1-.631h.017a6.177,6.177,0,0,0,2.621-.5" transform="translate(36.249 -46.361)" fill="#fff"/><path d="M35.823,58.7V50.556h-.828V52.1A3.509,3.509,0,0,0,31.9,50.371a4.271,4.271,0,0,0,0,8.515,3.488,3.488,0,0,0,3.091-1.741v.187a9.278,9.278,0,0,0,.118,1.367h.709Zm-.778-4.074a3.144,3.144,0,1,1-6.252,0,3.2,3.2,0,0,1,3.091-3.5,3.24,3.24,0,0,1,3.16,3.5" transform="translate(40.918 -46.354)" fill="#fff" fill-rule="evenodd"/></g><g transform="translate(3776.259 5784.474)"><path d="M9.04,53.54l-.219-.793a8.383,8.383,0,0,1-2.993.525c-3.35,0-4.971-2.335-4.971-5.175s1.621-5.183,4.971-5.183a9.118,9.118,0,0,1,2.924.52l.236-.776a8.644,8.644,0,0,0-3.163-.571C2.044,42.081,0,44.783,0,48.1s2.044,6.018,5.83,6.018a8.64,8.64,0,0,0,3.21-.574" transform="translate(0 -42.086)" fill="#fff"/><path d="M11.978,51.843V43.7H11.15v1.54A3.507,3.507,0,0,0,8.061,43.51a4.02,4.02,0,0,0-3.936,4.259,4.019,4.019,0,0,0,3.936,4.259,3.487,3.487,0,0,0,3.089-1.739v.185a8.607,8.607,0,0,0,.121,1.367h.707ZM11.2,47.769a3.223,3.223,0,0,1-3.141,3.481,3.208,3.208,0,0,1-3.109-3.481,3.2,3.2,0,0,1,3.089-3.5,3.242,3.242,0,0,1,3.16,3.5" transform="translate(6.036 -40.002)" fill="#fff" fill-rule="evenodd"/><path d="M14.731,51.835V46.5A2.767,2.767,0,0,0,11.756,43.5a3.25,3.25,0,0,0-2.887,1.877v-.323a8.648,8.648,0,0,0-.14-1.37H8.041v8.146h.828V47.765c0-1.914,1.232-3.5,2.939-3.5,1.384,0,2.1.744,2.1,2.451v5.119Z" transform="translate(11.766 -40.011)" fill="#fff" fill-rule="evenodd"/><path d="M18.458,51.488l-.271-.744a6.592,6.592,0,0,1-2.483.522,3.5,3.5,0,0,1,.015-7A6.536,6.536,0,0,1,18.2,44.8l.259-.741a6.518,6.518,0,0,0-2.742-.542,4.259,4.259,0,1,0,0,8.518,6.6,6.6,0,0,0,2.739-.542" transform="translate(16.724 -40)" fill="#fff"/><path d="M18.776,44.282V43.5A3.578,3.578,0,0,0,15.7,45.462v-.406a11.592,11.592,0,0,0-.106-1.367h-.724v8.143H15.7V47.778a3.319,3.319,0,0,1,3.079-3.5" transform="translate(21.756 -40.011)" fill="#fff" fill-rule="evenodd"/><path d="M24.938,47.769A4.14,4.14,0,1,0,20.8,52.028a4.1,4.1,0,0,0,4.138-4.259m-.828,0a3.316,3.316,0,1,1-3.311-3.5,3.318,3.318,0,0,1,3.311,3.5" transform="translate(24.38 -40.002)" fill="#fff" fill-rule="evenodd"/></g><path d="M26.993,13V24.381c0,8.728-5.167,15.8-11.543,15.8-.164,0-.342,0-.5-.011a9.875,9.875,0,0,0,3.336.581c6.922,0,10.389-7.33,10.389-16.373V12.255Z" transform="translate(3695.001 5755.338)" fill="#fff"/><path d="M4.26,16.074c-.981,9.387,3.789,17.273,10.6,17.988.175.02.366.036.541.045a10.555,10.555,0,0,1-3.633.251C4.617,33.6-.457,25.624.135,16.3.683,7.18,6.486,0,13.567,0a10.58,10.58,0,0,1,3.586.628c-.174-.009-.365-.012-.542-.012C10.158.616,4.858,7.4,4.26,16.074" transform="translate(3720.209 5756.303)" fill="#fff"/><path d="M31.625,59.424c0-8.558,5.516-15.5,12.319-15.5.175,0,.366,0,.539.01a11.4,11.4,0,0,0-3.562-.57c-7.388,0-13.377,7.189-13.377,16.057Z" transform="translate(3667.585 5752.888)" fill="#fff"/><path d="M3.725,39.952A12.093,12.093,0,0,1,0,39.368c.18.01.384.011.561.011,5.7,0,10.786-4.7,12.377-11.441a18.187,18.187,0,0,1-1.54-3.446,20.809,20.809,0,0,1-.876-3.912l4.186,1.653a16.184,16.184,0,0,0,4.546,9.057l-.8,2.027a12.507,12.507,0,0,1-4.154-3.4,17.2,17.2,0,0,1-1.206,4.209,10.388,10.388,0,0,1-2.121,3.155,8.678,8.678,0,0,1-3.1,1.982A11.807,11.807,0,0,1,3.725,39.952Zm19.406-5.537a10.6,10.6,0,0,1-1.1-.058,10.47,10.47,0,0,1-2.956-.76l.675-1.873a9.873,9.873,0,0,0,5.373,2.337c.17.02.362.036.541.045A10.553,10.553,0,0,1,23.131,34.415Zm-8.608-13.5h0l-4.128-1.7a23.065,23.065,0,0,1,0-2.911A21.527,21.527,0,0,1,12.67,7.782l2.694,3.526a22.449,22.449,0,0,0-.843,4.766,22.787,22.787,0,0,0,0,4.842Zm1.19-10.692h0L13.021,7.133a16.828,16.828,0,0,1,2.124-2.965,13.893,13.893,0,0,1,2.592-2.259L19.557,3.9a17.057,17.057,0,0,0-3.844,6.325Zm4.8-7.2h0L18.365,1.516A10.722,10.722,0,0,1,23.827,0a10.543,10.543,0,0,1,3.586.628c-.148-.008-.326-.012-.542-.012a9.977,9.977,0,0,0-6.358,2.411Z" transform="translate(3726.317 5756.303)" fill="#fff"/><path d="M4.081,16.057H0A19.142,19.142,0,0,1,.475,11.8a17.848,17.848,0,0,1,1.34-3.825A15.119,15.119,0,0,1,6.585,2.22l.974,3.045A17.691,17.691,0,0,0,4.081,16.057ZM8.315,4.365h0L7.361,1.711A11.976,11.976,0,0,1,10.236.445a11.364,11.364,0,0,1,6.7.125c-.176-.009-.37-.01-.539-.01a10.976,10.976,0,0,0-8.085,3.8Z" transform="translate(3711.498 5796.256)" fill="#fff"/><path d="M3790.8,5572.427v2.385l-.643,1.258v1.545h4.156v-2.187h.806s.288-1.189.643-2.256a10.3,10.3,0,0,1,.772-1.776l.97-1.449a1.308,1.308,0,0,0,0-1.285,18.672,18.672,0,0,1-.97-2.966l2-1.612a16.07,16.07,0,0,1,1.065-1.258,11.7,11.7,0,0,1,1.545-.834l-1-1.675-4.7,2.509v3.547s-3.513,4.584-3.157,5.576S3790.8,5572.427,3790.8,5572.427Z" transform="translate(-61.931 234.798)" fill="#fff"/><path d="M3826.144,5566.128v1.032l.479,1.128,1.551-.835.253-.841,2.707-.484Z" transform="translate(-85.387 231.01)" fill="#fff"/><path d="M3834.03,5556.056c-2.317-.062,2.96.745,4.573.39a7.721,7.721,0,0,0,3.129-1.872l-2.125-1.382S3836.347,5556.118,3834.03,5556.056Z" transform="translate(-90.149 239.442)" fill="#fff"/><path d="M3858.978,5547.194l.806.711,1.551.547c.388.136,2.639-4.156,2.639-4.156l-1.934-1.094Z" transform="translate(-106.786 245.952)" fill="#fff"/><path d="M3871.1,5535.609s3.028,3.608,5.153,4.7,6.671,1,6.671,1a33,33,0,0,0-3.67-1.257,7.233,7.233,0,0,1-3.355-2.673Z" transform="translate(-114.689 250.9)" fill="#fff"/><path d="M3859.493,5521.46h1.912l-.422,3.608-1.19,3.93-2.385-.744,1.708-3.186Z" transform="translate(-105.763 260.122)" fill="#fff"/><path d="M3861.131,5492.49l.722,1.8,1.229,1.224,2.543.936,1.579.738-.772-2.221s-1.872-3.034-1.934-3.322-2.645-.964-2.645-.964l-.722-2.582s-.947-3.22-.338-3.541a21.352,21.352,0,0,0,2.289-1.838v-2.994l-1.951-.355-1.855-.868v3.028s-.8.93-.739,1.189,0,2.159,0,2.159l-1.55,1.162s.034,4.477.519,5.058S3861.131,5492.49,3861.131,5492.49Z" transform="translate(-105.488 288.116)" fill="#fff"/><path d="M3864.952,5455.332l2.672.485,1.8,1.224.452-3.191,1.1,1,.35,1.421.451.254.937-1.19,1.162-1.736v-4.708l2.188-1.736.226-1.032h.84v1.032l3.417-.451-2.611-.581-.807-1.19h-2.548l-1.866,1.478-.259,3.158-1.128,1.771-1.19,1.065-1.771-2.836Z" transform="translate(-110.68 310)" fill="#fff"/></g></svg>